STARTFONT 2.1
COMMENT $Xorg: $
COMMENT ISO10646-1 extension by Markus Kuhn <mkuhn@acm.org>, 2001-03-20
FONT -B&H-LucidaTypewriter-Bold-R-Normal-Sans-34-240-100-100-M-200-ISO10646-1
SIZE 24 100 100
FONTBOUNDINGBOX 32 50 -6 -13
STARTPROPERTIES 22
FONTNAME_REGISTRY ""
FOUNDRY "B&H"
FAMILY_NAME "LucidaTypewriter"
WEIGHT_NAME "Bold"
SLANT "R"
SETWIDTH_NAME "Normal"
ADD_STYLE_NAME "Sans"
PIXEL_SIZE 34
POINT_SIZE 240
RESOLUTION_X 100
RESOLUTION_Y 100
SPACING "M"
AVERAGE_WIDTH 200
CHARSET_REGISTRY "ISO10646"
CHARSET_ENCODING "1"
FONT_ASCENT 31
FONT_DESCENT 7
DEFAULT_CHAR 0
COPYRIGHT "Copyright Bigelow & Holmes 1986, 1985."
FACE_NAME "Lucida Sans Typewriter Bold"
X_HEIGHT 18
CAP_HEIGHT 25
ENDPROPERTIES
CHARS 873
STARTCHAR char0
ENCODING 0
SWIDTH 602 0
DWIDTH 20 0
BBX 17 25 2 0
BITMAP
AAAA80
000000
800080
000000
800080
000000
800080
000000
800080
000000
800080
000000
800080
000000
800080
000000
800080
000000
800080
000000
800080
000000
800080
000000
AAAA80
ENDCHAR
STARTCHAR space
ENCODING 32
SWIDTH 602 0
DWIDTH 20 0
BBX 1 1 0 0
BITMAP
00
ENDCHAR
STARTCHAR exclam
ENCODING 33
SWIDTH 602 0
DWIDTH 20 0
BBX 5 25 8 0
BITMAP
F8
F8
F8
F8
F8
F8
F8
F8
F8
F8
F8
70
70
70
70
70
70
00
00
00
00
F8
F8
F8
F8
ENDCHAR
STARTCHAR quotedbl
ENCODING 34
SWIDTH 602 0
DWIDTH 20 0
BBX 14 10 3 16
BITMAP
F87C
F87C
F87C
F87C
F87C
7038
7038
7038
7038
7038
ENDCHAR
STARTCHAR numbersign
ENCODING 35
SWIDTH 602 0
DWIDTH 20 0
BBX 18 25 1 0
BITMAP
01E780
01C700
01C700
01C700
03CE00
038E00
038E00
3FFFC0
3FFFC0
7FFFC0
071C00
071C00
0F3800
0E3800
0E3800
FFFF80
FFFF00
FFFF00
1C7000
1C7000
1CE000
38E000
38E000
38E000
79C000
ENDCHAR
STARTCHAR dollar
ENCODING 36
SWIDTH 602 0
DWIDTH 20 0
BBX 15 32 3 -4
BITMAP
0380
0380
0380
07F8
0FFC
3FFC
3E1C
7C04
7C00
7C00
7C00
7E00
3F80
3FC0
1FE0
0FF0
03F8
01FC
00FC
007E
003E
003E
003E
803E
F07C
FFFC
FFF8
3FE0
0380
0380
0380
0380
ENDCHAR
STARTCHAR percent
ENCODING 37
SWIDTH 602 0
DWIDTH 20 0
BBX 21 25 0 0
BITMAP
1E01E0
3F01C0
7F83C0
F3C380
F3C700
F3C700
F3CE00
F3DE00
F3DC00
F3FC00
7FB800
3F7800
1E7000
00F3C0
00EFF0
01EFF0
01DE78
03DE78
039E78
071E78
071E78
0E1E78
1E0FF0
1C0FF0
3C03C0
ENDCHAR
STARTCHAR ampersand
ENCODING 38
SWIDTH 602 0
DWIDTH 20 0
BBX 20 25 0 0
BITMAP
03E000
0FF800
0FF800
1F7C00
1F7C00
1F7C00
1F7C00
1F7C00
0FF800
0FF000
07E000
0FC1F0
3FE1F0
7FE1F0
7FF1F0
F9F9E0
F8F9E0
F8FFC0
F87FC0
FC7F80
FE3F00
7FFF80
3FFFC0
1FFFE0
07E7F0
ENDCHAR
STARTCHAR quotesingle
ENCODING 39
SWIDTH 602 0
DWIDTH 20 0
BBX 6 11 7 15
BITMAP
FC
FC
FC
F8
F8
F8
78
78
70
70
70
ENDCHAR
STARTCHAR parenleft
ENCODING 40
SWIDTH 602 0
DWIDTH 20 0
BBX 14 32 5 -6
BITMAP
001C
00FC
03FC
07F0
0FC0
1F80
1F00
3E00
7E00
7C00
7C00
F800
F800
F800
F800
F800
F800
F800
F800
F800
7C00
7C00
7C00
3E00
3E00
1F00
1F80
0FE0
07FC
01FC
007C
001C
ENDCHAR
STARTCHAR parenright
ENCODING 41
SWIDTH 602 0
DWIDTH 20 0
BBX 14 32 2 -6
BITMAP
E000
F800
FE00
FF00
1FC0
07C0
03E0
01F0
01F0
00F8
00F8
00F8
007C
007C
007C
007C
007C
007C
007C
007C
007C
00F8
00F8
01F0
01F0
03E0
07E0
0FC0
3F80
FE00
FC00
E000
ENDCHAR
STARTCHAR asterisk
ENCODING 42
SWIDTH 602 0
DWIDTH 20 0
BBX 16 15 2 10
BITMAP
03C0
03C0
03C0
4182
718E
7D9E
FC3F
FC3F
0000
07E0
0E70
1E78
3E7C
1C38
0420
ENDCHAR
STARTCHAR plus
ENCODING 43
SWIDTH 602 0
DWIDTH 20 0
BBX 18 18 1 0
BITMAP
01E000
01E000
01E000
01E000
01E000
01E000
01E000
FFFFC0
FFFFC0
FFFFC0
FFFFC0
01E000
01E000
01E000
01E000
01E000
01E000
01E000
ENDCHAR
STARTCHAR comma
ENCODING 44
SWIDTH 602 0
DWIDTH 20 0
BBX 6 12 7 -6
BITMAP
FC
FC
FC
FC
FC
FC
3C
3C
3C
78
F8
E0
ENDCHAR
STARTCHAR hyphen
ENCODING 45
SWIDTH 602 0
DWIDTH 20 0
BBX 18 4 1 6
BITMAP
FFFFC0
FFFFC0
FFFFC0
FFFFC0
ENDCHAR
STARTCHAR period
ENCODING 46
SWIDTH 602 0
DWIDTH 20 0
BBX 6 5 7 0
BITMAP
FC
FC
FC
FC
FC
ENDCHAR
STARTCHAR slash
ENCODING 47
SWIDTH 602 0
DWIDTH 20 0
BBX 20 32 0 -6
BITMAP
0001F0
0001E0
0003E0
0003C0
0007C0
000780
000F80
000F00
001F00
001E00
003E00
003C00
007C00
007800
00F800
00F000
01F000
01E000
03E000
03C000
07C000
078000
078000
0F0000
0F0000
1E0000
1E0000
3C0000
3C0000
780000
780000
F00000
ENDCHAR
STARTCHAR zero
ENCODING 48
SWIDTH 602 0
DWIDTH 20 0
BBX 18 25 1 0
BITMAP
03F000
0FFC00
1FFE00
3E1F00
3C0F00
7C0F80
780780
780780
F807C0
F807C0
F807C0
F807C0
F807C0
F807C0
F807C0
F807C0
F807C0
780780
780780
7C0F80
3C0F00
3E1F00
1FFE00
0FFC00
03F000
ENDCHAR
STARTCHAR one
ENCODING 49
SWIDTH 602 0
DWIDTH 20 0
BBX 15 25 4 0
BITMAP
FFC0
FFC0
FFC0
07C0
07C0
07C0
07C0
07C0
07C0
07C0
07C0
07C0
07C0
07C0
07C0
07C0
07C0
07C0
07C0
07C0
07C0
07C0
FFFE
FFFE
FFFE
ENDCHAR
STARTCHAR two
ENCODING 50
SWIDTH 602 0
DWIDTH 20 0
BBX 15 25 3 0
BITMAP
1FC0
7FF0
7FF8
7FFC
40FE
007E
003E
003E
003E
003C
007C
00F8
00F0
01E0
03C0
0780
0F00
1E00
3C00
7C00
F800
FFFE
FFFE
FFFE
FFFE
ENDCHAR
STARTCHAR three
ENCODING 51
SWIDTH 602 0
DWIDTH 20 0
BBX 14 25 3 0
BITMAP
3FC0
FFF0
FFF8
C0F8
007C
007C
007C
007C
00F8
03F8
3FE0
3F00
3FE0
03F0
00F8
00F8
007C
007C
007C
007C
00F8
81F8
FFF0
FFE0
7F00
ENDCHAR
STARTCHAR four
ENCODING 52
SWIDTH 602 0
DWIDTH 20 0
BBX 17 25 2 0
BITMAP
007C00
00FC00
00FC00
01FC00
03FC00
03FC00
07FC00
0F7C00
0E7C00
1E7C00
1C7C00
387C00
787C00
707C00
FFFF80
FFFF80
FFFF80
FFFF80
FFFF80
007C00
007C00
007C00
007C00
007C00
007C00
ENDCHAR
STARTCHAR five
ENCODING 53
SWIDTH 602 0
DWIDTH 20 0
BBX 13 25 4 0
BITMAP
FFF8
FFF8
FFF8
FFF8
F000
F000
F000
E000
E000
FC00
FF80
FFC0
0FE0
03F0
01F8
00F8
00F8
00F8
00F8
00F8
01F0
83F0
FFE0
FFC0
7F00
ENDCHAR
STARTCHAR six
ENCODING 54
SWIDTH 602 0
DWIDTH 20 0
BBX 17 25 2 0
BITMAP
00FE00
03FF00
0FFF00
1F8100
3E0000
3E0000
7C0000
7C0000
780000
F8F800
FBFE00
FFFE00
FFFF00
FE3F80
FC1F80
F80F80
F80F80
F80F80
780F80
780F80
3C1F00
3E3F00
1FFE00
0FFC00
03F000
ENDCHAR
STARTCHAR seven
ENCODING 55
SWIDTH 602 0
DWIDTH 20 0
BBX 15 25 3 0
BITMAP
FFFE
FFFE
FFFE
FFFE
001E
003C
0078
0078
00F0
01E0
01E0
03C0
03C0
0780
0780
0F00
1F00
1E00
1E00
3E00
3E00
3C00
7C00
7C00
7C00
ENDCHAR
STARTCHAR eight
ENCODING 56
SWIDTH 602 0
DWIDTH 20 0
BBX 17 25 2 0
BITMAP
03F000
0FFC00
3FFE00
3E3F00
7C1F00
7C1F00
7C1F00
7E1F00
3FBE00
3FFC00
1FF800
07F800
0FFC00
3FFE00
7EFF00
7C7F00
F81F80
F81F80
F80F80
F80F80
FC0F80
7E1F00
7FFE00
1FFC00
07F000
ENDCHAR
STARTCHAR nine
ENCODING 57
SWIDTH 602 0
DWIDTH 20 0
BBX 17 25 2 0
BITMAP
07E000
1FF800
3FFC00
7E3E00
7C1E00
F80F00
F80F00
F80F80
F80F80
F80F80
FC1F80
FE3F80
7FFF80
3FFF80
3FEF80
0F8F80
000F00
001F00
001F00
003E00
003E00
40FC00
7FF800
7FE000
3F8000
ENDCHAR
STARTCHAR colon
ENCODING 58
SWIDTH 602 0
DWIDTH 20 0
BBX 5 18 8 0
BITMAP
F8
F8
F8
F8
F8
00
00
00
00
00
00
00
00
F8
F8
F8
F8
F8
ENDCHAR
STARTCHAR semicolon
ENCODING 59
SWIDTH 602 0
DWIDTH 20 0
BBX 5 24 8 -6
BITMAP
F8
F8
F8
F8
F8
00
00
00
00
00
00
00
F8
F8
F8
F8
F8
F8
78
78
78
70
F0
E0
ENDCHAR
STARTCHAR less
ENCODING 60
SWIDTH 602 0
DWIDTH 20 0
BBX 18 18 1 0
BITMAP
000040
0001C0
0007C0
001FC0
007FC0
01FF00
07FC00
1FF000
FFC000
7FC000
1FF000
07FC00
01FF00
007FC0
001FC0
0007C0
0001C0
000040
ENDCHAR
STARTCHAR equal
ENCODING 61
SWIDTH 602 0
DWIDTH 20 0
BBX 18 12 1 3
BITMAP
FFFFC0
FFFFC0
FFFFC0
FFFFC0
000000
000000
000000
000000
FFFFC0
FFFFC0
FFFFC0
FFFFC0
ENDCHAR
STARTCHAR greater
ENCODING 62
SWIDTH 602 0
DWIDTH 20 0
BBX 18 18 1 0
BITMAP
800000
E00000
F80000
FE0000
FF8000
3FE000
0FF800
03FE00
00FF80
00FFC0
03FE00
0FF800
3FE000
FF8000
FE0000
F80000
E00000
800000
ENDCHAR
STARTCHAR question
ENCODING 63
SWIDTH 602 0
DWIDTH 20 0
BBX 17 25 2 0
BITMAP
1FF000
FFFE00
FFFF00
F03F80
E00F80
E00F80
E00F80
001F80
001F00
003E00
00FC00
01F000
03E000
078000
0F0000
1F0000
1F0000
1F0000
000000
000000
000000
1F0000
1F0000
1F0000
1F0000
ENDCHAR
STARTCHAR at
ENCODING 64
SWIDTH 602 0
DWIDTH 20 0
BBX 20 25 0 0
BITMAP
00FC00
03FF00
0FFF80
1F0780
3C03C0
383DC0
787FC0
70FFC0
71E1C0
F1C1C0
E3C1C0
E381C0
E383C0
E383C0
E387C0
E38FC0
E3CDF0
71FDF0
71F9F0
78F000
3C0200
3E0E00
1FFE00
0FFE00
03F800
ENDCHAR
STARTCHAR A
ENCODING 65
SWIDTH 602 0
DWIDTH 20 0
BBX 20 25 0 0
BITMAP
00F800
00F800
01FC00
01FC00
01FC00
03FE00
03BE00
03BE00
07BE00
073F00
071F00
071F00
0E1F80
0E0F80
0E0F80
1C0F80
1FFFC0
1FFFC0
3FFFC0
3807C0
3803E0
7003E0
7003E0
7003F0
E001F0
ENDCHAR
STARTCHAR B
ENCODING 66
SWIDTH 602 0
DWIDTH 20 0
BBX 17 25 2 0
BITMAP
FFF800
FFFE00
FFFE00
F83F00
F81F00
F81F00
F81F00
F81F00
F83E00
F87E00
FFF800
FFF000
FFF800
F87E00
F81F00
F81F00
F80F80
F80F80
F80F80
F80F80
F81F80
F83F00
FFFF00
FFFE00
FFF800
ENDCHAR
STARTCHAR C
ENCODING 67
SWIDTH 602 0
DWIDTH 20 0
BBX 19 25 1 0
BITMAP
00FFC0
03FFE0
0FFFE0
1FC060
3F0000
3E0000
7C0000
7C0000
F80000
F80000
F80000
F80000
F80000
F80000
F80000
F80000
FC0000
7C0000
7E0000
3F0020
3FC0E0
1FFFE0
0FFFE0
03FFE0
00FF00
ENDCHAR
STARTCHAR D
ENCODING 68
SWIDTH 602 0
DWIDTH 20 0
BBX 18 25 2 0
BITMAP
FFF000
FFFC00
FFFE00
F87F00
F81F80
F80F80
F80F80
F80FC0
F807C0
F807C0
F807C0
F807C0
F807C0
F807C0
F807C0
F807C0
F807C0
F80F80
F80F80
F80F80
F81F00
F87E00
FFFE00
FFF800
FFE000
ENDCHAR
STARTCHAR E
ENCODING 69
SWIDTH 602 0
DWIDTH 20 0
BBX 16 25 3 0
BITMAP
FFFE
FFFE
FFFE
F800
F800
F800
F800
F800
F800
F800
FFFC
FFFC
FFFC
F800
F800
F800
F800
F800
F800
F800
F800
F800
FFFF
FFFF
FFFF
ENDCHAR
STARTCHAR F
ENCODING 70
SWIDTH 602 0
DWIDTH 20 0
BBX 17 25 3 0
BITMAP
FFFF80
FFFF80
FFFF80
F80000
F80000
F80000
F80000
F80000
F80000
F80000
F80000
FFFE00
FFFE00
FFFE00
F80000
F80000
F80000
F80000
F80000
F80000
F80000
F80000
F80000
F80000
F80000
ENDCHAR
STARTCHAR G
ENCODING 71
SWIDTH 602 0
DWIDTH 20 0
BBX 19 25 1 0
BITMAP
00FF80
07FFE0
0FFFE0
1FC0E0
3F0020
3E0000
7C0000
7C0000
F80000
F80000
F80000
F80000
F803E0
F803E0
F803E0
F803E0
FC03E0
7C03E0
7E03E0
3F03E0
3FC3E0
1FFFE0
0FFFE0
07FFE0
00FF00
ENDCHAR
STARTCHAR H
ENCODING 72
SWIDTH 602 0
DWIDTH 20 0
BBX 17 25 2 0
BITMAP
F80F80
F80F80
F80F80
F80F80
F80F80
F80F80
F80F80
F80F80
F80F80
F80F80
FFFF80
FFFF80
FFFF80
F80F80
F80F80
F80F80
F80F80
F80F80
F80F80
F80F80
F80F80
F80F80
F80F80
F80F80
F80F80
ENDCHAR
STARTCHAR I
ENCODING 73
SWIDTH 602 0
DWIDTH 20 0
BBX 17 25 2 0
BITMAP
FFFF80
FFFF80
FFFF80
03E000
03E000
03E000
03E000
03E000
03E000
03E000
03E000
03E000
03E000
03E000
03E000
03E000
03E000
03E000
03E000
03E000
03E000
03E000
FFFF80
FFFF80
FFFF80
ENDCHAR
STARTCHAR J
ENCODING 74
SWIDTH 602 0
DWIDTH 20 0
BBX 15 25 2 0
BITMAP
3FFE
3FFE
3FFE
003E
003E
003E
003E
003E
003E
003E
003E
003E
003E
003E
003E
003E
003E
003E
003E
003E
007C
C0FC
FFF8
FFF0
FFC0
ENDCHAR
STARTCHAR K
ENCODING 75
SWIDTH 602 0
DWIDTH 20 0
BBX 18 25 2 0
BITMAP
F807C0
F80700
F80F00
F81E00
F83C00
F83800
F87800
F8F000
F9E000
F9C000
FFC000
FFC000
FFC000
FFE000
FFF000
FBF000
F9F800
F8F800
F8FC00
F87E00
F87E00
F83F00
F81F80
F81F80
F80FC0
ENDCHAR
STARTCHAR L
ENCODING 76
SWIDTH 602 0
DWIDTH 20 0
BBX 16 25 4 0
BITMAP
F800
F800
F800
F800
F800
F800
F800
F800
F800
F800
F800
F800
F800
F800
F800
F800
F800
F800
F800
F800
F800
F800
FFFF
FFFF
FFFF
ENDCHAR
STARTCHAR M
ENCODING 77
SWIDTH 602 0
DWIDTH 20 0
BBX 19 25 1 0
BITMAP
FE07E0
FE07E0
FE0FE0
FE0FE0
FE0FE0
FF0FE0
FF1FE0
FF1FE0
FF1FE0
FF1FE0
F79FE0
F7BBE0
F7BBE0
F7BBE0
F7BBE0
F7FBE0
F3F3E0
F3F3E0
F3F3E0
F3F3E0
F3F3E0
F1E3E0
F1E3E0
F003E0
F003E0
ENDCHAR
STARTCHAR N
ENCODING 78
SWIDTH 602 0
DWIDTH 20 0
BBX 17 25 2 0
BITMAP
F80780
FC0780
FC0780
FE0780
FE0780
FF0780
FF0780
FF8780
FF8780
FFC780
F7C780
F7E780
F3E780
F3F780
F1F780
F1FF80
F0FF80
F0FF80
F07F80
F07F80
F03F80
F03F80
F01F80
F01F80
F00F80
ENDCHAR
STARTCHAR O
ENCODING 79
SWIDTH 602 0
DWIDTH 20 0
BBX 20 25 0 0
BITMAP
01F800
0FFF00
1FFF80
3F0FC0
3E07C0
7C03E0
7C03E0
7801E0
F801F0
F801F0
F801F0
F801F0
F801F0
F801F0
F801F0
F801F0
F801F0
7801E0
7C03E0
7C03E0
3E07C0
3F0FC0
1FFF80
07FE00
01F800
ENDCHAR
STARTCHAR P
ENCODING 80
SWIDTH 602 0
DWIDTH 20 0
BBX 17 25 2 0
BITMAP
FFF800
FFFE00
FFFF00
F83F00
F80F80
F80F80
F80F80
F80F80
F80F80
F80F80
F81F00
F83F00
FFFE00
FFFC00
FFE000
F80000
F80000
F80000
F80000
F80000
F80000
F80000
F80000
F80000
F80000
ENDCHAR
STARTCHAR Q
ENCODING 81
SWIDTH 602 0
DWIDTH 20 0
BBX 22 31 0 -6
BITMAP
01F800
0FFE00
1FFF80
3F0FC0
3E07C0
7C03E0
7C03E0
7801E0
F801F0
F801F0
F801F0
F801F0
F801F0
F801F0
F801F0
F801F0
F801F0
7801F0
7C03E0
7C03E0
3E07C0
1F0FC0
1FFF80
07FF00
01FF00
001FF0
000FFC
0007F8
0001F0
0000F0
000060
ENDCHAR
STARTCHAR R
ENCODING 82
SWIDTH 602 0
DWIDTH 20 0
BBX 18 25 2 0
BITMAP
FFF000
FFFC00
FFFE00
F83F00
F81F00
F81F00
F81F00
F81F00
F83F00
F83E00
F8FE00
FFFC00
FFF800
FFF000
F9F000
F9F800
F8F800
F8FC00
F87E00
F87E00
F83F00
F83F00
F81F80
F81F80
F80FC0
ENDCHAR
STARTCHAR S
ENCODING 83
SWIDTH 602 0
DWIDTH 20 0
BBX 18 25 1 0
BITMAP
07FE00
1FFF00
7FFF00
7E0300
F80000
F80000
F80000
FC0000
FF0000
7FC000
3FF000
1FFC00
07FE00
01FF00
007F80
001FC0
000FC0
0007C0
0007C0
800FC0
F01FC0
FFFF80
FFFF00
FFFE00
3FF000
ENDCHAR
STARTCHAR T
ENCODING 84
SWIDTH 602 0
DWIDTH 20 0
BBX 19 25 1 0
BITMAP
FFFFE0
FFFFE0
FFFFE0
01F000
01F000
01F000
01F000
01F000
01F000
01F000
01F000
01F000
01F000
01F000
01F000
01F000
01F000
01F000
01F000
01F000
01F000
01F000
01F000
01F000
01F000
ENDCHAR
STARTCHAR U
ENCODING 85
SWIDTH 602 0
DWIDTH 20 0
BBX 17 25 2 0
BITMAP
F80F80
F80F80
F80F80
F80F80
F80F80
F80F80
F80F80
F80F80
F80F80
F80F80
F80F80
F80F80
F80F80
F80F80
F80F80
F80F80
F80F80
F80F80
F80F80
F80F80
7C1F00
7E3F00
3FFE00
1FFC00
07F800
ENDCHAR
STARTCHAR V
ENCODING 86
SWIDTH 602 0
DWIDTH 20 0
BBX 20 25 0 0
BITMAP
F800F0
FC00F0
7C01F0
7C01E0
7C01E0
3E03E0
3E03C0
3E03C0
3F07C0
1F0780
1F0780
1F0780
0F8F00
0F8F00
0F8F00
0FDE00
07DE00
07DE00
07FE00
03FC00
03FC00
03FC00
03F800
01F800
01F800
ENDCHAR
STARTCHAR W
ENCODING 87
SWIDTH 602 0
DWIDTH 20 0
BBX 20 25 0 0
BITMAP
F80070
F80070
F87870
F8F870
7CF8E0
7CF8E0
7CFCE0
7CFCE0
7DFCE0
7DFCE0
7DFCE0
7DFCE0
3DFFE0
3FBFC0
3FBFC0
3F9FC0
3F9FC0
3F9FC0
3F1FC0
3F1FC0
1F1FC0
1F1F80
1F0F80
1E0F80
1E0F80
ENDCHAR
STARTCHAR X
ENCODING 88
SWIDTH 602 0
DWIDTH 20 0
BBX 19 25 1 0
BITMAP
FC01C0
7E0380
7E0780
3F0700
1F0F00
1F8E00
0F9E00
0FDC00
07FC00
07F800
03F800
03F000
01F000
01F800
03F800
03FC00
077E00
0F7E00
0E3F00
1E3F00
1C1F80
3C0F80
380FC0
7007C0
F007E0
ENDCHAR
STARTCHAR Y
ENCODING 89
SWIDTH 602 0
DWIDTH 20 0
BBX 21 25 0 0
BITMAP
FC0078
7E00F0
7E00E0
3F01E0
3F01C0
1F83C0
0F8380
0FC780
07C700
07EE00
03EE00
03FC00
01FC00
01F800
00F800
00F800
00F800
00F800
00F800
00F800
00F800
00F800
00F800
00F800
00F800
ENDCHAR
STARTCHAR Z
ENCODING 90
SWIDTH 602 0
DWIDTH 20 0
BBX 17 25 1 0
BITMAP
7FFF80
7FFF80
7FFF80
001F80
003F00
003F00
007E00
007C00
00FC00
01F800
01F800
03F000
03E000
07E000
0FC000
0FC000
1F8000
1F0000
3F0000
7E0000
7E0000
FC0000
FFFF80
FFFF80
FFFF80
ENDCHAR
STARTCHAR bracketleft
ENCODING 91
SWIDTH 602 0
DWIDTH 20 0
BBX 13 32 6 -6
BITMAP
FFF8
FFF8
FFF8
F800
F800
F800
F800
F800
F800
F800
F800
F800
F800
F800
F800
F800
F800
F800
F800
F800
F800
F800
F800
F800
F800
F800
F800
F800
F800
FFF8
FFF8
FFF8
ENDCHAR
STARTCHAR backslash
ENCODING 92
SWIDTH 602 0
DWIDTH 20 0
BBX 20 32 0 -6
BITMAP
F80000
780000
7C0000
3C0000
3E0000
1E0000
1F0000
0F0000
0F8000
078000
07C000
03C000
03C000
01E000
01E000
00F000
00F000
00F800
007800
007C00
003C00
003E00
001E00
001F00
000F00
000F80
000780
0007C0
0003C0
0003E0
0001E0
0001F0
ENDCHAR
STARTCHAR bracketright
ENCODING 93
SWIDTH 602 0
DWIDTH 20 0
BBX 13 32 1 -6
BITMAP
FFF8
FFF8
FFF8
00F8
00F8
00F8
00F8
00F8
00F8
00F8
00F8
00F8
00F8
00F8
00F8
00F8
00F8
00F8
00F8
00F8
00F8
00F8
00F8
00F8
00F8
00F8
00F8
00F8
00F8
FFF8
FFF8
FFF8
ENDCHAR
STARTCHAR asciicircum
ENCODING 94
SWIDTH 602 0
DWIDTH 20 0
BBX 18 21 1 4
BITMAP
004000
00C000
00C000
01E000
01E000
01E000
03F000
03F000
07F800
07F800
0FFC00
0F3C00
0F3C00
1E1E00
1E1E00
3E1F00
3C0F00
7C0F80
780780
780780
F807C0
ENDCHAR
STARTCHAR underscore
ENCODING 95
SWIDTH 602 0
DWIDTH 20 0
BBX 20 4 0 -5
BITMAP
FFFFF0
FFFFF0
FFFFF0
FFFFF0
ENDCHAR
STARTCHAR grave
ENCODING 96
SWIDTH 602 0
DWIDTH 20 0
BBX 8 5 6 21
BITMAP
F8
7C
3C
1E
0F
ENDCHAR
STARTCHAR a
ENCODING 97
SWIDTH 602 0
DWIDTH 20 0
BBX 18 18 1 0
BITMAP
0FF000
3FFC00
3FFE00
307F00
201F00
001F00
001F00
0FFF00
3FFF00
7FFF00
FC1F00
F81F00
F81F00
FC7F00
FFFFC0
7FFFC0
3FCFC0
1F87C0
ENDCHAR
STARTCHAR b
ENCODING 98
SWIDTH 602 0
DWIDTH 20 0
BBX 17 26 2 0
BITMAP
F80000
F80000
F80000
F80000
F80000
F80000
F80000
F80000
F8F800
F9FC00
FBFE00
FFFF00
FFFF00
FE1F80
FC1F80
F80F80
F80F80
F80F80
F80F80
F80F80
F81F00
FC3F00
FFFF00
FFFE00
FFFC00
F1F000
ENDCHAR
STARTCHAR c
ENCODING 99
SWIDTH 602 0
DWIDTH 20 0
BBX 17 18 2 0
BITMAP
03FF80
0FFF80
1FFF80
3F0180
7C0000
7C0000
F80000
F80000
F80000
F80000
F80000
FC0000
7E0000
7F8180
3FFF80
1FFF80
0FFF80
03FE00
ENDCHAR
STARTCHAR d
ENCODING 100
SWIDTH 602 0
DWIDTH 20 0
BBX 17 26 2 0
BITMAP
000F80
000F80
000F80
000F80
000F80
000F80
000F80
000F80
07CF80
1FEF80
3FFF80
7FFF80
7E1F80
7C0F80
F80F80
F80F80
F80F80
F80F80
F80F80
FC1F80
FC3F80
7FFF80
7FFF80
3FEF80
1FCF80
0F8F80
ENDCHAR
STARTCHAR e
ENCODING 101
SWIDTH 602 0
DWIDTH 20 0
BBX 18 18 1 0
BITMAP
03F800
0FFE00
1FFF00
3E0F80
7C0780
7C07C0
F807C0
FFFFC0
FFFFC0
FFFFC0
F80000
F80000
7C0000
7F00C0
3FFFC0
1FFFC0
0FFFC0
03FE00
ENDCHAR
STARTCHAR f
ENCODING 102
SWIDTH 602 0
DWIDTH 20 0
BBX 17 26 3 0
BITMAP
01FF00
07FF80
0FFF80
1F8180
1F0000
1F0000
1F0000
1F0000
FFFE00
FFFE00
FFFE00
1F0000
1F0000
1F0000
1F0000
1F0000
1F0000
1F0000
1F0000
1F0000
1F0000
1F0000
1F0000
1F0000
1F0000
1F0000
ENDCHAR
STARTCHAR g
ENCODING 103
SWIDTH 602 0
DWIDTH 20 0
BBX 17 25 2 -7
BITMAP
07C780
1FE780
3FFF80
7FFF80
7E3F80
FC0F80
F80F80
F80F80
F80F80
F80F80
F80F80
FC1F80
FC3F80
7FFF80
7FEF80
3FEF80
1FCF80
0F8F80
000F80
001F00
303F00
3FFF00
3FFE00
3FFC00
07F000
ENDCHAR
STARTCHAR h
ENCODING 104
SWIDTH 602 0
DWIDTH 20 0
BBX 16 26 2 0
BITMAP
F800
F800
F800
F800
F800
F800
F800
F800
F8F8
F9FC
FBFE
FFFF
FFFF
FE1F
FC1F
F81F
F81F
F81F
F81F
F81F
F81F
F81F
F81F
F81F
F81F
F81F
ENDCHAR
STARTCHAR i
ENCODING 105
SWIDTH 602 0
DWIDTH 20 0
BBX 12 26 3 0
BITMAP
01F0
01F0
01F0
01F0
01F0
0000
0000
0000
FFF0
FFF0
FFF0
01F0
01F0
01F0
01F0
01F0
01F0
01F0
01F0
01F0
01F0
01F0
01F0
01F0
01F0
01F0
ENDCHAR
STARTCHAR j
ENCODING 106
SWIDTH 602 0
DWIDTH 20 0
BBX 13 33 2 -7
BITMAP
00F8
00F8
00F8
00F8
00F8
0000
0000
0000
3FF8
3FF8
3FF8
00F8
00F8
00F8
00F8
00F8
00F8
00F8
00F8
00F8
00F8
00F8
00F8
00F8
00F8
00F8
00F8
00F8
00F8
C1F0
FFF0
FFE0
7F80
ENDCHAR
STARTCHAR k
ENCODING 107
SWIDTH 602 0
DWIDTH 20 0
BBX 17 26 3 0
BITMAP
F80000
F80000
F80000
F80000
F80000
F80000
F80000
F80000
F81E00
F83C00
F83800
F87800
F8F000
F8E000
F9E000
FBC000
FFE000
FBF000
FBF000
F9F800
F8FC00
F8FC00
F87E00
F83F00
F83F00
F81F80
ENDCHAR
STARTCHAR l
ENCODING 108
SWIDTH 602 0
DWIDTH 20 0
BBX 12 26 1 0
BITMAP
FFF0
FFF0
FFF0
01F0
01F0
01F0
01F0
01F0
01F0
01F0
01F0
01F0
01F0
01F0
01F0
01F0
01F0
01F0
01F0
01F0
01F0
01F0
01F0
01F0
01F0
01F0
ENDCHAR
STARTCHAR m
ENCODING 109
SWIDTH 602 0
DWIDTH 20 0
BBX 19 18 1 0
BITMAP
F9E3C0
FBE7C0
FBF7E0
FFFFE0
FFFFE0
FDF3E0
F9F3E0
F9F3E0
F9F3E0
F9F3E0
F9F3E0
F9F3E0
F9F3E0
F9F3E0
F9F3E0
F9F3E0
F9F3E0
F9F3E0
ENDCHAR
STARTCHAR n
ENCODING 110
SWIDTH 602 0
DWIDTH 20 0
BBX 16 18 2 0
BITMAP
F8F8
F9FC
FBFE
FFFF
FFFF
FE1F
FC1F
F81F
F81F
F81F
F81F
F81F
F81F
F81F
F81F
F81F
F81F
F81F
ENDCHAR
STARTCHAR o
ENCODING 111
SWIDTH 602 0
DWIDTH 20 0
BBX 19 18 1 0
BITMAP
03F800
0FFE00
1FFF00
3E0F80
7C07C0
7C07C0
F803E0
F803E0
F803E0
F803E0
F803E0
F803E0
7C07C0
7C07C0
3E0F80
1FFF00
0FFE00
03F800
ENDCHAR
STARTCHAR p
ENCODING 112
SWIDTH 602 0
DWIDTH 20 0
BBX 17 25 2 -7
BITMAP
F8F800
F9FC00
FBFE00
FFFF00
FFFF00
FE1F80
FC1F80
F80F80
F80F80
F80F80
F80F80
F80F80
F81F00
FC3F00
FFFF00
FFFE00
FBFC00
F9F000
F80000
F80000
F80000
F80000
F80000
F80000
F80000
ENDCHAR
STARTCHAR q
ENCODING 113
SWIDTH 602 0
DWIDTH 20 0
BBX 17 25 2 -7
BITMAP
07C780
1FF780
3FFF80
7FFF80
7E1F80
7C0F80
F80F80
F80F80
F80F80
F80F80
F80F80
FC1F80
FC3F80
7FFF80
7FFF80
3FEF80
1FCF80
0F8F80
000F80
000F80
000F80
000F80
000F80
000F80
000F80
ENDCHAR
STARTCHAR r
ENCODING 114
SWIDTH 602 0
DWIDTH 20 0
BBX 15 18 4 0
BITMAP
F87E
F9FE
FBFE
FFFE
FFFE
FF0E
FE0E
FC00
F800
F800
F800
F800
F800
F800
F800
F800
F800
F800
ENDCHAR
STARTCHAR s
ENCODING 115
SWIDTH 602 0
DWIDTH 20 0
BBX 16 18 2 0
BITMAP
07FC
3FFE
7FFE
7C06
F800
FE00
FF80
7FF0
3FFC
1FFE
03FF
00FF
001F
001F
C03F
FFFE
FFFC
3FE0
ENDCHAR
STARTCHAR t
ENCODING 116
SWIDTH 602 0
DWIDTH 20 0
BBX 16 23 2 0
BITMAP
0380
0F80
0F80
0F80
0F80
FFFF
FFFF
FFFF
0F80
0F80
0F80
0F80
0F80
0F80
0F80
0F80
0F80
0F80
0FC1
07FF
07FF
03FF
00FC
ENDCHAR
STARTCHAR u
ENCODING 117
SWIDTH 602 0
DWIDTH 20 0
BBX 16 18 2 0
BITMAP
F81F
F81F
F81F
F81F
F81F
F81F
F81F
F81F
F81F
F81F
F81F
F83F
F87F
FFFF
FFFF
7FDF
7F9F
1F1F
ENDCHAR
STARTCHAR v
ENCODING 118
SWIDTH 602 0
DWIDTH 20 0
BBX 19 18 1 0
BITMAP
F801E0
FC01C0
7C01C0
7E0380
3E0380
3E0780
3F0700
1F0700
1F8E00
0F8E00
0F9E00
0FDC00
07DC00
07F800
03F800
03F800
03F000
01F000
ENDCHAR
STARTCHAR w
ENCODING 119
SWIDTH 602 0
DWIDTH 20 0
BBX 20 18 0 0
BITMAP
F80070
F80070
F8F870
7CF8E0
7CF8E0
7CFCE0
7DFCE0
7DFCE0
7DFCE0
3FDFC0
3F9FC0
3F9FC0
3F9FC0
3F0FC0
3F0FC0
1F0F80
1F0780
1E0780
ENDCHAR
STARTCHAR x
ENCODING 120
SWIDTH 602 0
DWIDTH 20 0
BBX 19 18 1 0
BITMAP
FE03C0
7E0780
3F0F00
1F8E00
1FDE00
0FFC00
07F800
03F000
03F000
03F800
03FC00
07FC00
0F7E00
1E3F00
1C3F80
3C1F80
780FC0
F007E0
ENDCHAR
STARTCHAR y
ENCODING 121
SWIDTH 602 0
DWIDTH 20 0
BBX 19 25 1 -7
BITMAP
FC01E0
7C01C0
7C03C0
7E0380
3E0380
3F0700
1F0700
1F8F00
0F8E00
0FDE00
07DC00
07DC00
07F800
03F800
03F800
01F000
01F000
01E000
01E000
03C000
03C000
078000
7F8000
7F0000
7C0000
ENDCHAR
STARTCHAR z
ENCODING 122
SWIDTH 602 0
DWIDTH 20 0
BBX 17 18 2 0
BITMAP
FFFF80
FFFF80
FFFF80
003F80
007F00
00FE00
01FC00
03F800
07F000
0FE000
1FC000
3F8000
7F0000
7E0000
FFFF80
FFFF80
FFFF80
FFFF80
ENDCHAR
STARTCHAR braceleft
ENCODING 123
SWIDTH 602 0
DWIDTH 20 0
BBX 15 32 3 -6
BITMAP
00FE
03FE
07FE
07C0
07C0
07C0
07C0
07C0
03E0
03E0
03E0
03E0
03E0
03C0
0780
FF00
FF00
FF80
07C0
03E0
03E0
03E0
03E0
03E0
07E0
07C0
07C0
07C0
07C0
07FE
03FE
00FE
ENDCHAR
STARTCHAR bar
ENCODING 124
SWIDTH 602 0
DWIDTH 20 0
BBX 4 32 8 -6
BITMAP
F0
F0
F0
F0
F0
F0
F0
F0
F0
F0
F0
F0
F0
F0
F0
F0
F0
F0
F0
F0
F0
F0
F0
F0
F0
F0
F0
F0
F0
F0
F0
F0
ENDCHAR
STARTCHAR braceright
ENCODING 125
SWIDTH 602 0
DWIDTH 20 0
BBX 15 32 2 -6
BITMAP
FE00
FF80
FFC0
07C0
07C0
07C0
07C0
07C0
0F80
0F80
0F80
0F80
0F80
0780
03C0
01FE
01FE
03FE
07C0
0F80
0F80
0F80
0F80
0F80
07C0
07C0
07C0
07C0
07C0
FFC0
FF80
FE00
ENDCHAR
STARTCHAR asciitilde
ENCODING 126
SWIDTH 602 0
DWIDTH 20 0
BBX 18 8 1 5
BITMAP
1E01C0
3F01C0
7FC1C0
73E1C0
E1F380
E0FF80
E03F00
E01E00
ENDCHAR
STARTCHAR space
ENCODING 160
SWIDTH 602 0
DWIDTH 20 0
BBX 1 1 0 0
BITMAP
00
ENDCHAR
STARTCHAR exclamdown
ENCODING 161
SWIDTH 602 0
DWIDTH 20 0
BBX 5 25 8 -7
BITMAP
F8
F8
F8
F8
F8
00
00
00
70
70
70
70
70
70
F8
F8
F8
F8
F8
F8
F8
F8
F8
F8
F8
ENDCHAR
STARTCHAR cent
ENCODING 162
SWIDTH 602 0
DWIDTH 20 0
BBX 15 25 3 0
BITMAP
00E0
00E0
00E0
03FE
0FFE
1FFE
3E06
7C00
7C00
F800
F800
F800
F800
F800
FC00
7C00
7F00
3FFE
1FFE
0FFE
03E0
00E0
00E0
00E0
00E0
ENDCHAR
STARTCHAR sterling
ENCODING 163
SWIDTH 602 0
DWIDTH 20 0
BBX 14 25 4 0
BITMAP
03FC
07FC
0FFC
0F84
1F00
1F00
1F00
1F00
1F00
1F00
FFE0
FFE0
FFE0
1F00
1F00
1F00
1F00
1F00
1E00
1E00
3800
FFFC
FFFC
FFFC
FFFC
ENDCHAR
STARTCHAR currency
ENCODING 164
SWIDTH 602 0
DWIDTH 20 0
BBX 17 19 2 3
BITMAP
200200
73E700
FFFF80
7FFF00
3FFE00
3E3E00
7C1F00
780F00
780F00
780F00
780F00
780F00
7C1E00
3E3E00
3FFF00
7FFF00
FFFF80
73E700
200200
ENDCHAR
STARTCHAR yen
ENCODING 165
SWIDTH 602 0
DWIDTH 20 0
BBX 21 25 0 0
BITMAP
FC0078
7E00F0
3F00E0
3F01C0
1F83C0
0FC780
0FC700
07EF00
03FE00
03FC00
01FC00
00F800
0FFF80
0FFF80
0FFF80
00F800
0FFF80
0FFF80
0FFF80
00F800
00F800
00F800
00F800
00F800
00F800
ENDCHAR
STARTCHAR brokenbar
ENCODING 166
SWIDTH 602 0
DWIDTH 20 0
BBX 4 32 8 -6
BITMAP
F0
F0
F0
F0
F0
F0
F0
F0
F0
F0
F0
F0
F0
00
00
00
00
00
00
F0
F0
F0
F0
F0
F0
F0
F0
F0
F0
F0
F0
F0
ENDCHAR
STARTCHAR section
ENCODING 167
SWIDTH 602 0
DWIDTH 20 0
BBX 14 31 3 -6
BITMAP
0FF0
3FF8
7FF8
FC18
F800
F800
F800
FE00
7F80
3FC0
1FF0
3FF8
79F8
707C
F03C
F03C
F83C
FC38
FF78
7FF0
3FE0
1FF8
07F8
01FC
00FC
007C
007C
C0F8
FFF8
FFF0
FF80
ENDCHAR
STARTCHAR dieresis
ENCODING 168
SWIDTH 602 0
DWIDTH 20 0
BBX 10 4 5 21
BITMAP
F3C0
F3C0
F3C0
F3C0
ENDCHAR
STARTCHAR copyright
ENCODING 169
SWIDTH 602 0
DWIDTH 20 0
BBX 19 25 1 0
BITMAP
01F000
0FFE00
1FFF00
3E0F80
380380
7001C0
71F9C0
F3FDE0
E784E0
E700E0
EF00E0
EF00E0
EF00E0
EF00E0
EF00E0
E700E0
E784E0
F3FDE0
71F9C0
7001C0
380380
3E0F80
1FFF00
07FE00
01F000
ENDCHAR
STARTCHAR ordfeminine
ENCODING 170
SWIDTH 602 0
DWIDTH 20 0
BBX 15 14 3 11
BITMAP
3FC0
7FF0
7FF8
40F8
0078
0078
1FF8
7FF8
F878
F078
F0F8
FFFE
7FBE
3E1E
ENDCHAR
STARTCHAR guillemotleft
ENCODING 171
SWIDTH 602 0
DWIDTH 20 0
BBX 18 16 1 1
BITMAP
010100
038380
07C7C0
0F8F80
1F0F00
3F1F00
7E3E00
7CFE00
FC7C00
7E7E00
3E3F00
1F1F00
0F8F80
0787C0
03C380
010100
ENDCHAR
STARTCHAR logicalnot
ENCODING 172
SWIDTH 602 0
DWIDTH 20 0
BBX 18 8 1 3
BITMAP
FFFFC0
FFFFC0
FFFFC0
FFFFC0
0003C0
0003C0
0003C0
0003C0
ENDCHAR
STARTCHAR hyphen
ENCODING 173
SWIDTH 602 0
DWIDTH 20 0
BBX 14 3 3 10
BITMAP
FFFC
FFFC
FFFC
ENDCHAR
STARTCHAR registered
ENCODING 174
SWIDTH 602 0
DWIDTH 20 0
BBX 17 18 2 7
BITMAP
03E000
0FF800
1FFC00
3C1E00
780F00
77F700
E7FF80
E73B80
E7FB80
E7F380
E76380
E76780
776700
7F7F00
3C1E00
1FFC00
0FF800
03E000
ENDCHAR
STARTCHAR macron
ENCODING 175
SWIDTH 602 0
DWIDTH 20 0
BBX 10 3 5 22
BITMAP
FFC0
FFC0
FFC0
ENDCHAR
STARTCHAR degree
ENCODING 176
SWIDTH 602 0
DWIDTH 20 0
BBX 6 6 7 19
BITMAP
78
FC
CC
CC
FC
78
ENDCHAR
STARTCHAR plusminus
ENCODING 177
SWIDTH 602 0
DWIDTH 20 0
BBX 18 18 1 0
BITMAP
01E000
01E000
01E000
01E000
FFFFC0
FFFFC0
FFFFC0
FFFFC0
01E000
01E000
01E000
01E000
000000
000000
FFFFC0
FFFFC0
FFFFC0
FFFFC0
ENDCHAR
STARTCHAR twosuperior
ENCODING 178
SWIDTH 602 0
DWIDTH 20 0
BBX 7 12 -4 13
BITMAP
78
FE
8E
06
06
0E
1C
38
70
E0
FE
FE
ENDCHAR
STARTCHAR threesuperior
ENCODING 179
SWIDTH 602 0
DWIDTH 20 0
BBX 6 12 -5 13
BITMAP
78
FC
8C
0C
1C
70
78
1C
0C
8C
F8
F0
ENDCHAR
STARTCHAR acute
ENCODING 180
SWIDTH 602 0
DWIDTH 20 0
BBX 8 5 6 21
BITMAP
1F
3E
3C
78
F0
ENDCHAR
STARTCHAR mu
ENCODING 181
SWIDTH 602 0
DWIDTH 20 0
BBX 16 24 2 -6
BITMAP
F81F
F81F
F81F
F81F
F81F
F81F
F81F
F81F
F81F
F81F
F81F
F83F
FC7F
FFFF
FFFF
FFFF
FFDF
FF9F
F800
F800
F800
F800
F800
F800
ENDCHAR
STARTCHAR paragraph
ENCODING 182
SWIDTH 602 0
DWIDTH 20 0
BBX 14 31 2 -6
BITMAP
1FFC
7FFC
7FFC
FF9C
FF9C
FF9C
FF9C
FF9C
FF9C
7F9C
3F9C
1F9C
079C
039C
039C
039C
039C
039C
039C
039C
039C
039C
039C
039C
039C
039C
039C
039C
039C
039C
039C
ENDCHAR
STARTCHAR periodcentered
ENCODING 183
SWIDTH 602 0
DWIDTH 20 0
BBX 5 5 8 6
BITMAP
F8
F8
F8
F8
F8
ENDCHAR
STARTCHAR cedilla
ENCODING 184
SWIDTH 602 0
DWIDTH 20 0
BBX 7 8 8 -7
BITMAP
38
30
70
7C
1E
8E
FE
FC
ENDCHAR
STARTCHAR onesuperior
ENCODING 185
SWIDTH 602 0
DWIDTH 20 0
BBX 6 12 -5 13
BITMAP
F0
F0
30
30
30
30
30
30
30
30
FC
FC
ENDCHAR
STARTCHAR ordmasculine
ENCODING 186
SWIDTH 602 0
DWIDTH 20 0
BBX 15 14 3 11
BITMAP
0FE0
3FF8
7FFC
7C7C
F83E
F01E
F01E
F01E
F01E
F83E
7C7C
7FFC
3FF8
0FE0
ENDCHAR
STARTCHAR guillemotright
ENCODING 187
SWIDTH 602 0
DWIDTH 20 0
BBX 18 16 1 1
BITMAP
202000
70F000
F87800
7C7C00
3E3E00
3F1F00
1F9F80
0F8FC0
1FCF80
1F1F80
3E3F00
3C3E00
7C7C00
F8F800
707000
202000
ENDCHAR
STARTCHAR onequarter
ENCODING 188
SWIDTH 602 0
DWIDTH 20 0
BBX 20 25 2 0
BITMAP
F000F0
F000E0
3001C0
3003C0
300380
300700
300F00
300E00
301C00
303C00
FC3800
FC7000
00F000
00E1C0
01C1C0
03C3C0
0387C0
0706C0
0F0CC0
0E18C0
1C1FF0
3C1FF0
3800C0
7000C0
F000C0
ENDCHAR
STARTCHAR onehalf
ENCODING 189
SWIDTH 602 0
DWIDTH 20 0
BBX 20 25 2 0
BITMAP
F000F0
F000E0
3001C0
3003C0
300380
300700
300F00
300E00
301C00
303C00
FC3800
FC7000
00F000
00E3C0
01C7F0
03C470
038030
070030
0F0070
0E00E0
1C01C0
3C0380
380700
7007F0
F007F0
ENDCHAR
STARTCHAR threequarters
ENCODING 190
SWIDTH 602 0
DWIDTH 20 0
BBX 20 25 2 0
BITMAP
7800F0
FC00E0
8C01C0
0C03C0
1C0380
700700
780F00
1C0E00
0C1C00
8C3C00
F83800
F07000
00F000
00E1C0
01C1C0
03C3C0
0387C0
0706C0
0F0CC0
0E18C0
1C1FF0
3C1FF0
3800C0
7000C0
F000C0
ENDCHAR
STARTCHAR questiondown
ENCODING 191
SWIDTH 602 0
DWIDTH 20 0
BBX 17 25 1 -7
BITMAP
007C00
007C00
007C00
007C00
007C00
000000
000000
007C00
007C00
007C00
007800
00F000
03E000
07C000
1F8000
3E0000
7C0000
FC0000
F80380
F80380
F80380
FE0780
7FFF80
3FFF80
07FC00
ENDCHAR
STARTCHAR Agrave
ENCODING 192
SWIDTH 602 0
DWIDTH 20 0
BBX 20 31 0 0
BITMAP
03E000
01F000
00F000
007800
003C00
000000
00F800
00F800
01FC00
01FC00
01FC00
03FE00
03BE00
03BE00
07BE00
073F00
071F00
071F00
0E1F80
0E0F80
0E0F80
1C0F80
1FFFC0
1FFFC0
3FFFC0
3807C0
3803E0
7003E0
7003E0
7003F0
E001F0
ENDCHAR
STARTCHAR Aacute
ENCODING 193
SWIDTH 602 0
DWIDTH 20 0
BBX 20 31 0 0
BITMAP
007C00
00F800
00F000
01E000
03C000
000000
00F800
00F800
01FC00
01FC00
01FC00
03FE00
03BE00
03BE00
07BE00
073F00
071F00
071F00
0E1F80
0E0F80
0E0F80
1C0F80
1FFFC0
1FFFC0
3FFFC0
3807C0
3803E0
7003E0
7003E0
7003F0
E001F0
ENDCHAR
STARTCHAR Acircumflex
ENCODING 194
SWIDTH 602 0
DWIDTH 20 0
BBX 20 31 0 0
BITMAP
00F000
01F800
03FC00
039C00
079E00
000000
00F800
00F800
01FC00
01FC00
01FC00
03FE00
03BE00
03BE00
07BE00
073F00
071F00
071F00
0E1F80
0E0F80
0E0F80
1C0F80
1FFFC0
1FFFC0
3FFFC0
3807C0
3803E0
7003E0
7003E0
7003F0
E001F0
ENDCHAR
STARTCHAR Atilde
ENCODING 195
SWIDTH 602 0
DWIDTH 20 0
BBX 20 31 0 0
BITMAP
03C600
03FE00
07FE00
07FC00
063C00
000000
00F800
00F800
01FC00
01FC00
01FC00
03FE00
03BE00
03BE00
07BE00
073F00
071F00
071F00
0E1F80
0E0F80
0E0F80
1C0F80
1FFFC0
1FFFC0
3FFFC0
3807C0
3803E0
7003E0
7003E0
7003F0
E001F0
ENDCHAR
STARTCHAR Adieresis
ENCODING 196
SWIDTH 602 0
DWIDTH 20 0
BBX 20 30 0 0
BITMAP
079E00
079E00
079E00
079E00
000000
00F800
00F800
01FC00
01FC00
01FC00
03FE00
03BE00
03BE00
07BE00
073F00
071F00
071F00
0E1F80
0E0F80
0E0F80
1C0F80
1FFFC0
1FFFC0
3FFFC0
3807C0
3803E0
7003E0
7003E0
7003F0
E001F0
ENDCHAR
STARTCHAR Aring
ENCODING 197
SWIDTH 602 0
DWIDTH 20 0
BBX 20 31 0 0
BITMAP
007000
00D800
008800
00D800
007000
000000
00F800
00F800
01FC00
01FC00
01FC00
03FE00
03BE00
03BE00
07BE00
073F00
071F00
071F00
0E1F80
0E0F80
0E0F80
1C0F80
1FFFC0
1FFFC0
3FFFC0
3807C0
3803E0
7003E0
7003E0
7003F0
E001F0
ENDCHAR
STARTCHAR AE
ENCODING 198
SWIDTH 602 0
DWIDTH 20 0
BBX 20 25 0 0
BITMAP
007FF0
007FF0
007FF0
00FE00
00FE00
00FE00
01FE00
01FE00
03BE00
03BE00
03BFE0
073FE0
073FE0
0F3E00
0E3E00
0E3E00
1E3E00
1C3E00
1FFE00
3FFE00
3FFE00
703E00
703FF0
603FF0
E03FF0
ENDCHAR
STARTCHAR Ccedilla
ENCODING 199
SWIDTH 602 0
DWIDTH 20 0
BBX 19 32 1 -7
BITMAP
00FFC0
03FFE0
0FFFE0
1FC060
3F0000
3E0000
7C0000
7C0000
F80000
F80000
F80000
F80000
F80000
F80000
F80000
F80000
FC0000
7C0000
7E0000
3F0020
3FC0E0
1FFFE0
0FFFE0
03FFE0
00FF00
006000
00E000
00F800
003C00
011C00
01FC00
01F800
ENDCHAR
STARTCHAR Egrave
ENCODING 200
SWIDTH 602 0
DWIDTH 20 0
BBX 16 31 3 0
BITMAP
1F00
0F80
0780
03C0
01E0
0000
FFFE
FFFE
FFFE
F800
F800
F800
F800
F800
F800
F800
FFFC
FFFC
FFFC
F800
F800
F800
F800
F800
F800
F800
F800
F800
FFFF
FFFF
FFFF
ENDCHAR
STARTCHAR Eacute
ENCODING 201
SWIDTH 602 0
DWIDTH 20 0
BBX 16 31 3 0
BITMAP
03E0
07C0
0780
0F00
1E00
0000
FFFE
FFFE
FFFE
F800
F800
F800
F800
F800
F800
F800
FFFC
FFFC
FFFC
F800
F800
F800
F800
F800
F800
F800
F800
F800
FFFF
FFFF
FFFF
ENDCHAR
STARTCHAR Ecircumflex
ENCODING 202
SWIDTH 602 0
DWIDTH 20 0
BBX 16 31 3 0
BITMAP
03C0
07E0
0FF0
0E70
1E78
0000
FFFE
FFFE
FFFE
F800
F800
F800
F800
F800
F800
F800
FFFC
FFFC
FFFC
F800
F800
F800
F800
F800
F800
F800
F800
F800
FFFF
FFFF
FFFF
ENDCHAR
STARTCHAR Edieresis
ENCODING 203
SWIDTH 602 0
DWIDTH 20 0
BBX 16 30 3 0
BITMAP
3CF0
3CF0
3CF0
3CF0
0000
FFFE
FFFE
FFFE
F800
F800
F800
F800
F800
F800
F800
FFFC
FFFC
FFFC
F800
F800
F800
F800
F800
F800
F800
F800
F800
FFFF
FFFF
FFFF
ENDCHAR
STARTCHAR Igrave
ENCODING 204
SWIDTH 602 0
DWIDTH 20 0
BBX 17 31 2 0
BITMAP
07C000
03E000
01E000
00F000
007800
000000
FFFF80
FFFF80
FFFF80
03E000
03E000
03E000
03E000
03E000
03E000
03E000
03E000
03E000
03E000
03E000
03E000
03E000
03E000
03E000
03E000
03E000
03E000
03E000
FFFF80
FFFF80
FFFF80
ENDCHAR
STARTCHAR Iacute
ENCODING 205
SWIDTH 602 0
DWIDTH 20 0
BBX 17 31 2 0
BITMAP
01F000
03E000
03C000
078000
0F0000
000000
FFFF80
FFFF80
FFFF80
03E000
03E000
03E000
03E000
03E000
03E000
03E000
03E000
03E000
03E000
03E000
03E000
03E000
03E000
03E000
03E000
03E000
03E000
03E000
FFFF80
FFFF80
FFFF80
ENDCHAR
STARTCHAR Icircumflex
ENCODING 206
SWIDTH 602 0
DWIDTH 20 0
BBX 17 31 2 0
BITMAP
03C000
07E000
0FF000
0E7000
1E7800
000000
FFFF80
FFFF80
FFFF80
03E000
03E000
03E000
03E000
03E000
03E000
03E000
03E000
03E000
03E000
03E000
03E000
03E000
03E000
03E000
03E000
03E000
03E000
03E000
FFFF80
FFFF80
FFFF80
ENDCHAR
STARTCHAR Idieresis
ENCODING 207
SWIDTH 602 0
DWIDTH 20 0
BBX 17 30 2 0
BITMAP
1E7800
1E7800
1E7800
1E7800
000000
FFFF80
FFFF80
FFFF80
03E000
03E000
03E000
03E000
03E000
03E000
03E000
03E000
03E000
03E000
03E000
03E000
03E000
03E000
03E000
03E000
03E000
03E000
03E000
FFFF80
FFFF80
FFFF80
ENDCHAR
STARTCHAR Eth
ENCODING 208
SWIDTH 602 0
DWIDTH 20 0
BBX 19 25 0 0
BITMAP
7FF800
7FFE00
7FFF00
7C3F80
7C0FC0
7C07C0
7C07C0
7C07E0
7C03E0
7C03E0
FFC3E0
FFC3E0
FFC3E0
7C03E0
7C03E0
7C03E0
7C03E0
7C07C0
7C07C0
7C07C0
7C0F80
7C3F00
7FFF00
7FFC00
7FF000
ENDCHAR
STARTCHAR Ntilde
ENCODING 209
SWIDTH 602 0
DWIDTH 20 0
BBX 17 31 2 0
BITMAP
078C00
07FC00
0FFC00
0FF800
0C7800
000000
F80780
FC0780
FC0780
FE0780
FE0780
FF0780
FF0780
FF8780
FF8780
FFC780
F7C780
F7E780
F3E780
F3F780
F1F780
F1FF80
F0FF80
F0FF80
F07F80
F07F80
F03F80
F03F80
F01F80
F01F80
F00F80
ENDCHAR
STARTCHAR Ograve
ENCODING 210
SWIDTH 602 0
DWIDTH 20 0
BBX 20 31 0 0
BITMAP
03E000
01F000
00F000
007800
003C00
000000
01F800
0FFF00
1FFF80
3F0FC0
3E07C0
7C03E0
7C03E0
7801E0
F801F0
F801F0
F801F0
F801F0
F801F0
F801F0
F801F0
F801F0
F801F0
7801E0
7C03E0
7C03E0
3E07C0
3F0FC0
1FFF80
07FE00
01F800
ENDCHAR
STARTCHAR Oacute
ENCODING 211
SWIDTH 602 0
DWIDTH 20 0
BBX 20 31 0 0
BITMAP
007C00
00F800
00F000
01E000
03C000
000000
01F800
0FFF00
1FFF80
3F0FC0
3E07C0
7C03E0
7C03E0
7801E0
F801F0
F801F0
F801F0
F801F0
F801F0
F801F0
F801F0
F801F0
F801F0
7801E0
7C03E0
7C03E0
3E07C0
3F0FC0
1FFF80
07FE00
01F800
ENDCHAR
STARTCHAR Ocircumflex
ENCODING 212
SWIDTH 602 0
DWIDTH 20 0
BBX 20 31 0 0
BITMAP
00F000
01F800
03FC00
039C00
079E00
000000
01F800
0FFF00
1FFF80
3F0FC0
3E07C0
7C03E0
7C03E0
7801E0
F801F0
F801F0
F801F0
F801F0
F801F0
F801F0
F801F0
F801F0
F801F0
7801E0
7C03E0
7C03E0
3E07C0
3F0FC0
1FFF80
07FE00
01F800
ENDCHAR
STARTCHAR Otilde
ENCODING 213
SWIDTH 602 0
DWIDTH 20 0
BBX 20 31 0 0
BITMAP
03C600
03FE00
07FE00
07FC00
063C00
000000
01F800
0FFF00
1FFF80
3F0FC0
3E07C0
7C03E0
7C03E0
7801E0
F801F0
F801F0
F801F0
F801F0
F801F0
F801F0
F801F0
F801F0
F801F0
7801E0
7C03E0
7C03E0
3E07C0
3F0FC0
1FFF80
07FE00
01F800
ENDCHAR
STARTCHAR Odieresis
ENCODING 214
SWIDTH 602 0
DWIDTH 20 0
BBX 20 30 0 0
BITMAP
079E00
079E00
079E00
079E00
000000
01F800
0FFF00
1FFF80
3F0FC0
3E07C0
7C03E0
7C03E0
7801E0
F801F0
F801F0
F801F0
F801F0
F801F0
F801F0
F801F0
F801F0
F801F0
7801E0
7C03E0
7C03E0
3E07C0
3F0FC0
1FFF80
07FE00
01F800
ENDCHAR
STARTCHAR multiply
ENCODING 215
SWIDTH 602 0
DWIDTH 20 0
BBX 18 18 1 0
BITMAP
200100
700380
F807C0
7C0F80
3E1F00
1F3E00
0FFC00
07F800
03F000
03F000
07F800
0FFC00
1F3E00
3E1F00
7C0F80
F807C0
700380
200100
ENDCHAR
STARTCHAR Oslash
ENCODING 216
SWIDTH 602 0
DWIDTH 20 0
BBX 20 25 0 0
BITMAP
01FCF0
0FFFE0
1FFFC0
3F0FC0
3E07C0
7C07E0
7C0FE0
780FE0
F81FF0
F83DF0
F839F0
F871F0
F8F1F0
F9E1F0
F9C1F0
FBC1F0
FF81F0
7F01E0
7F03E0
7E03E0
3E07C0
3F0FC0
3FFF80
7FFE00
F3F800
ENDCHAR
STARTCHAR Ugrave
ENCODING 217
SWIDTH 602 0
DWIDTH 20 0
BBX 17 31 2 0
BITMAP
07C000
03E000
01E000
00F000
007800
000000
F80F80
F80F80
F80F80
F80F80
F80F80
F80F80
F80F80
F80F80
F80F80
F80F80
F80F80
F80F80
F80F80
F80F80
F80F80
F80F80
F80F80
F80F80
F80F80
F80F80
7C1F00
7E3F00
3FFE00
1FFC00
07F800
ENDCHAR
STARTCHAR Uacute
ENCODING 218
SWIDTH 602 0
DWIDTH 20 0
BBX 17 31 2 0
BITMAP
01F000
03E000
03C000
078000
0F0000
000000
F80F80
F80F80
F80F80
F80F80
F80F80
F80F80
F80F80
F80F80
F80F80
F80F80
F80F80
F80F80
F80F80
F80F80
F80F80
F80F80
F80F80
F80F80
F80F80
F80F80
7C1F00
7E3F00
3FFE00
1FFC00
07F800
ENDCHAR
STARTCHAR Ucircumflex
ENCODING 219
SWIDTH 602 0
DWIDTH 20 0
BBX 17 31 2 0
BITMAP
03C000
07E000
0FF000
0E7000
1E7800
000000
F80F80
F80F80
F80F80
F80F80
F80F80
F80F80
F80F80
F80F80
F80F80
F80F80
F80F80
F80F80
F80F80
F80F80
F80F80
F80F80
F80F80
F80F80
F80F80
F80F80
7C1F00
7E3F00
3FFE00
1FFC00
07F800
ENDCHAR
STARTCHAR Udieresis
ENCODING 220
SWIDTH 602 0
DWIDTH 20 0
BBX 17 30 2 0
BITMAP
1E7800
1E7800
1E7800
1E7800
000000
F80F80
F80F80
F80F80
F80F80
F80F80
F80F80
F80F80
F80F80
F80F80
F80F80
F80F80
F80F80
F80F80
F80F80
F80F80
F80F80
F80F80
F80F80
F80F80
F80F80
7C1F00
7E3F00
3FFE00
1FFC00
07F800
ENDCHAR
STARTCHAR Yacute
ENCODING 221
SWIDTH 602 0
DWIDTH 20 0
BBX 21 31 0 0
BITMAP
007C00
00F800
00F000
01E000
03C000
000000
FC0078
7E00F0
7E00E0
3F01E0
3F01C0
1F83C0
0F8380
0FC780
07C700
07EE00
03EE00
03FC00
01FC00
01F800
00F800
00F800
00F800
00F800
00F800
00F800
00F800
00F800
00F800
00F800
00F800
ENDCHAR
STARTCHAR Thorn
ENCODING 222
SWIDTH 602 0
DWIDTH 20 0
BBX 17 25 2 0
BITMAP
F80000
F80000
F80000
F80000
F80000
FFF800
FFFE00
FFFF00
F83F80
F80F80
F80F80
F80F80
F80F80
F80F80
F81F00
F83F00
FFFE00
FFFC00
FFF000
F80000
F80000
F80000
F80000
F80000
F80000
ENDCHAR
STARTCHAR germandbls
ENCODING 223
SWIDTH 602 0
DWIDTH 20 0
BBX 18 26 2 0
BITMAP
0FF000
3FFC00
7FFE00
7C7E00
783E00
F83E00
F83C00
F87C00
F87800
F8F000
F8F000
F9F000
F9F800
F9FC00
F8FE00
F87F00
F83F80
F81F80
F80FC0
F807C0
F807C0
F807C0
F90FC0
F9FF80
F9FF00
F9FC00
ENDCHAR
STARTCHAR agrave
ENCODING 224
SWIDTH 602 0
DWIDTH 20 0
BBX 18 24 1 0
BITMAP
07C000
03E000
01E000
00F000
007800
000000
0FF000
3FFC00
3FFE00
307F00
201F00
001F00
001F00
0FFF00
3FFF00
7FFF00
FC1F00
F81F00
F81F00
FC7F00
FFFFC0
7FFFC0
3FCFC0
1F87C0
ENDCHAR
STARTCHAR aacute
ENCODING 225
SWIDTH 602 0
DWIDTH 20 0
BBX 18 24 1 0
BITMAP
00F800
01F000
01E000
03C000
078000
000000
0FF000
3FFC00
3FFE00
307F00
201F00
001F00
001F00
0FFF00
3FFF00
7FFF00
FC1F00
F81F00
F81F00
FC7F00
FFFFC0
7FFFC0
3FCFC0
1F87C0
ENDCHAR
STARTCHAR acircumflex
ENCODING 226
SWIDTH 602 0
DWIDTH 20 0
BBX 18 24 1 0
BITMAP
01E000
03F000
07F800
073800
0F3C00
000000
0FF000
3FFC00
3FFE00
307F00
201F00
001F00
001F00
0FFF00
3FFF00
7FFF00
FC1F00
F81F00
F81F00
FC7F00
FFFFC0
7FFFC0
3FCFC0
1F87C0
ENDCHAR
STARTCHAR atilde
ENCODING 227
SWIDTH 602 0
DWIDTH 20 0
BBX 18 24 1 0
BITMAP
078C00
07FC00
0FFC00
0FF800
0C7800
000000
0FF000
3FFC00
3FFE00
307F00
201F00
001F00
001F00
0FFF00
3FFF00
7FFF00
FC1F00
F81F00
F81F00
FC7F00
FFFFC0
7FFFC0
3FCFC0
1F87C0
ENDCHAR
STARTCHAR adieresis
ENCODING 228
SWIDTH 602 0
DWIDTH 20 0
BBX 18 23 1 0
BITMAP
0F3C00
0F3C00
0F3C00
0F3C00
000000
0FF000
3FFC00
3FFE00
307F00
201F00
001F00
001F00
0FFF00
3FFF00
7FFF00
FC1F00
F81F00
F81F00
FC7F00
FFFFC0
7FFFC0
3FCFC0
1F87C0
ENDCHAR
STARTCHAR aring
ENCODING 229
SWIDTH 602 0
DWIDTH 20 0
BBX 18 24 1 0
BITMAP
01C000
036000
022000
036000
01C000
000000
0FF000
3FFC00
3FFE00
307F00
201F00
001F00
001F00
0FFF00
3FFF00
7FFF00
FC1F00
F81F00
F81F00
FC7F00
FFFFC0
7FFFC0
3FCFC0
1F87C0
ENDCHAR
STARTCHAR ae
ENCODING 230
SWIDTH 602 0
DWIDTH 20 0
BBX 19 18 1 0
BITMAP
1F8F00
3FFF80
3FFFC0
20F3C0
00F3C0
00F3E0
00F3E0
0FFFE0
3FFFE0
7FFFE0
FCF000
F8F000
F8F000
F9F820
FFFFE0
7FFFE0
7F3FE0
1E1F80
ENDCHAR
STARTCHAR ccedilla
ENCODING 231
SWIDTH 602 0
DWIDTH 20 0
BBX 17 25 2 -7
BITMAP
03FF80
0FFF80
1FFF80
3F0180
7C0000
7C0000
F80000
F80000
F80000
F80000
F80000
FC0000
7E0000
7F8180
3FFF80
1FFF80
0FFF80
03FE00
00C000
01C000
01F000
007800
023800
03F800
03F000
ENDCHAR
STARTCHAR egrave
ENCODING 232
SWIDTH 602 0
DWIDTH 20 0
BBX 18 24 1 0
BITMAP
07C000
03E000
01E000
00F000
007800
000000
03F800
0FFE00
1FFF00
3E0F80
7C0780
7C07C0
F807C0
FFFFC0
FFFFC0
FFFFC0
F80000
F80000
7C0000
7F00C0
3FFFC0
1FFFC0
0FFFC0
03FE00
ENDCHAR
STARTCHAR eacute
ENCODING 233
SWIDTH 602 0
DWIDTH 20 0
BBX 18 24 1 0
BITMAP
00F800
01F000
01E000
03C000
078000
000000
03F800
0FFE00
1FFF00
3E0F80
7C0780
7C07C0
F807C0
FFFFC0
FFFFC0
FFFFC0
F80000
F80000
7C0000
7F00C0
3FFFC0
1FFFC0
0FFFC0
03FE00
ENDCHAR
STARTCHAR ecircumflex
ENCODING 234
SWIDTH 602 0
DWIDTH 20 0
BBX 18 24 1 0
BITMAP
01E000
03F000
07F800
073800
0F3C00
000000
03F800
0FFE00
1FFF00
3E0F80
7C0780
7C07C0
F807C0
FFFFC0
FFFFC0
FFFFC0
F80000
F80000
7C0000
7F00C0
3FFFC0
1FFFC0
0FFFC0
03FE00
ENDCHAR
STARTCHAR edieresis
ENCODING 235
SWIDTH 602 0
DWIDTH 20 0
BBX 18 23 1 0
BITMAP
0F3C00
0F3C00
0F3C00
0F3C00
000000
03F800
0FFE00
1FFF00
3E0F80
7C0780
7C07C0
F807C0
FFFFC0
FFFFC0
FFFFC0
F80000
F80000
7C0000
7F00C0
3FFFC0
1FFFC0
0FFFC0
03FE00
ENDCHAR
STARTCHAR igrave
ENCODING 236
SWIDTH 602 0
DWIDTH 20 0
BBX 12 24 3 0
BITMAP
1F00
0F80
0780
03C0
01E0
0000
FFF0
FFF0
FFF0
01F0
01F0
01F0
01F0
01F0
01F0
01F0
01F0
01F0
01F0
01F0
01F0
01F0
01F0
01F0
ENDCHAR
STARTCHAR iacute
ENCODING 237
SWIDTH 602 0
DWIDTH 20 0
BBX 12 24 3 0
BITMAP
03E0
07C0
0780
0F00
1E00
0000
FFF0
FFF0
FFF0
01F0
01F0
01F0
01F0
01F0
01F0
01F0
01F0
01F0
01F0
01F0
01F0
01F0
01F0
01F0
ENDCHAR
STARTCHAR icircumflex
ENCODING 238
SWIDTH 602 0
DWIDTH 20 0
BBX 12 24 3 0
BITMAP
0780
0FC0
1FE0
1CE0
3CF0
0000
FFF0
FFF0
FFF0
01F0
01F0
01F0
01F0
01F0
01F0
01F0
01F0
01F0
01F0
01F0
01F0
01F0
01F0
01F0
ENDCHAR
STARTCHAR idieresis
ENCODING 239
SWIDTH 602 0
DWIDTH 20 0
BBX 12 23 3 0
BITMAP
3CF0
3CF0
3CF0
3CF0
0000
FFF0
FFF0
FFF0
01F0
01F0
01F0
01F0
01F0
01F0
01F0
01F0
01F0
01F0
01F0
01F0
01F0
01F0
01F0
ENDCHAR
STARTCHAR eth
ENCODING 240
SWIDTH 602 0
DWIDTH 20 0
BBX 19 26 1 0
BITMAP
FF0E00
FFFE00
FFFF00
07FC00
0FFC00
0FFE00
063F00
041F00
03FF80
0FFFC0
1FFFC0
3E0FC0
7C07E0
7C07E0
F803E0
F803E0
F803E0
F803E0
F803E0
F803C0
7C07C0
7C07C0
3E1F80
1FFF00
0FFE00
03F800
ENDCHAR
STARTCHAR ntilde
ENCODING 241
SWIDTH 602 0
DWIDTH 20 0
BBX 16 24 2 0
BITMAP
0F18
0FF8
1FF8
1FF0
18F0
0000
F8F8
F9FC
FBFE
FFFF
FFFF
FE1F
FC1F
F81F
F81F
F81F
F81F
F81F
F81F
F81F
F81F
F81F
F81F
F81F
ENDCHAR
STARTCHAR ograve
ENCODING 242
SWIDTH 602 0
DWIDTH 20 0
BBX 19 24 1 0
BITMAP
03E000
01F000
00F000
007800
003C00
000000
03F800
0FFE00
1FFF00
3E0F80
7C07C0
7C07C0
F803E0
F803E0
F803E0
F803E0
F803E0
F803E0
7C07C0
7C07C0
3E0F80
1FFF00
0FFE00
03F800
ENDCHAR
STARTCHAR oacute
ENCODING 243
SWIDTH 602 0
DWIDTH 20 0
BBX 19 24 1 0
BITMAP
00F800
01F000
01E000
03C000
078000
000000
03F800
0FFE00
1FFF00
3E0F80
7C07C0
7C07C0
F803E0
F803E0
F803E0
F803E0
F803E0
F803E0
7C07C0
7C07C0
3E0F80
1FFF00
0FFE00
03F800
ENDCHAR
STARTCHAR ocircumflex
ENCODING 244
SWIDTH 602 0
DWIDTH 20 0
BBX 19 24 1 0
BITMAP
01E000
03F000
07F800
073800
0F3C00
000000
03F800
0FFE00
1FFF00
3E0F80
7C07C0
7C07C0
F803E0
F803E0
F803E0
F803E0
F803E0
F803E0
7C07C0
7C07C0
3E0F80
1FFF00
0FFE00
03F800
ENDCHAR
STARTCHAR otilde
ENCODING 245
SWIDTH 602 0
DWIDTH 20 0
BBX 19 24 1 0
BITMAP
03C600
03FE00
07FE00
07FC00
063C00
000000
03F800
0FFE00
1FFF00
3E0F80
7C07C0
7C07C0
F803E0
F803E0
F803E0
F803E0
F803E0
F803E0
7C07C0
7C07C0
3E0F80
1FFF00
0FFE00
03F800
ENDCHAR
STARTCHAR odieresis
ENCODING 246
SWIDTH 602 0
DWIDTH 20 0
BBX 19 23 1 0
BITMAP
0F3C00
0F3C00
0F3C00
0F3C00
000000
03F800
0FFE00
1FFF00
3E0F80
7C07C0
7C07C0
F803E0
F803E0
F803E0
F803E0
F803E0
F803E0
7C07C0
7C07C0
3E0F80
1FFF00
0FFE00
03F800
ENDCHAR
STARTCHAR divide
ENCODING 247
SWIDTH 602 0
DWIDTH 20 0
BBX 17 18 2 0
BITMAP
03E000
03E000
03E000
03E000
03E000
000000
000000
FFFF80
FFFF80
FFFF80
FFFF80
000000
000000
03E000
03E000
03E000
03E000
03E000
ENDCHAR
STARTCHAR oslash
ENCODING 248
SWIDTH 602 0
DWIDTH 20 0
BBX 19 18 1 0
BITMAP
03FFE0
0FFFC0
1FFF80
3F0F80
7C1FC0
7C1FC0
F83FE0
F87BE0
F8F3E0
F9E3E0
FBC3E0
FF83E0
7F07C0
7E07C0
3E1F80
3FFF00
7FFE00
FFF800
ENDCHAR
STARTCHAR ugrave
ENCODING 249
SWIDTH 602 0
DWIDTH 20 0
BBX 16 24 2 0
BITMAP
0F80
07C0
03C0
01E0
00F0
0000
F81F
F81F
F81F
F81F
F81F
F81F
F81F
F81F
F81F
F81F
F81F
F83F
F87F
FFFF
FFFF
7FDF
7F9F
1F1F
ENDCHAR
STARTCHAR uacute
ENCODING 250
SWIDTH 602 0
DWIDTH 20 0
BBX 16 24 2 0
BITMAP
01F0
03E0
03C0
0780
0F00
0000
F81F
F81F
F81F
F81F
F81F
F81F
F81F
F81F
F81F
F81F
F81F
F83F
F87F
FFFF
FFFF
7FDF
7F9F
1F1F
ENDCHAR
STARTCHAR ucircumflex
ENCODING 251
SWIDTH 602 0
DWIDTH 20 0
BBX 16 24 2 0
BITMAP
03C0
07E0
0FF0
0E70
1E78
0000
F81F
F81F
F81F
F81F
F81F
F81F
F81F
F81F
F81F
F81F
F81F
F83F
F87F
FFFF
FFFF
7FDF
7F9F
1F1F
ENDCHAR
STARTCHAR udieresis
ENCODING 252
SWIDTH 602 0
DWIDTH 20 0
BBX 16 23 2 0
BITMAP
1E78
1E78
1E78
1E78
0000
F81F
F81F
F81F
F81F
F81F
F81F
F81F
F81F
F81F
F81F
F81F
F83F
F87F
FFFF
FFFF
7FDF
7F9F
1F1F
ENDCHAR
STARTCHAR yacute
ENCODING 253
SWIDTH 602 0
DWIDTH 20 0
BBX 19 31 1 -7
BITMAP
00F800
01F000
01E000
03C000
078000
000000
FC01E0
7C01C0
7C03C0
7E0380
3E0380
3F0700
1F0700
1F8F00
0F8E00
0FDE00
07DC00
07DC00
07F800
03F800
03F800
01F000
01F000
01E000
01E000
03C000
03C000
078000
7F8000
7F0000
7C0000
ENDCHAR
STARTCHAR thorn
ENCODING 254
SWIDTH 602 0
DWIDTH 20 0
BBX 17 31 2 -7
BITMAP
F80000
F80000
F80000
F80000
F80000
F80000
F8F800
F9FC00
FBFE00
FFFF00
FFFF00
FE1F80
FC1F80
F80F80
F80F80
F80F80
F80F80
F80F80
F81F00
FC3F00
FFFF00
FFFE00
FBFC00
F9F000
F80000
F80000
F80000
F80000
F80000
F80000
F80000
ENDCHAR
STARTCHAR ydieresis
ENCODING 255
SWIDTH 602 0
DWIDTH 20 0
BBX 19 30 1 -7
BITMAP
0F3C00
0F3C00
0F3C00
0F3C00
000000
FC01E0
7C01C0
7C03C0
7E0380
3E0380
3F0700
1F0700
1F8F00
0F8E00
0FDE00
07DC00
07DC00
07F800
03F800
03F800
01F000
01F000
01E000
01E000
03C000
03C000
078000
7F8000
7F0000
7C0000
ENDCHAR
STARTCHAR Amacron
ENCODING 256
SWIDTH 602 0
DWIDTH 20 0
BBX 20 29 0 0
BITMAP
07FE00
07FE00
07FE00
000000
00F800
00F800
01FC00
01FC00
01FC00
03FE00
03BE00
03BE00
07BE00
073F00
071F00
071F00
0E1F80
0E0F80
0E0F80
1C0F80
1FFFC0
1FFFC0
3FFFC0
3807C0
3803E0
7003E0
7003E0
7003F0
E001F0
ENDCHAR
STARTCHAR amacron
ENCODING 257
SWIDTH 602 0
DWIDTH 20 0
BBX 18 22 1 0
BITMAP
0FFC00
0FFC00
0FFC00
000000
0FF000
3FFC00
3FFE00
307F00
201F00
001F00
001F00
0FFF00
3FFF00
7FFF00
FC1F00
F81F00
F81F00
FC7F00
FFFFC0
7FFFC0
3FCFC0
1F87C0
ENDCHAR
STARTCHAR Abreve
ENCODING 258
SWIDTH 602 0
DWIDTH 20 0
BBX 20 31 0 0
BITMAP
070E00
079E00
03FC00
03FC00
01F800
000000
00F800
00F800
01FC00
01FC00
01FC00
03FE00
03BE00
03BE00
07BE00
073F00
071F00
071F00
0E1F80
0E0F80
0E0F80
1C0F80
1FFFC0
1FFFC0
3FFFC0
3807C0
3803E0
7003E0
7003E0
7003F0
E001F0
ENDCHAR
STARTCHAR abreve
ENCODING 259
SWIDTH 602 0
DWIDTH 20 0
BBX 18 24 1 0
BITMAP
0E1C00
0F3C00
07F800
07F800
03F000
000000
0FF000
3FFC00
3FFE00
307F00
201F00
001F00
001F00
0FFF00
3FFF00
7FFF00
FC1F00
F81F00
F81F00
FC7F00
FFFFC0
7FFFC0
3FCFC0
1F87C0
ENDCHAR
STARTCHAR Aogonek
ENCODING 260
SWIDTH 602 0
DWIDTH 20 0
BBX 20 32 0 -7
BITMAP
00F800
00F800
01FC00
01FC00
01FC00
03FE00
03BE00
03BE00
07BE00
073F00
071F00
071F00
0E1F80
0E0F80
0E0F80
1C0F80
1FFFC0
1FFFC0
3FFFC0
3807C0
3803E0
7003E0
7003E0
7003F0
E001F0
003800
007000
006000
00E000
00E000
00FC00
007C00
ENDCHAR
STARTCHAR aogonek
ENCODING 261
SWIDTH 602 0
DWIDTH 20 0
BBX 18 25 1 -7
BITMAP
0FF000
3FFC00
3FFE00
307F00
201F00
001F00
001F00
0FFF00
3FFF00
7FFF00
FC1F00
F81F00
F81F00
FC7F00
FFFFC0
7FFFC0
3FCFC0
1F87C0
00E000
01C000
018000
038000
038000
03F000
01F000
ENDCHAR
STARTCHAR Cacute
ENCODING 262
SWIDTH 602 0
DWIDTH 20 0
BBX 19 31 1 0
BITMAP
003E00
007C00
007800
00F000
01E000
000000
00FFC0
03FFE0
0FFFE0
1FC060
3F0000
3E0000
7C0000
7C0000
F80000
F80000
F80000
F80000
F80000
F80000
F80000
F80000
FC0000
7C0000
7E0000
3F0020
3FC0E0
1FFFE0
0FFFE0
03FFE0
00FF00
ENDCHAR
STARTCHAR cacute
ENCODING 263
SWIDTH 602 0
DWIDTH 20 0
BBX 17 24 2 0
BITMAP
007C00
00F800
00F000
01E000
03C000
000000
03FF80
0FFF80
1FFF80
3F0180
7C0000
7C0000
F80000
F80000
F80000
F80000
F80000
FC0000
7E0000
7F8180
3FFF80
1FFF80
0FFF80
03FE00
ENDCHAR
STARTCHAR Ccircumflex
ENCODING 264
SWIDTH 602 0
DWIDTH 20 0
BBX 19 31 1 0
BITMAP
00F000
01F800
03FC00
039C00
079E00
000000
00FFC0
03FFE0
0FFFE0
1FC060
3F0000
3E0000
7C0000
7C0000
F80000
F80000
F80000
F80000
F80000
F80000
F80000
F80000
FC0000
7C0000
7E0000
3F0020
3FC0E0
1FFFE0
0FFFE0
03FFE0
00FF00
ENDCHAR
STARTCHAR ccircumflex
ENCODING 265
SWIDTH 602 0
DWIDTH 20 0
BBX 17 24 2 0
BITMAP
01E000
03F000
07F800
073800
0F3C00
000000
03FF80
0FFF80
1FFF80
3F0180
7C0000
7C0000
F80000
F80000
F80000
F80000
F80000
FC0000
7E0000
7F8180
3FFF80
1FFF80
0FFF80
03FE00
ENDCHAR
STARTCHAR Cdotaccent
ENCODING 266
SWIDTH 602 0
DWIDTH 20 0
BBX 19 30 1 0
BITMAP
00F000
00F000
00F000
00F000
000000
00FFC0
03FFE0
0FFFE0
1FC060
3F0000
3E0000
7C0000
7C0000
F80000
F80000
F80000
F80000
F80000
F80000
F80000
F80000
FC0000
7C0000
7E0000
3F0020
3FC0E0
1FFFE0
0FFFE0
03FFE0
00FF00
ENDCHAR
STARTCHAR cdotaccent
ENCODING 267
SWIDTH 602 0
DWIDTH 20 0
BBX 17 23 2 0
BITMAP
01E000
01E000
01E000
01E000
000000
03FF80
0FFF80
1FFF80
3F0180
7C0000
7C0000
F80000
F80000
F80000
F80000
F80000
FC0000
7E0000
7F8180
3FFF80
1FFF80
0FFF80
03FE00
ENDCHAR
STARTCHAR Ccaron
ENCODING 268
SWIDTH 602 0
DWIDTH 20 0
BBX 19 31 1 0
BITMAP
079E00
039C00
03FC00
01F800
00F000
000000
00FFC0
03FFE0
0FFFE0
1FC060
3F0000
3E0000
7C0000
7C0000
F80000
F80000
F80000
F80000
F80000
F80000
F80000
F80000
FC0000
7C0000
7E0000
3F0020
3FC0E0
1FFFE0
0FFFE0
03FFE0
00FF00
ENDCHAR
STARTCHAR ccaron
ENCODING 269
SWIDTH 602 0
DWIDTH 20 0
BBX 17 24 2 0
BITMAP
0F3C00
073800
07F800
03F000
01E000
000000
03FF80
0FFF80
1FFF80
3F0180
7C0000
7C0000
F80000
F80000
F80000
F80000
F80000
FC0000
7E0000
7F8180
3FFF80
1FFF80
0FFF80
03FE00
ENDCHAR
STARTCHAR Dcaron
ENCODING 270
SWIDTH 602 0
DWIDTH 20 0
BBX 18 31 2 0
BITMAP
1E7800
0E7000
0FF000
07E000
03C000
000000
FFF000
FFFC00
FFFE00
F87F00
F81F80
F80F80
F80F80
F80FC0
F807C0
F807C0
F807C0
F807C0
F807C0
F807C0
F807C0
F807C0
F807C0
F80F80
F80F80
F80F80
F81F00
F87E00
FFFE00
FFF800
FFE000
ENDCHAR
STARTCHAR dcaron
ENCODING 271
SWIDTH 602 0
DWIDTH 20 0
BBX 18 32 2 0
BITMAP
00F3C0
007380
007F80
003F00
001E00
000000
000F80
000F80
000F80
000F80
000F80
000F80
000F80
000F80
07CF80
1FEF80
3FFF80
7FFF80
7E1F80
7C0F80
F80F80
F80F80
F80F80
F80F80
F80F80
FC1F80
FC3F80
7FFF80
7FFF80
3FEF80
1FCF80
0F8F80
ENDCHAR
STARTCHAR Dcroat
ENCODING 272
SWIDTH 602 0
DWIDTH 20 0
BBX 19 25 0 0
BITMAP
7FF800
7FFE00
7FFF00
7C3F80
7C0FC0
7C07C0
7C07C0
7C07E0
7C03E0
7C03E0
FFC3E0
FFC3E0
FFC3E0
7C03E0
7C03E0
7C03E0
7C03E0
7C07C0
7C07C0
7C07C0
7C0F80
7C3F00
7FFF00
7FFC00
7FF000
ENDCHAR
STARTCHAR dcroat
ENCODING 273
SWIDTH 602 0
DWIDTH 20 0
BBX 22 26 2 0
BITMAP
000F80
000F80
000F80
000F80
000F80
07FFFC
07FFFC
07FFFC
07FFFC
1FEF80
3FFF80
7FFF80
7E1F80
7C0F80
F80F80
F80F80
F80F80
F80F80
F80F80
FC1F80
FC3F80
7FFF80
7FFF80
3FEF80
1FCF80
0F8F80
ENDCHAR
STARTCHAR Emacron
ENCODING 274
SWIDTH 602 0
DWIDTH 20 0
BBX 16 29 3 0
BITMAP
3FF0
3FF0
3FF0
0000
FFFE
FFFE
FFFE
F800
F800
F800
F800
F800
F800
F800
FFFC
FFFC
FFFC
F800
F800
F800
F800
F800
F800
F800
F800
F800
FFFF
FFFF
FFFF
ENDCHAR
STARTCHAR emacron
ENCODING 275
SWIDTH 602 0
DWIDTH 20 0
BBX 18 22 1 0
BITMAP
0FFC00
0FFC00
0FFC00
000000
03F800
0FFE00
1FFF00
3E0F80
7C0780
7C07C0
F807C0
FFFFC0
FFFFC0
FFFFC0
F80000
F80000
7C0000
7F00C0
3FFFC0
1FFFC0
0FFFC0
03FE00
ENDCHAR
STARTCHAR Ebreve
ENCODING 276
SWIDTH 602 0
DWIDTH 20 0
BBX 16 31 3 0
BITMAP
3870
3CF0
1FE0
1FE0
0FC0
0000
FFFE
FFFE
FFFE
F800
F800
F800
F800
F800
F800
F800
FFFC
FFFC
FFFC
F800
F800
F800
F800
F800
F800
F800
F800
F800
FFFF
FFFF
FFFF
ENDCHAR
STARTCHAR ebreve
ENCODING 277
SWIDTH 602 0
DWIDTH 20 0
BBX 18 24 1 0
BITMAP
0E1C00
0F3C00
07F800
07F800
03F000
000000
03F800
0FFE00
1FFF00
3E0F80
7C0780
7C07C0
F807C0
FFFFC0
FFFFC0
FFFFC0
F80000
F80000
7C0000
7F00C0
3FFFC0
1FFFC0
0FFFC0
03FE00
ENDCHAR
STARTCHAR Edotaccent
ENCODING 278
SWIDTH 602 0
DWIDTH 20 0
BBX 16 30 3 0
BITMAP
0780
0780
0780
0780
0000
FFFE
FFFE
FFFE
F800
F800
F800
F800
F800
F800
F800
FFFC
FFFC
FFFC
F800
F800
F800
F800
F800
F800
F800
F800
F800
FFFF
FFFF
FFFF
ENDCHAR
STARTCHAR edotaccent
ENCODING 279
SWIDTH 602 0
DWIDTH 20 0
BBX 18 23 1 0
BITMAP
01E000
01E000
01E000
01E000
000000
03F800
0FFE00
1FFF00
3E0F80
7C0780
7C07C0
F807C0
FFFFC0
FFFFC0
FFFFC0
F80000
F80000
7C0000
7F00C0
3FFFC0
1FFFC0
0FFFC0
03FE00
ENDCHAR
STARTCHAR Eogonek
ENCODING 280
SWIDTH 602 0
DWIDTH 20 0
BBX 16 32 3 -7
BITMAP
FFFE
FFFE
FFFE
F800
F800
F800
F800
F800
F800
F800
FFFC
FFFC
FFFC
F800
F800
F800
F800
F800
F800
F800
F800
F800
FFFF
FFFF
FFFF
0380
0700
0600
0E00
0E00
0FC0
07C0
ENDCHAR
STARTCHAR eogonek
ENCODING 281
SWIDTH 602 0
DWIDTH 20 0
BBX 18 25 1 -7
BITMAP
03F800
0FFE00
1FFF00
3E0F80
7C0780
7C07C0
F807C0
FFFFC0
FFFFC0
FFFFC0
F80000
F80000
7C0000
7F00C0
3FFFC0
1FFFC0
0FFFC0
03FE00
007000
00E000
00C000
01C000
01C000
01F800
00F800
ENDCHAR
STARTCHAR Ecaron
ENCODING 282
SWIDTH 602 0
DWIDTH 20 0
BBX 16 31 3 0
BITMAP
3CF0
1CE0
1FE0
0FC0
0780
0000
FFFE
FFFE
FFFE
F800
F800
F800
F800
F800
F800
F800
FFFC
FFFC
FFFC
F800
F800
F800
F800
F800
F800
F800
F800
F800
FFFF
FFFF
FFFF
ENDCHAR
STARTCHAR ecaron
ENCODING 283
SWIDTH 602 0
DWIDTH 20 0
BBX 18 24 1 0
BITMAP
0F3C00
073800
07F800
03F000
01E000
000000
03F800
0FFE00
1FFF00
3E0F80
7C0780
7C07C0
F807C0
FFFFC0
FFFFC0
FFFFC0
F80000
F80000
7C0000
7F00C0
3FFFC0
1FFFC0
0FFFC0
03FE00
ENDCHAR
STARTCHAR Gcircumflex
ENCODING 284
SWIDTH 602 0
DWIDTH 20 0
BBX 19 31 1 0
BITMAP
00F000
01F800
03FC00
039C00
079E00
000000
00FF80
07FFE0
0FFFE0
1FC0E0
3F0020
3E0000
7C0000
7C0000
F80000
F80000
F80000
F80000
F803E0
F803E0
F803E0
F803E0
FC03E0
7C03E0
7E03E0
3F03E0
3FC3E0
1FFFE0
0FFFE0
07FFE0
00FF00
ENDCHAR
STARTCHAR gcircumflex
ENCODING 285
SWIDTH 602 0
DWIDTH 20 0
BBX 17 31 2 -7
BITMAP
01E000
03F000
07F800
073800
0F3C00
000000
07C780
1FE780
3FFF80
7FFF80
7E3F80
FC0F80
F80F80
F80F80
F80F80
F80F80
F80F80
FC1F80
FC3F80
7FFF80
7FEF80
3FEF80
1FCF80
0F8F80
000F80
001F00
303F00
3FFF00
3FFE00
3FFC00
07F000
ENDCHAR
STARTCHAR Gbreve
ENCODING 286
SWIDTH 602 0
DWIDTH 20 0
BBX 19 31 1 0
BITMAP
070E00
079E00
03FC00
03FC00
01F800
000000
00FF80
07FFE0
0FFFE0
1FC0E0
3F0020
3E0000
7C0000
7C0000
F80000
F80000
F80000
F80000
F803E0
F803E0
F803E0
F803E0
FC03E0
7C03E0
7E03E0
3F03E0
3FC3E0
1FFFE0
0FFFE0
07FFE0
00FF00
ENDCHAR
STARTCHAR gbreve
ENCODING 287
SWIDTH 602 0
DWIDTH 20 0
BBX 17 31 2 -7
BITMAP
0E1C00
0F3C00
07F800
07F800
03F000
000000
07C780
1FE780
3FFF80
7FFF80
7E3F80
FC0F80
F80F80
F80F80
F80F80
F80F80
F80F80
FC1F80
FC3F80
7FFF80
7FEF80
3FEF80
1FCF80
0F8F80
000F80
001F00
303F00
3FFF00
3FFE00
3FFC00
07F000
ENDCHAR
STARTCHAR Gdotaccent
ENCODING 288
SWIDTH 602 0
DWIDTH 20 0
BBX 19 30 1 0
BITMAP
00F000
00F000
00F000
00F000
000000
00FF80
07FFE0
0FFFE0
1FC0E0
3F0020
3E0000
7C0000
7C0000
F80000
F80000
F80000
F80000
F803E0
F803E0
F803E0
F803E0
FC03E0
7C03E0
7E03E0
3F03E0
3FC3E0
1FFFE0
0FFFE0
07FFE0
00FF00
ENDCHAR
STARTCHAR gdotaccent
ENCODING 289
SWIDTH 602 0
DWIDTH 20 0
BBX 17 30 2 -7
BITMAP
01E000
01E000
01E000
01E000
000000
07C780
1FE780
3FFF80
7FFF80
7E3F80
FC0F80
F80F80
F80F80
F80F80
F80F80
F80F80
FC1F80
FC3F80
7FFF80
7FEF80
3FEF80
1FCF80
0F8F80
000F80
001F00
303F00
3FFF00
3FFE00
3FFC00
07F000
ENDCHAR
STARTCHAR Gcommaaccent
ENCODING 290
SWIDTH 602 0
DWIDTH 20 0
BBX 19 38 1 -13
BITMAP
00FF80
07FFE0
0FFFE0
1FC0E0
3F0020
3E0000
7C0000
7C0000
F80000
F80000
F80000
F80000
F803E0
F803E0
F803E0
F803E0
FC03E0
7C03E0
7E03E0
3F03E0
3FC3E0
1FFFE0
0FFFE0
07FFE0
00FF00
000000
01F800
01F800
01F800
01F800
01F800
01F800
007800
007800
007800
00F000
01F000
01C000
ENDCHAR
STARTCHAR gcommaaccent
ENCODING 291
SWIDTH 602 0
DWIDTH 20 0
BBX 17 37 2 -7
BITMAP
007000
01F000
01E000
03C000
03C000
03F000
03F000
03F000
03F000
03F000
03F000
000000
07C780
1FE780
3FFF80
7FFF80
7E3F80
FC0F80
F80F80
F80F80
F80F80
F80F80
F80F80
FC1F80
FC3F80
7FFF80
7FEF80
3FEF80
1FCF80
0F8F80
000F80
001F00
303F00
3FFF00
3FFE00
3FFC00
07F000
ENDCHAR
STARTCHAR Hcircumflex
ENCODING 292
SWIDTH 602 0
DWIDTH 20 0
BBX 17 31 2 0
BITMAP
01E000
03F000
07F800
073800
0F3C00
000000
F80F80
F80F80
F80F80
F80F80
F80F80
F80F80
F80F80
F80F80
F80F80
F80F80
FFFF80
FFFF80
FFFF80
F80F80
F80F80
F80F80
F80F80
F80F80
F80F80
F80F80
F80F80
F80F80
F80F80
F80F80
F80F80
ENDCHAR
STARTCHAR hcircumflex
ENCODING 293
SWIDTH 602 0
DWIDTH 20 0
BBX 17 32 1 0
BITMAP
1E0000
3F0000
7F8000
738000
F3C000
000000
7C0000
7C0000
7C0000
7C0000
7C0000
7C0000
7C0000
7C0000
7C7C00
7CFE00
7DFF00
7FFF80
7FFF80
7F0F80
7E0F80
7C0F80
7C0F80
7C0F80
7C0F80
7C0F80
7C0F80
7C0F80
7C0F80
7C0F80
7C0F80
7C0F80
ENDCHAR
STARTCHAR Hbar
ENCODING 294
SWIDTH 602 0
DWIDTH 20 0
BBX 17 25 2 0
BITMAP
F80F80
F80F80
F80F80
F80F80
F80F80
FFFF80
FFFF80
FFFF80
FFFF80
F80F80
FFFF80
FFFF80
FFFF80
F80F80
F80F80
F80F80
F80F80
F80F80
F80F80
F80F80
F80F80
F80F80
F80F80
F80F80
F80F80
ENDCHAR
STARTCHAR hbar
ENCODING 295
SWIDTH 602 0
DWIDTH 20 0
BBX 20 26 -2 0
BITMAP
0F8000
0F8000
0F8000
0F8000
0F8000
FFFF80
FFFF80
FFFF80
FFFF80
0F9FC0
0FBFE0
0FFFF0
0FFFF0
0FE1F0
0FC1F0
0F81F0
0F81F0
0F81F0
0F81F0
0F81F0
0F81F0
0F81F0
0F81F0
0F81F0
0F81F0
0F81F0
ENDCHAR
STARTCHAR Itilde
ENCODING 296
SWIDTH 602 0
DWIDTH 20 0
BBX 17 31 2 0
BITMAP
078C00
07FC00
0FFC00
0FF800
0C7800
000000
FFFF80
FFFF80
FFFF80
03E000
03E000
03E000
03E000
03E000
03E000
03E000
03E000
03E000
03E000
03E000
03E000
03E000
03E000
03E000
03E000
03E000
03E000
03E000
FFFF80
FFFF80
FFFF80
ENDCHAR
STARTCHAR itilde
ENCODING 297
SWIDTH 602 0
DWIDTH 20 0
BBX 12 24 3 0
BITMAP
1E30
1FF0
3FF0
3FE0
31E0
0000
FFF0
FFF0
FFF0
01F0
01F0
01F0
01F0
01F0
01F0
01F0
01F0
01F0
01F0
01F0
01F0
01F0
01F0
01F0
ENDCHAR
STARTCHAR Imacron
ENCODING 298
SWIDTH 602 0
DWIDTH 20 0
BBX 17 29 2 0
BITMAP
0FFC00
0FFC00
0FFC00
000000
FFFF80
FFFF80
FFFF80
03E000
03E000
03E000
03E000
03E000
03E000
03E000
03E000
03E000
03E000
03E000
03E000
03E000
03E000
03E000
03E000
03E000
03E000
03E000
FFFF80
FFFF80
FFFF80
ENDCHAR
STARTCHAR imacron
ENCODING 299
SWIDTH 602 0
DWIDTH 20 0
BBX 12 22 3 0
BITMAP
3FF0
3FF0
3FF0
0000
FFF0
FFF0
FFF0
01F0
01F0
01F0
01F0
01F0
01F0
01F0
01F0
01F0
01F0
01F0
01F0
01F0
01F0
01F0
ENDCHAR
STARTCHAR Ibreve
ENCODING 300
SWIDTH 602 0
DWIDTH 20 0
BBX 17 31 2 0
BITMAP
0E1C00
0F3C00
07F800
07F800
03F000
000000
FFFF80
FFFF80
FFFF80
03E000
03E000
03E000
03E000
03E000
03E000
03E000
03E000
03E000
03E000
03E000
03E000
03E000
03E000
03E000
03E000
03E000
03E000
03E000
FFFF80
FFFF80
FFFF80
ENDCHAR
STARTCHAR ibreve
ENCODING 301
SWIDTH 602 0
DWIDTH 20 0
BBX 12 24 3 0
BITMAP
3870
3CF0
1FE0
1FE0
0FC0
0000
FFF0
FFF0
FFF0
01F0
01F0
01F0
01F0
01F0
01F0
01F0
01F0
01F0
01F0
01F0
01F0
01F0
01F0
01F0
ENDCHAR
STARTCHAR Iogonek
ENCODING 302
SWIDTH 602 0
DWIDTH 20 0
BBX 17 32 2 -7
BITMAP
FFFF80
FFFF80
FFFF80
03E000
03E000
03E000
03E000
03E000
03E000
03E000
03E000
03E000
03E000
03E000
03E000
03E000
03E000
03E000
03E000
03E000
03E000
03E000
FFFF80
FFFF80
FFFF80
00E000
01C000
018000
038000
038000
03F000
01F000
ENDCHAR
STARTCHAR iogonek
ENCODING 303
SWIDTH 602 0
DWIDTH 20 0
BBX 12 33 3 -7
BITMAP
01F0
01F0
01F0
01F0
01F0
0000
0000
0000
FFF0
FFF0
FFF0
01F0
01F0
01F0
01F0
01F0
01F0
01F0
01F0
01F0
01F0
01F0
01F0
01F0
01F0
01F0
01C0
0380
0300
0700
0700
07E0
03E0
ENDCHAR
STARTCHAR Idotaccent
ENCODING 304
SWIDTH 602 0
DWIDTH 20 0
BBX 17 30 2 0
BITMAP
01E000
01E000
01E000
01E000
000000
FFFF80
FFFF80
FFFF80
03E000
03E000
03E000
03E000
03E000
03E000
03E000
03E000
03E000
03E000
03E000
03E000
03E000
03E000
03E000
03E000
03E000
03E000
03E000
FFFF80
FFFF80
FFFF80
ENDCHAR
STARTCHAR dotlessi
ENCODING 305
SWIDTH 602 0
DWIDTH 20 0
BBX 12 18 3 0
BITMAP
FFF0
FFF0
FFF0
01F0
01F0
01F0
01F0
01F0
01F0
01F0
01F0
01F0
01F0
01F0
01F0
01F0
01F0
01F0
ENDCHAR
STARTCHAR IJ
ENCODING 306
SWIDTH 602 0
DWIDTH 20 0
BBX 23 25 2 0
BITMAP
FFFFFE
FFFFFE
FFFFFE
03E03E
03E03E
03E03E
03E03E
03E03E
03E03E
03E03E
03E03E
03E03E
03E03E
03E03E
03E03E
03E03E
03E03E
03E03E
03E03E
03E03E
03E07C
03E0FC
FFFFF8
FFFFF0
FFFFC0
ENDCHAR
STARTCHAR ij
ENCODING 307
SWIDTH 602 0
DWIDTH 20 0
BBX 17 33 3 -7
BITMAP
01FF80
01FF80
01FF80
01FF80
01FF80
000000
000000
000000
FFFF80
FFFF80
FFFF80
01FF80
01FF80
01FF80
01FF80
01FF80
01FF80
01FF80
01FF80
01FF80
01FF80
01FF80
01FF80
01FF80
01FF80
01FF80
000F80
000F80
000F80
0C1F00
0FFF00
0FFE00
07F800
ENDCHAR
STARTCHAR Jcircumflex
ENCODING 308
SWIDTH 602 0
DWIDTH 20 0
BBX 15 31 2 0
BITMAP
01E0
03F0
07F8
0738
0F3C
0000
3FFE
3FFE
3FFE
003E
003E
003E
003E
003E
003E
003E
003E
003E
003E
003E
003E
003E
003E
003E
003E
003E
007C
C0FC
FFF8
FFF0
FFC0
ENDCHAR
STARTCHAR jcircumflex
ENCODING 309
SWIDTH 602 0
DWIDTH 20 0
BBX 13 31 2 -7
BITMAP
03C0
07E0
0FF0
0E70
1E78
0000
3FF8
3FF8
3FF8
00F8
00F8
00F8
00F8
00F8
00F8
00F8
00F8
00F8
00F8
00F8
00F8
00F8
00F8
00F8
00F8
00F8
00F8
C1F0
FFF0
FFE0
7F80
ENDCHAR
STARTCHAR Kcommaaccent
ENCODING 310
SWIDTH 602 0
DWIDTH 20 0
BBX 18 38 2 -13
BITMAP
F807C0
F80700
F80F00
F81E00
F83C00
F83800
F87800
F8F000
F9E000
F9C000
FFC000
FFC000
FFC000
FFE000
FFF000
FBF000
F9F800
F8F800
F8FC00
F87E00
F87E00
F83F00
F81F80
F81F80
F80FC0
000000
07E000
07E000
07E000
07E000
07E000
07E000
01E000
01E000
01E000
03C000
07C000
070000
ENDCHAR
STARTCHAR kcommaaccent
ENCODING 311
SWIDTH 602 0
DWIDTH 20 0
BBX 17 39 3 -13
BITMAP
F80000
F80000
F80000
F80000
F80000
F80000
F80000
F80000
F81E00
F83C00
F83800
F87800
F8F000
F8E000
F9E000
FBC000
FFE000
FBF000
FBF000
F9F800
F8FC00
F8FC00
F87E00
F83F00
F83F00
F81F80
000000
07E000
07E000
07E000
07E000
07E000
07E000
01E000
01E000
01E000
03C000
07C000
070000
ENDCHAR
STARTCHAR kgreenlandic
ENCODING 312
SWIDTH 602 0
DWIDTH 20 0
BBX 17 18 3 0
BITMAP
F81E00
F83C00
F83800
F87800
F8F000
F8E000
F9E000
FBC000
FFE000
FBF000
FBF000
F9F800
F8FC00
F8FC00
F87E00
F83F00
F83F00
F81F80
ENDCHAR
STARTCHAR Lacute
ENCODING 313
SWIDTH 602 0
DWIDTH 20 0
BBX 16 31 4 0
BITMAP
0F80
1F00
1E00
3C00
7800
0000
F800
F800
F800
F800
F800
F800
F800
F800
F800
F800
F800
F800
F800
F800
F800
F800
F800
F800
F800
F800
F800
F800
FFFF
FFFF
FFFF
ENDCHAR
STARTCHAR lacute
ENCODING 314
SWIDTH 602 0
DWIDTH 20 0
BBX 12 32 1 0
BITMAP
01F0
03E0
03C0
0780
0F00
0000
FFF0
FFF0
FFF0
01F0
01F0
01F0
01F0
01F0
01F0
01F0
01F0
01F0
01F0
01F0
01F0
01F0
01F0
01F0
01F0
01F0
01F0
01F0
01F0
01F0
01F0
01F0
ENDCHAR
STARTCHAR Lcommaaccent
ENCODING 315
SWIDTH 602 0
DWIDTH 20 0
BBX 16 38 4 -13
BITMAP
F800
F800
F800
F800
F800
F800
F800
F800
F800
F800
F800
F800
F800
F800
F800
F800
F800
F800
F800
F800
F800
F800
FFFF
FFFF
FFFF
0000
0FC0
0FC0
0FC0
0FC0
0FC0
0FC0
03C0
03C0
03C0
0780
0F80
0E00
ENDCHAR
STARTCHAR lcommaaccent
ENCODING 316
SWIDTH 602 0
DWIDTH 20 0
BBX 12 39 1 -13
BITMAP
FFF0
FFF0
FFF0
01F0
01F0
01F0
01F0
01F0
01F0
01F0
01F0
01F0
01F0
01F0
01F0
01F0
01F0
01F0
01F0
01F0
01F0
01F0
01F0
01F0
01F0
01F0
0000
07E0
07E0
07E0
07E0
07E0
07E0
01E0
01E0
01E0
03C0
07C0
0700
ENDCHAR
STARTCHAR Lcaron
ENCODING 317
SWIDTH 602 0
DWIDTH 20 0
BBX 17 31 3 0
BITMAP
F3C000
738000
7F8000
3F0000
1E0000
000000
7C0000
7C0000
7C0000
7C0000
7C0000
7C0000
7C0000
7C0000
7C0000
7C0000
7C0000
7C0000
7C0000
7C0000
7C0000
7C0000
7C0000
7C0000
7C0000
7C0000
7C0000
7C0000
7FFF80
7FFF80
7FFF80
ENDCHAR
STARTCHAR lcaron
ENCODING 318
SWIDTH 602 0
DWIDTH 20 0
BBX 12 32 1 0
BITMAP
3CF0
1CE0
1FE0
0FC0
0780
0000
FFF0
FFF0
FFF0
01F0
01F0
01F0
01F0
01F0
01F0
01F0
01F0
01F0
01F0
01F0
01F0
01F0
01F0
01F0
01F0
01F0
01F0
01F0
01F0
01F0
01F0
01F0
ENDCHAR
STARTCHAR Ldot
ENCODING 319
SWIDTH 602 0
DWIDTH 20 0
BBX 16 25 4 0
BITMAP
F800
F800
F800
F800
F800
F800
F800
F800
F800
F800
F800
F800
F800
F800
F8F8
F8F8
F8F8
F8F8
F8F8
F800
F800
F800
FFFF
FFFF
FFFF
ENDCHAR
STARTCHAR ldot
ENCODING 320
SWIDTH 602 0
DWIDTH 20 0
BBX 16 26 1 0
BITMAP
FFF0
FFF0
FFF0
01F0
01F0
01F0
01F0
01F0
01F0
01F0
01F0
01F0
01F0
01F0
01F0
01FF
01FF
01FF
01FF
01FF
01F0
01F0
01F0
01F0
01F0
01F0
ENDCHAR
STARTCHAR Lslash
ENCODING 321
SWIDTH 602 0
DWIDTH 20 0
BBX 20 25 0 0
BITMAP
0F8000
0F8000
0F8000
0F8000
0F8000
0F8000
0F8000
0F8800
0FB800
0FF800
0FF800
0FF000
3FC000
7F8000
FF8000
FF8000
CF8000
8F8000
0F8000
0F8000
0F8000
0F8000
0FFFF0
0FFFF0
0FFFF0
ENDCHAR
STARTCHAR lslash
ENCODING 322
SWIDTH 602 0
DWIDTH 20 0
BBX 16 26 1 0
BITMAP
FFF0
FFF0
FFF0
01F0
01F0
01F0
01F0
01F0
01F3
01FF
01FF
01FF
03FC
0FF0
1FF0
1FF0
19F0
11F0
01F0
01F0
01F0
01F0
01F0
01F0
01F0
01F0
ENDCHAR
STARTCHAR Nacute
ENCODING 323
SWIDTH 602 0
DWIDTH 20 0
BBX 17 31 2 0
BITMAP
00F800
01F000
01E000
03C000
078000
000000
F80780
FC0780
FC0780
FE0780
FE0780
FF0780
FF0780
FF8780
FF8780
FFC780
F7C780
F7E780
F3E780
F3F780
F1F780
F1FF80
F0FF80
F0FF80
F07F80
F07F80
F03F80
F03F80
F01F80
F01F80
F00F80
ENDCHAR
STARTCHAR nacute
ENCODING 324
SWIDTH 602 0
DWIDTH 20 0
BBX 16 24 2 0
BITMAP
00F8
01F0
01E0
03C0
0780
0000
F8F8
F9FC
FBFE
FFFF
FFFF
FE1F
FC1F
F81F
F81F
F81F
F81F
F81F
F81F
F81F
F81F
F81F
F81F
F81F
ENDCHAR
STARTCHAR Ncommaaccent
ENCODING 325
SWIDTH 602 0
DWIDTH 20 0
BBX 17 38 2 -13
BITMAP
F80780
FC0780
FC0780
FE0780
FE0780
FF0780
FF0780
FF8780
FF8780
FFC780
F7C780
F7E780
F3E780
F3F780
F1F780
F1FF80
F0FF80
F0FF80
F07F80
F07F80
F03F80
F03F80
F01F80
F01F80
F00F80
000000
03F000
03F000
03F000
03F000
03F000
03F000
00F000
00F000
00F000
01E000
03E000
038000
ENDCHAR
STARTCHAR ncommaaccent
ENCODING 326
SWIDTH 602 0
DWIDTH 20 0
BBX 16 31 2 -13
BITMAP
F8F8
F9FC
FBFE
FFFF
FFFF
FE1F
FC1F
F81F
F81F
F81F
F81F
F81F
F81F
F81F
F81F
F81F
F81F
F81F
0000
07E0
07E0
07E0
07E0
07E0
07E0
01E0
01E0
01E0
03C0
07C0
0700
ENDCHAR
STARTCHAR Ncaron
ENCODING 327
SWIDTH 602 0
DWIDTH 20 0
BBX 17 31 2 0
BITMAP
1E7800
0E7000
0FF000
07E000
03C000
000000
F80780
FC0780
FC0780
FE0780
FE0780
FF0780
FF0780
FF8780
FF8780
FFC780
F7C780
F7E780
F3E780
F3F780
F1F780
F1FF80
F0FF80
F0FF80
F07F80
F07F80
F03F80
F03F80
F01F80
F01F80
F00F80
ENDCHAR
STARTCHAR ncaron
ENCODING 328
SWIDTH 602 0
DWIDTH 20 0
BBX 16 24 2 0
BITMAP
1E78
0E70
0FF0
07E0
03C0
0000
F8F8
F9FC
FBFE
FFFF
FFFF
FE1F
FC1F
F81F
F81F
F81F
F81F
F81F
F81F
F81F
F81F
F81F
F81F
F81F
ENDCHAR
STARTCHAR napostrophe
ENCODING 329
SWIDTH 602 0
DWIDTH 20 0
BBX 21 26 -3 0
BITMAP
FC0000
FC0000
FC0000
FC0000
FC0000
FC0000
3C0000
3C0000
7FC7C0
FFCFE0
E7DFF0
07FFF8
07FFF8
07F0F8
07E0F8
07C0F8
07C0F8
07C0F8
07C0F8
07C0F8
07C0F8
07C0F8
07C0F8
07C0F8
07C0F8
07C0F8
ENDCHAR
STARTCHAR Eng
ENCODING 330
SWIDTH 602 0
DWIDTH 20 0
BBX 17 32 2 -7
BITMAP
F80780
FC0780
FC0780
FE0780
FE0780
FF0780
FF0780
FF8780
FF8780
FFC780
F7C780
F7E780
F3E780
F3F780
F1F780
F1FF80
F0FF80
F0FF80
F07F80
F07F80
F03F80
F03F80
F01F80
F01F80
F00F80
000F80
000F80
000F80
0C1F00
0FFF00
0FFE00
07F800
ENDCHAR
STARTCHAR eng
ENCODING 331
SWIDTH 602 0
DWIDTH 20 0
BBX 16 25 2 -7
BITMAP
F8F8
F9FC
FBFE
FFFF
FFFF
FE1F
FC1F
F81F
F81F
F81F
F81F
F81F
F81F
F81F
F81F
F81F
F81F
F81F
001F
001F
001F
183E
1FFE
1FFC
0FF0
ENDCHAR
STARTCHAR Omacron
ENCODING 332
SWIDTH 602 0
DWIDTH 20 0
BBX 20 29 0 0
BITMAP
07FE00
07FE00
07FE00
000000
01F800
0FFF00
1FFF80
3F0FC0
3E07C0
7C03E0
7C03E0
7801E0
F801F0
F801F0
F801F0
F801F0
F801F0
F801F0
F801F0
F801F0
F801F0
7801E0
7C03E0
7C03E0
3E07C0
3F0FC0
1FFF80
07FE00
01F800
ENDCHAR
STARTCHAR omacron
ENCODING 333
SWIDTH 602 0
DWIDTH 20 0
BBX 19 22 1 0
BITMAP
07FE00
07FE00
07FE00
000000
03F800
0FFE00
1FFF00
3E0F80
7C07C0
7C07C0
F803E0
F803E0
F803E0
F803E0
F803E0
F803E0
7C07C0
7C07C0
3E0F80
1FFF00
0FFE00
03F800
ENDCHAR
STARTCHAR Obreve
ENCODING 334
SWIDTH 602 0
DWIDTH 20 0
BBX 20 31 0 0
BITMAP
070E00
079E00
03FC00
03FC00
01F800
000000
01F800
0FFF00
1FFF80
3F0FC0
3E07C0
7C03E0
7C03E0
7801E0
F801F0
F801F0
F801F0
F801F0
F801F0
F801F0
F801F0
F801F0
F801F0
7801E0
7C03E0
7C03E0
3E07C0
3F0FC0
1FFF80
07FE00
01F800
ENDCHAR
STARTCHAR obreve
ENCODING 335
SWIDTH 602 0
DWIDTH 20 0
BBX 19 24 1 0
BITMAP
070E00
079E00
03FC00
03FC00
01F800
000000
03F800
0FFE00
1FFF00
3E0F80
7C07C0
7C07C0
F803E0
F803E0
F803E0
F803E0
F803E0
F803E0
7C07C0
7C07C0
3E0F80
1FFF00
0FFE00
03F800
ENDCHAR
STARTCHAR Ohungarumlaut
ENCODING 336
SWIDTH 602 0
DWIDTH 20 0
BBX 20 31 0 0
BITMAP
00F780
00E700
01CE00
018C00
031800
000000
01F800
0FFF00
1FFF80
3F0FC0
3E07C0
7C03E0
7C03E0
7801E0
F801F0
F801F0
F801F0
F801F0
F801F0
F801F0
F801F0
F801F0
F801F0
7801E0
7C03E0
7C03E0
3E07C0
3F0FC0
1FFF80
07FE00
01F800
ENDCHAR
STARTCHAR ohungarumlaut
ENCODING 337
SWIDTH 602 0
DWIDTH 20 0
BBX 19 24 1 0
BITMAP
01EF00
01CE00
039C00
031800
063000
000000
03F800
0FFE00
1FFF00
3E0F80
7C07C0
7C07C0
F803E0
F803E0
F803E0
F803E0
F803E0
F803E0
7C07C0
7C07C0
3E0F80
1FFF00
0FFE00
03F800
ENDCHAR
STARTCHAR OE
ENCODING 338
SWIDTH 602 0
DWIDTH 20 0
BBX 19 25 1 0
BITMAP
07FFE0
1FFFE0
3FFFE0
3E7C00
7C3C00
7C3C00
783C00
F83C00
F83C00
F83C00
F83FC0
F83FC0
F83FC0
F83C00
F83C00
F83C00
F83C00
F83C00
783C00
7C3C00
7C3C00
3E7C00
1FFFE0
1FFFE0
07FFE0
ENDCHAR
STARTCHAR oe
ENCODING 339
SWIDTH 602 0
DWIDTH 20 0
BBX 19 18 1 0
BITMAP
0F8F00
1FDFC0
3FFFC0
79F9C0
79F1E0
F9F1E0
F9F1E0
F9FFE0
F9FFE0
F9FFE0
F9F000
F9F000
F9F000
79F820
7DFFE0
3FFFE0
1FDFE0
0F8F80
ENDCHAR
STARTCHAR Racute
ENCODING 340
SWIDTH 602 0
DWIDTH 20 0
BBX 18 31 2 0
BITMAP
00F800
01F000
01E000
03C000
078000
000000
FFF000
FFFC00
FFFE00
F83F00
F81F00
F81F00
F81F00
F81F00
F83F00
F83E00
F8FE00
FFFC00
FFF800
FFF000
F9F000
F9F800
F8F800
F8FC00
F87E00
F87E00
F83F00
F83F00
F81F80
F81F80
F80FC0
ENDCHAR
STARTCHAR racute
ENCODING 341
SWIDTH 602 0
DWIDTH 20 0
BBX 15 24 4 0
BITMAP
00F8
01F0
01E0
03C0
0780
0000
F87E
F9FE
FBFE
FFFE
FFFE
FF0E
FE0E
FC00
F800
F800
F800
F800
F800
F800
F800
F800
F800
F800
ENDCHAR
STARTCHAR Rcommaaccent
ENCODING 342
SWIDTH 602 0
DWIDTH 20 0
BBX 18 38 2 -13
BITMAP
FFF000
FFFC00
FFFE00
F83F00
F81F00
F81F00
F81F00
F81F00
F83F00
F83E00
F8FE00
FFFC00
FFF800
FFF000
F9F000
F9F800
F8F800
F8FC00
F87E00
F87E00
F83F00
F83F00
F81F80
F81F80
F80FC0
000000
03F000
03F000
03F000
03F000
03F000
03F000
00F000
00F000
00F000
01E000
03E000
038000
ENDCHAR
STARTCHAR rcommaaccent
ENCODING 343
SWIDTH 602 0
DWIDTH 20 0
BBX 15 31 4 -13
BITMAP
F87E
F9FE
FBFE
FFFE
FFFE
FF0E
FE0E
FC00
F800
F800
F800
F800
F800
F800
F800
F800
F800
F800
0000
7E00
7E00
7E00
7E00
7E00
7E00
1E00
1E00
1E00
3C00
7C00
7000
ENDCHAR
STARTCHAR Rcaron
ENCODING 344
SWIDTH 602 0
DWIDTH 20 0
BBX 18 31 2 0
BITMAP
1E7800
0E7000
0FF000
07E000
03C000
000000
FFF000
FFFC00
FFFE00
F83F00
F81F00
F81F00
F81F00
F81F00
F83F00
F83E00
F8FE00
FFFC00
FFF800
FFF000
F9F000
F9F800
F8F800
F8FC00
F87E00
F87E00
F83F00
F83F00
F81F80
F81F80
F80FC0
ENDCHAR
STARTCHAR rcaron
ENCODING 345
SWIDTH 602 0
DWIDTH 20 0
BBX 15 24 4 0
BITMAP
1E78
0E70
0FF0
07E0
03C0
0000
F87E
F9FE
FBFE
FFFE
FFFE
FF0E
FE0E
FC00
F800
F800
F800
F800
F800
F800
F800
F800
F800
F800
ENDCHAR
STARTCHAR Sacute
ENCODING 346
SWIDTH 602 0
DWIDTH 20 0
BBX 18 31 1 0
BITMAP
00F800
01F000
01E000
03C000
078000
000000
07FE00
1FFF00
7FFF00
7E0300
F80000
F80000
F80000
FC0000
FF0000
7FC000
3FF000
1FFC00
07FE00
01FF00
007F80
001FC0
000FC0
0007C0
0007C0
800FC0
F01FC0
FFFF80
FFFF00
FFFE00
3FF000
ENDCHAR
STARTCHAR sacute
ENCODING 347
SWIDTH 602 0
DWIDTH 20 0
BBX 16 24 2 0
BITMAP
00F8
01F0
01E0
03C0
0780
0000
07FC
3FFE
7FFE
7C06
F800
FE00
FF80
7FF0
3FFC
1FFE
03FF
00FF
001F
001F
C03F
FFFE
FFFC
3FE0
ENDCHAR
STARTCHAR Scircumflex
ENCODING 348
SWIDTH 602 0
DWIDTH 20 0
BBX 18 31 1 0
BITMAP
03C000
07E000
0FF000
0E7000
1E7800
000000
07FE00
1FFF00
7FFF00
7E0300
F80000
F80000
F80000
FC0000
FF0000
7FC000
3FF000
1FFC00
07FE00
01FF00
007F80
001FC0
000FC0
0007C0
0007C0
800FC0
F01FC0
FFFF80
FFFF00
FFFE00
3FF000
ENDCHAR
STARTCHAR scircumflex
ENCODING 349
SWIDTH 602 0
DWIDTH 20 0
BBX 16 24 2 0
BITMAP
03C0
07E0
0FF0
0E70
1E78
0000
07FC
3FFE
7FFE
7C06
F800
FE00
FF80
7FF0
3FFC
1FFE
03FF
00FF
001F
001F
C03F
FFFE
FFFC
3FE0
ENDCHAR
STARTCHAR Scedilla
ENCODING 350
SWIDTH 602 0
DWIDTH 20 0
BBX 18 32 1 -7
BITMAP
07FE00
1FFF00
7FFF00
7E0300
F80000
F80000
F80000
FC0000
FF0000
7FC000
3FF000
1FFC00
07FE00
01FF00
007F80
001FC0
000FC0
0007C0
0007C0
800FC0
F01FC0
FFFF80
FFFF00
FFFE00
3FF000
00C000
01C000
01F000
007800
023800
03F800
03F000
ENDCHAR
STARTCHAR scedilla
ENCODING 351
SWIDTH 602 0
DWIDTH 20 0
BBX 16 25 2 -7
BITMAP
07FC
3FFE
7FFE
7C06
F800
FE00
FF80
7FF0
3FFC
1FFE
03FF
00FF
001F
001F
C03F
FFFE
FFFC
3FE0
0180
0380
03E0
00F0
0470
07F0
07E0
ENDCHAR
STARTCHAR Scaron
ENCODING 352
SWIDTH 602 0
DWIDTH 20 0
BBX 18 31 1 0
BITMAP
0F3C00
073800
07F800
03F000
01E000
000000
07FE00
1FFF00
7FFF00
7E0300
F80000
F80000
F80000
FC0000
FF0000
7FC000
3FF000
1FFC00
07FE00
01FF00
007F80
001FC0
000FC0
0007C0
0007C0
800FC0
F01FC0
FFFF80
FFFF00
FFFE00
3FF000
ENDCHAR
STARTCHAR scaron
ENCODING 353
SWIDTH 602 0
DWIDTH 20 0
BBX 16 24 2 0
BITMAP
1E78
0E70
0FF0
07E0
03C0
0000
07FC
3FFE
7FFE
7C06
F800
FE00
FF80
7FF0
3FFC
1FFE
03FF
00FF
001F
001F
C03F
FFFE
FFFC
3FE0
ENDCHAR
STARTCHAR Tcommaaccent
ENCODING 354
SWIDTH 602 0
DWIDTH 20 0
BBX 19 32 1 -7
BITMAP
FFFFE0
FFFFE0
FFFFE0
01F000
01F000
01F000
01F000
01F000
01F000
01F000
01F000
01F000
01F000
01F000
01F000
01F000
01F000
01F000
01F000
01F000
01F000
01F000
01F000
01F000
01F000
00C000
01C000
01F000
007800
023800
03F800
03F000
ENDCHAR
STARTCHAR tcommaaccent
ENCODING 355
SWIDTH 602 0
DWIDTH 20 0
BBX 16 30 2 -7
BITMAP
0380
0F80
0F80
0F80
0F80
FFFF
FFFF
FFFF
0F80
0F80
0F80
0F80
0F80
0F80
0F80
0F80
0F80
0F80
0FC1
07FF
07FF
03FF
00FC
00C0
01C0
01F0
0078
0238
03F8
03F0
ENDCHAR
STARTCHAR Tcaron
ENCODING 356
SWIDTH 602 0
DWIDTH 20 0
BBX 19 31 1 0
BITMAP
079E00
039C00
03FC00
01F800
00F000
000000
FFFFE0
FFFFE0
FFFFE0
01F000
01F000
01F000
01F000
01F000
01F000
01F000
01F000
01F000
01F000
01F000
01F000
01F000
01F000
01F000
01F000
01F000
01F000
01F000
01F000
01F000
01F000
ENDCHAR
STARTCHAR tcaron
ENCODING 357
SWIDTH 602 0
DWIDTH 20 0
BBX 16 29 2 0
BITMAP
3CF0
1CE0
1FE0
0FC0
0780
0000
0380
0F80
0F80
0F80
0F80
FFFF
FFFF
FFFF
0F80
0F80
0F80
0F80
0F80
0F80
0F80
0F80
0F80
0F80
0FC1
07FF
07FF
03FF
00FC
ENDCHAR
STARTCHAR Tbar
ENCODING 358
SWIDTH 602 0
DWIDTH 20 0
BBX 19 25 1 0
BITMAP
FFFFE0
FFFFE0
FFFFE0
01F000
01F000
01F000
01F000
01F000
01F000
01F000
7FFFC0
7FFFC0
7FFFC0
7FFFC0
01F000
01F000
01F000
01F000
01F000
01F000
01F000
01F000
01F000
01F000
01F000
ENDCHAR
STARTCHAR tbar
ENCODING 359
SWIDTH 602 0
DWIDTH 20 0
BBX 17 23 2 0
BITMAP
038000
0F8000
0F8000
0F8000
0F8000
FFFF00
FFFF00
FFFF00
0F8000
0F8000
0F8000
0F8000
FFFF80
FFFF80
FFFF80
FFFF80
0F8000
0F8000
0FC100
07FF00
07FF00
03FF00
00FC00
ENDCHAR
STARTCHAR Utilde
ENCODING 360
SWIDTH 602 0
DWIDTH 20 0
BBX 17 31 2 0
BITMAP
078C00
07FC00
0FFC00
0FF800
0C7800
000000
F80F80
F80F80
F80F80
F80F80
F80F80
F80F80
F80F80
F80F80
F80F80
F80F80
F80F80
F80F80
F80F80
F80F80
F80F80
F80F80
F80F80
F80F80
F80F80
F80F80
7C1F00
7E3F00
3FFE00
1FFC00
07F800
ENDCHAR
STARTCHAR utilde
ENCODING 361
SWIDTH 602 0
DWIDTH 20 0
BBX 16 24 2 0
BITMAP
0F18
0FF8
1FF8
1FF0
18F0
0000
F81F
F81F
F81F
F81F
F81F
F81F
F81F
F81F
F81F
F81F
F81F
F83F
F87F
FFFF
FFFF
7FDF
7F9F
1F1F
ENDCHAR
STARTCHAR Umacron
ENCODING 362
SWIDTH 602 0
DWIDTH 20 0
BBX 17 29 2 0
BITMAP
0FFC00
0FFC00
0FFC00
000000
F80F80
F80F80
F80F80
F80F80
F80F80
F80F80
F80F80
F80F80
F80F80
F80F80
F80F80
F80F80
F80F80
F80F80
F80F80
F80F80
F80F80
F80F80
F80F80
F80F80
7C1F00
7E3F00
3FFE00
1FFC00
07F800
ENDCHAR
STARTCHAR umacron
ENCODING 363
SWIDTH 602 0
DWIDTH 20 0
BBX 16 22 2 0
BITMAP
1FF8
1FF8
1FF8
0000
F81F
F81F
F81F
F81F
F81F
F81F
F81F
F81F
F81F
F81F
F81F
F83F
F87F
FFFF
FFFF
7FDF
7F9F
1F1F
ENDCHAR
STARTCHAR Ubreve
ENCODING 364
SWIDTH 602 0
DWIDTH 20 0
BBX 17 31 2 0
BITMAP
0E1C00
0F3C00
07F800
07F800
03F000
000000
F80F80
F80F80
F80F80
F80F80
F80F80
F80F80
F80F80
F80F80
F80F80
F80F80
F80F80
F80F80
F80F80
F80F80
F80F80
F80F80
F80F80
F80F80
F80F80
F80F80
7C1F00
7E3F00
3FFE00
1FFC00
07F800
ENDCHAR
STARTCHAR ubreve
ENCODING 365
SWIDTH 602 0
DWIDTH 20 0
BBX 16 24 2 0
BITMAP
1C38
1E78
0FF0
0FF0
07E0
0000
F81F
F81F
F81F
F81F
F81F
F81F
F81F
F81F
F81F
F81F
F81F
F83F
F87F
FFFF
FFFF
7FDF
7F9F
1F1F
ENDCHAR
STARTCHAR Uring
ENCODING 366
SWIDTH 602 0
DWIDTH 20 0
BBX 17 31 2 0
BITMAP
01C000
036000
022000
036000
01C000
000000
F80F80
F80F80
F80F80
F80F80
F80F80
F80F80
F80F80
F80F80
F80F80
F80F80
F80F80
F80F80
F80F80
F80F80
F80F80
F80F80
F80F80
F80F80
F80F80
F80F80
7C1F00
7E3F00
3FFE00
1FFC00
07F800
ENDCHAR
STARTCHAR uring
ENCODING 367
SWIDTH 602 0
DWIDTH 20 0
BBX 16 24 2 0
BITMAP
01C0
0360
0220
0360
01C0
0000
F81F
F81F
F81F
F81F
F81F
F81F
F81F
F81F
F81F
F81F
F81F
F83F
F87F
FFFF
FFFF
7FDF
7F9F
1F1F
ENDCHAR
STARTCHAR Uhungarumlaut
ENCODING 368
SWIDTH 602 0
DWIDTH 20 0
BBX 17 31 2 0
BITMAP
03DE00
039C00
073800
063000
0C6000
000000
F80F80
F80F80
F80F80
F80F80
F80F80
F80F80
F80F80
F80F80
F80F80
F80F80
F80F80
F80F80
F80F80
F80F80
F80F80
F80F80
F80F80
F80F80
F80F80
F80F80
7C1F00
7E3F00
3FFE00
1FFC00
07F800
ENDCHAR
STARTCHAR uhungarumlaut
ENCODING 369
SWIDTH 602 0
DWIDTH 20 0
BBX 16 24 2 0
BITMAP
03DE
039C
0738
0630
0C60
0000
F81F
F81F
F81F
F81F
F81F
F81F
F81F
F81F
F81F
F81F
F81F
F83F
F87F
FFFF
FFFF
7FDF
7F9F
1F1F
ENDCHAR
STARTCHAR Uogonek
ENCODING 370
SWIDTH 602 0
DWIDTH 20 0
BBX 17 32 2 -7
BITMAP
F80F80
F80F80
F80F80
F80F80
F80F80
F80F80
F80F80
F80F80
F80F80
F80F80
F80F80
F80F80
F80F80
F80F80
F80F80
F80F80
F80F80
F80F80
F80F80
F80F80
7C1F00
7E3F00
3FFE00
1FFC00
07F800
00E000
01C000
018000
038000
038000
03F000
01F000
ENDCHAR
STARTCHAR uogonek
ENCODING 371
SWIDTH 602 0
DWIDTH 20 0
BBX 16 25 2 -7
BITMAP
F81F
F81F
F81F
F81F
F81F
F81F
F81F
F81F
F81F
F81F
F81F
F83F
F87F
FFFF
FFFF
7FDF
7F9F
1F1F
01C0
0380
0300
0700
0700
07E0
03E0
ENDCHAR
STARTCHAR Wcircumflex
ENCODING 372
SWIDTH 602 0
DWIDTH 20 0
BBX 20 31 0 0
BITMAP
00F000
01F800
03FC00
039C00
079E00
000000
F80070
F80070
F87870
F8F870
7CF8E0
7CF8E0
7CFCE0
7CFCE0
7DFCE0
7DFCE0
7DFCE0
7DFCE0
3DFFE0
3FBFC0
3FBFC0
3F9FC0
3F9FC0
3F9FC0
3F1FC0
3F1FC0
1F1FC0
1F1F80
1F0F80
1E0F80
1E0F80
ENDCHAR
STARTCHAR wcircumflex
ENCODING 373
SWIDTH 602 0
DWIDTH 20 0
BBX 20 24 0 0
BITMAP
01E000
03F000
07F800
073800
0F3C00
000000
F80070
F80070
F8F870
7CF8E0
7CF8E0
7CFCE0
7DFCE0
7DFCE0
7DFCE0
3FDFC0
3F9FC0
3F9FC0
3F9FC0
3F0FC0
3F0FC0
1F0F80
1F0780
1E0780
ENDCHAR
STARTCHAR Ycircumflex
ENCODING 374
SWIDTH 602 0
DWIDTH 20 0
BBX 21 31 0 0
BITMAP
00F000
01F800
03FC00
039C00
079E00
000000
FC0078
7E00F0
7E00E0
3F01E0
3F01C0
1F83C0
0F8380
0FC780
07C700
07EE00
03EE00
03FC00
01FC00
01F800
00F800
00F800
00F800
00F800
00F800
00F800
00F800
00F800
00F800
00F800
00F800
ENDCHAR
STARTCHAR ycircumflex
ENCODING 375
SWIDTH 602 0
DWIDTH 20 0
BBX 19 31 1 -7
BITMAP
01E000
03F000
07F800
073800
0F3C00
000000
FC01E0
7C01C0
7C03C0
7E0380
3E0380
3F0700
1F0700
1F8F00
0F8E00
0FDE00
07DC00
07DC00
07F800
03F800
03F800
01F000
01F000
01E000
01E000
03C000
03C000
078000
7F8000
7F0000
7C0000
ENDCHAR
STARTCHAR Ydieresis
ENCODING 376
SWIDTH 602 0
DWIDTH 20 0
BBX 21 30 0 0
BITMAP
079E00
079E00
079E00
079E00
000000
FC0078
7E00F0
7E00E0
3F01E0
3F01C0
1F83C0
0F8380
0FC780
07C700
07EE00
03EE00
03FC00
01FC00
01F800
00F800
00F800
00F800
00F800
00F800
00F800
00F800
00F800
00F800
00F800
00F800
ENDCHAR
STARTCHAR Zacute
ENCODING 377
SWIDTH 602 0
DWIDTH 20 0
BBX 17 31 1 0
BITMAP
003E00
007C00
007800
00F000
01E000
000000
7FFF80
7FFF80
7FFF80
001F80
003F00
003F00
007E00
007C00
00FC00
01F800
01F800
03F000
03E000
07E000
0FC000
0FC000
1F8000
1F0000
3F0000
7E0000
7E0000
FC0000
FFFF80
FFFF80
FFFF80
ENDCHAR
STARTCHAR zacute
ENCODING 378
SWIDTH 602 0
DWIDTH 20 0
BBX 17 24 2 0
BITMAP
007C00
00F800
00F000
01E000
03C000
000000
FFFF80
FFFF80
FFFF80
003F80
007F00
00FE00
01FC00
03F800
07F000
0FE000
1FC000
3F8000
7F0000
7E0000
FFFF80
FFFF80
FFFF80
FFFF80
ENDCHAR
STARTCHAR Zdotaccent
ENCODING 379
SWIDTH 602 0
DWIDTH 20 0
BBX 17 30 1 0
BITMAP
00F000
00F000
00F000
00F000
000000
7FFF80
7FFF80
7FFF80
001F80
003F00
003F00
007E00
007C00
00FC00
01F800
01F800
03F000
03E000
07E000
0FC000
0FC000
1F8000
1F0000
3F0000
7E0000
7E0000
FC0000
FFFF80
FFFF80
FFFF80
ENDCHAR
STARTCHAR zdotaccent
ENCODING 380
SWIDTH 602 0
DWIDTH 20 0
BBX 17 23 2 0
BITMAP
01E000
01E000
01E000
01E000
000000
FFFF80
FFFF80
FFFF80
003F80
007F00
00FE00
01FC00
03F800
07F000
0FE000
1FC000
3F8000
7F0000
7E0000
FFFF80
FFFF80
FFFF80
FFFF80
ENDCHAR
STARTCHAR Zcaron
ENCODING 381
SWIDTH 602 0
DWIDTH 20 0
BBX 17 31 1 0
BITMAP
0F3C00
073800
07F800
03F000
01E000
000000
7FFF80
7FFF80
7FFF80
001F80
003F00
003F00
007E00
007C00
00FC00
01F800
01F800
03F000
03E000
07E000
0FC000
0FC000
1F8000
1F0000
3F0000
7E0000
7E0000
FC0000
FFFF80
FFFF80
FFFF80
ENDCHAR
STARTCHAR zcaron
ENCODING 382
SWIDTH 602 0
DWIDTH 20 0
BBX 17 24 2 0
BITMAP
1E7800
0E7000
0FF000
07E000
03C000
000000
FFFF80
FFFF80
FFFF80
003F80
007F00
00FE00
01FC00
03F800
07F000
0FE000
1FC000
3F8000
7F0000
7E0000
FFFF80
FFFF80
FFFF80
FFFF80
ENDCHAR
STARTCHAR uni0186
ENCODING 390
SWIDTH 602 0
DWIDTH 20 0
BBX 19 25 1 0
BITMAP
1FE000
FFF800
FFFE00
FFFF00
E07F80
801F80
000FC0
0007C0
0007E0
0003E0
0003E0
0003E0
0003E0
0003E0
0003E0
0003E0
0003E0
0007C0
0007C0
000F80
001F80
C07F00
FFFE00
FFF800
7FE000
ENDCHAR
STARTCHAR uni0189
ENCODING 393
SWIDTH 602 0
DWIDTH 20 0
BBX 19 25 0 0
BITMAP
7FF800
7FFE00
7FFF00
7C3F80
7C0FC0
7C07C0
7C07C0
7C07E0
7C03E0
7C03E0
FFC3E0
FFC3E0
FFC3E0
7C03E0
7C03E0
7C03E0
7C03E0
7C07C0
7C07C0
7C07C0
7C0F80
7C3F00
7FFF00
7FFC00
7FF000
ENDCHAR
STARTCHAR uni018E
ENCODING 398
SWIDTH 602 0
DWIDTH 20 0
BBX 16 25 3 0
BITMAP
FFFF
FFFF
FFFF
001F
001F
001F
001F
001F
001F
001F
001F
001F
3FFF
3FFF
3FFF
001F
001F
001F
001F
001F
001F
001F
7FFF
7FFF
7FFF
ENDCHAR
STARTCHAR florin
ENCODING 402
SWIDTH 602 0
DWIDTH 20 0
BBX 15 31 3 -6
BITMAP
003E
00FE
01FE
03E2
03C0
07C0
07C0
07C0
0F80
0F80
0F80
7FF0
7FF0
7FF0
1F00
1F00
1F00
1F00
3E00
3E00
3E00
3E00
3E00
7E00
7C00
7C00
7C00
7C00
FC00
F800
F800
ENDCHAR
STARTCHAR uni0197
ENCODING 407
SWIDTH 602 0
DWIDTH 20 0
BBX 17 25 2 0
BITMAP
FFFF80
FFFF80
FFFF80
03E000
03E000
03E000
03E000
03E000
03E000
03E000
FFFF80
FFFF80
FFFF80
FFFF80
03E000
03E000
03E000
03E000
03E000
03E000
03E000
03E000
FFFF80
FFFF80
FFFF80
ENDCHAR
STARTCHAR uni019A
ENCODING 410
SWIDTH 602 0
DWIDTH 20 0
BBX 17 26 -1 0
BITMAP
3FFC00
3FFC00
3FFC00
007C00
007C00
007C00
007C00
007C00
007C00
007C00
007C00
FFFF80
FFFF80
FFFF80
FFFF80
007C00
007C00
007C00
007C00
007C00
007C00
007C00
007C00
007C00
007C00
007C00
ENDCHAR
STARTCHAR uni019D
ENCODING 413
SWIDTH 602 0
DWIDTH 20 0
BBX 25 32 -6 -7
BITMAP
00F80780
00FC0780
00FC0780
00FE0780
00FE0780
00FF0780
00FF0780
00FF8780
00FF8780
00FFC780
00F7C780
00F7E780
00F3E780
00F3F780
00F1F780
00F1FF80
00F0FF80
00F8FF80
00F87F80
00F87F80
00F83F80
00F83F80
00F81F80
00F81F80
00F80F80
00F80000
00F80000
00F80000
C1F00000
FFF00000
FFE00000
7F800000
ENDCHAR
STARTCHAR uni019F
ENCODING 415
SWIDTH 602 0
DWIDTH 20 0
BBX 20 25 0 0
BITMAP
01F800
0FFF00
1FFF80
3F0FC0
3E07C0
7C03E0
7C03E0
7801E0
F801F0
F801F0
FFFFF0
FFFFF0
FFFFF0
FFFFF0
F801F0
F801F0
F801F0
7801E0
7C03E0
7C03E0
3E07C0
3F0FC0
1FFF80
07FE00
01F800
ENDCHAR
STARTCHAR Ohorn
ENCODING 416
SWIDTH 602 0
DWIDTH 20 0
BBX 24 25 0 0
BITMAP
01F83F
0FFF3F
1FFFBF
3F0FFF
3E07FF
7C03FF
7C03EF
7801EF
F801FE
F801FE
F801F8
F801F0
F801F0
F801F0
F801F0
F801F0
F801F0
7801E0
7C03E0
7C03E0
3E07C0
3F0FC0
1FFF80
07FE00
01F800
ENDCHAR
STARTCHAR ohorn
ENCODING 417
SWIDTH 602 0
DWIDTH 20 0
BBX 23 18 1 0
BITMAP
03F87E
0FFE7E
1FFF7E
3E0FFE
7C07FE
7C07FE
F803FE
F803FE
F803FC
F803FC
F803F0
F803E0
7C07C0
7C07C0
3E0F80
1FFF00
0FFE00
03F800
ENDCHAR
STARTCHAR uni01A7
ENCODING 423
SWIDTH 602 0
DWIDTH 20 0
BBX 18 25 1 0
BITMAP
1FF800
3FFE00
3FFF80
301F80
0007C0
0007C0
0007C0
000FC0
003FC0
00FF80
03FF00
0FFE00
1FF800
3FE000
7F8000
FE0000
FC0000
F80000
F80000
FC0040
FE03C0
7FFFC0
3FFFC0
1FFFC0
03FF00
ENDCHAR
STARTCHAR uni01A8
ENCODING 424
SWIDTH 602 0
DWIDTH 20 0
BBX 16 18 2 0
BITMAP
3FE0
7FFC
7FFE
603E
001F
007F
01FF
0FFE
3FFC
7FF8
FFC0
FF00
F800
F800
FC03
7FFF
3FFF
07FC
ENDCHAR
STARTCHAR uni01AE
ENCODING 430
SWIDTH 602 0
DWIDTH 20 0
BBX 20 32 1 -7
BITMAP
FFFFE0
FFFFE0
FFFFE0
01F000
01F000
01F000
01F000
01F000
01F000
01F000
01F000
01F000
01F000
01F000
01F000
01F000
01F000
01F000
01F000
01F000
01F000
01F000
01F000
01F000
01F000
01F000
01F000
01F000
00F830
00FFF0
007FF0
001FE0
ENDCHAR
STARTCHAR Uhorn
ENCODING 431
SWIDTH 602 0
DWIDTH 20 0
BBX 21 25 2 0
BITMAP
F80FF8
F80FF8
F80FF8
F80FF8
F80FF8
F80FF8
F80FF8
F80FF8
F80FF0
F80FF0
F80FC0
F80F80
F80F80
F80F80
F80F80
F80F80
F80F80
F80F80
F80F80
F80F80
7C1F00
7E3F00
3FFE00
1FFC00
07F800
ENDCHAR
STARTCHAR uhorn
ENCODING 432
SWIDTH 602 0
DWIDTH 20 0
BBX 21 18 2 0
BITMAP
F81FF8
F81FF8
F81FF8
F81FF8
F81FF8
F81FF8
F81F78
F81F78
F81FF0
F81FF0
F81FC0
F83F00
F87F00
FFFF00
FFFF00
7FDF00
7F9F00
1F1F00
ENDCHAR
STARTCHAR uni01B5
ENCODING 437
SWIDTH 602 0
DWIDTH 20 0
BBX 17 25 1 0
BITMAP
7FFF80
7FFF80
7FFF80
001F80
003F00
003F00
007E00
007C00
00FC00
01F800
FFFF80
FFFF80
FFFF80
FFFF80
0FC000
0FC000
1F8000
1F0000
3F0000
7E0000
7E0000
FC0000
FFFF80
FFFF80
FFFF80
ENDCHAR
STARTCHAR uni01B6
ENCODING 438
SWIDTH 602 0
DWIDTH 20 0
BBX 17 18 2 0
BITMAP
FFFF80
FFFF80
FFFF80
003F80
007F00
00FE00
01FC00
FFFF80
FFFF80
FFFF80
FFFF80
3F8000
7F0000
7E0000
FFFF80
FFFF80
FFFF80
FFFF80
ENDCHAR
STARTCHAR uni01BB
ENCODING 443
SWIDTH 602 0
DWIDTH 20 0
BBX 15 25 3 0
BITMAP
1FC0
7FF0
7FF8
7FFC
40FE
007E
003E
003E
003E
003C
FFFE
FFFE
FFFE
FFFE
03C0
0780
0F00
1E00
3C00
7C00
F800
FFFE
FFFE
FFFE
FFFE
ENDCHAR
STARTCHAR uni01BC
ENCODING 444
SWIDTH 602 0
DWIDTH 20 0
BBX 13 25 4 0
BITMAP
FFF8
FFF8
FFF8
FFF8
F000
F000
F000
E000
E000
FC00
FF80
FFC0
0FE0
03F0
01F8
00F8
00F8
00F8
00F8
00F8
01F0
83F0
FFE0
FFC0
7F00
ENDCHAR
STARTCHAR uni01C0
ENCODING 448
SWIDTH 602 0
DWIDTH 20 0
BBX 4 32 8 -6
BITMAP
F0
F0
F0
F0
F0
F0
F0
F0
F0
F0
F0
F0
F0
F0
F0
F0
F0
F0
F0
F0
F0
F0
F0
F0
F0
F0
F0
F0
F0
F0
F0
F0
ENDCHAR
STARTCHAR uni01C2
ENCODING 450
SWIDTH 602 0
DWIDTH 20 0
BBX 18 32 1 -7
BITMAP
01E000
01E000
01E000
01E000
01E000
01E000
01E000
01E000
01E000
01E000
FFFFC0
FFFFC0
FFFFC0
FFFFC0
01E000
01E000
01E000
01E000
FFFFC0
FFFFC0
FFFFC0
FFFFC0
01E000
01E000
01E000
01E000
01E000
01E000
01E000
01E000
01E000
01E000
ENDCHAR
STARTCHAR uni01C3
ENCODING 451
SWIDTH 602 0
DWIDTH 20 0
BBX 5 25 8 0
BITMAP
F8
F8
F8
F8
F8
F8
F8
F8
F8
F8
F8
70
70
70
70
70
70
00
00
00
00
F8
F8
F8
F8
ENDCHAR
STARTCHAR uni01CD
ENCODING 461
SWIDTH 602 0
DWIDTH 20 0
BBX 20 31 0 0
BITMAP
079E00
039C00
03FC00
01F800
00F000
000000
00F800
00F800
01FC00
01FC00
01FC00
03FE00
03BE00
03BE00
07BE00
073F00
071F00
071F00
0E1F80
0E0F80
0E0F80
1C0F80
1FFFC0
1FFFC0
3FFFC0
3807C0
3803E0
7003E0
7003E0
7003F0
E001F0
ENDCHAR
STARTCHAR uni01CE
ENCODING 462
SWIDTH 602 0
DWIDTH 20 0
BBX 18 24 1 0
BITMAP
0F3C00
073800
07F800
03F000
01E000
000000
0FF000
3FFC00
3FFE00
307F00
201F00
001F00
001F00
0FFF00
3FFF00
7FFF00
FC1F00
F81F00
F81F00
FC7F00
FFFFC0
7FFFC0
3FCFC0
1F87C0
ENDCHAR
STARTCHAR uni01CF
ENCODING 463
SWIDTH 602 0
DWIDTH 20 0
BBX 17 31 2 0
BITMAP
0F3C00
073800
07F800
03F000
01E000
000000
FFFF80
FFFF80
FFFF80
03E000
03E000
03E000
03E000
03E000
03E000
03E000
03E000
03E000
03E000
03E000
03E000
03E000
03E000
03E000
03E000
03E000
03E000
03E000
FFFF80
FFFF80
FFFF80
ENDCHAR
STARTCHAR uni01D0
ENCODING 464
SWIDTH 602 0
DWIDTH 20 0
BBX 12 24 3 0
BITMAP
3CF0
1CE0
1FE0
0FC0
0780
0000
FFF0
FFF0
FFF0
01F0
01F0
01F0
01F0
01F0
01F0
01F0
01F0
01F0
01F0
01F0
01F0
01F0
01F0
01F0
ENDCHAR
STARTCHAR uni01D1
ENCODING 465
SWIDTH 602 0
DWIDTH 20 0
BBX 20 31 0 0
BITMAP
079E00
039C00
03FC00
01F800
00F000
000000
01F800
0FFF00
1FFF80
3F0FC0
3E07C0
7C03E0
7C03E0
7801E0
F801F0
F801F0
F801F0
F801F0
F801F0
F801F0
F801F0
F801F0
F801F0
7801E0
7C03E0
7C03E0
3E07C0
3F0FC0
1FFF80
07FE00
01F800
ENDCHAR
STARTCHAR uni01D2
ENCODING 466
SWIDTH 602 0
DWIDTH 20 0
BBX 19 24 1 0
BITMAP
079E00
039C00
03FC00
01F800
00F000
000000
03F800
0FFE00
1FFF00
3E0F80
7C07C0
7C07C0
F803E0
F803E0
F803E0
F803E0
F803E0
F803E0
7C07C0
7C07C0
3E0F80
1FFF00
0FFE00
03F800
ENDCHAR
STARTCHAR uni01D3
ENCODING 467
SWIDTH 602 0
DWIDTH 20 0
BBX 17 31 2 0
BITMAP
0F3C00
073800
07F800
03F000
01E000
000000
F80F80
F80F80
F80F80
F80F80
F80F80
F80F80
F80F80
F80F80
F80F80
F80F80
F80F80
F80F80
F80F80
F80F80
F80F80
F80F80
F80F80
F80F80
F80F80
F80F80
7C1F00
7E3F00
3FFE00
1FFC00
07F800
ENDCHAR
STARTCHAR uni01D4
ENCODING 468
SWIDTH 602 0
DWIDTH 20 0
BBX 16 24 2 0
BITMAP
1E78
0E70
0FF0
07E0
03C0
0000
F81F
F81F
F81F
F81F
F81F
F81F
F81F
F81F
F81F
F81F
F81F
F83F
F87F
FFFF
FFFF
7FDF
7F9F
1F1F
ENDCHAR
STARTCHAR uni01D5
ENCODING 469
SWIDTH 602 0
DWIDTH 20 0
BBX 17 34 2 0
BITMAP
1FF800
1FF800
1FF800
000000
1E7800
1E7800
1E7800
1E7800
000000
F80F80
F80F80
F80F80
F80F80
F80F80
F80F80
F80F80
F80F80
F80F80
F80F80
F80F80
F80F80
F80F80
F80F80
F80F80
F80F80
F80F80
F80F80
F80F80
F80F80
7C1F00
7E3F00
3FFE00
1FFC00
07F800
ENDCHAR
STARTCHAR uni01D6
ENCODING 470
SWIDTH 602 0
DWIDTH 20 0
BBX 16 27 2 0
BITMAP
1FF8
1FF8
1FF8
0000
1E78
1E78
1E78
1E78
0000
F81F
F81F
F81F
F81F
F81F
F81F
F81F
F81F
F81F
F81F
F81F
F83F
F87F
FFFF
FFFF
7FDF
7F9F
1F1F
ENDCHAR
STARTCHAR uni01D7
ENCODING 471
SWIDTH 602 0
DWIDTH 20 0
BBX 17 36 2 0
BITMAP
00F800
01F000
01E000
03C000
078000
000000
1E7800
1E7800
1E7800
1E7800
000000
F80F80
F80F80
F80F80
F80F80
F80F80
F80F80
F80F80
F80F80
F80F80
F80F80
F80F80
F80F80
F80F80
F80F80
F80F80
F80F80
F80F80
F80F80
F80F80
F80F80
7C1F00
7E3F00
3FFE00
1FFC00
07F800
ENDCHAR
STARTCHAR uni01D8
ENCODING 472
SWIDTH 602 0
DWIDTH 20 0
BBX 16 29 2 0
BITMAP
00F8
01F0
01E0
03C0
0780
0000
1E78
1E78
1E78
1E78
0000
F81F
F81F
F81F
F81F
F81F
F81F
F81F
F81F
F81F
F81F
F81F
F83F
F87F
FFFF
FFFF
7FDF
7F9F
1F1F
ENDCHAR
STARTCHAR uni01D9
ENCODING 473
SWIDTH 602 0
DWIDTH 20 0
BBX 17 36 2 0
BITMAP
1E7800
0E7000
0FF000
07E000
03C000
000000
1E7800
1E7800
1E7800
1E7800
000000
F80F80
F80F80
F80F80
F80F80
F80F80
F80F80
F80F80
F80F80
F80F80
F80F80
F80F80
F80F80
F80F80
F80F80
F80F80
F80F80
F80F80
F80F80
F80F80
F80F80
7C1F00
7E3F00
3FFE00
1FFC00
07F800
ENDCHAR
STARTCHAR uni01DA
ENCODING 474
SWIDTH 602 0
DWIDTH 20 0
BBX 16 29 2 0
BITMAP
1E78
0E70
0FF0
07E0
03C0
0000
1E78
1E78
1E78
1E78
0000
F81F
F81F
F81F
F81F
F81F
F81F
F81F
F81F
F81F
F81F
F81F
F83F
F87F
FFFF
FFFF
7FDF
7F9F
1F1F
ENDCHAR
STARTCHAR uni01DB
ENCODING 475
SWIDTH 602 0
DWIDTH 20 0
BBX 17 36 2 0
BITMAP
1F0000
0F8000
078000
03C000
01E000
000000
1E7800
1E7800
1E7800
1E7800
000000
F80F80
F80F80
F80F80
F80F80
F80F80
F80F80
F80F80
F80F80
F80F80
F80F80
F80F80
F80F80
F80F80
F80F80
F80F80
F80F80
F80F80
F80F80
F80F80
F80F80
7C1F00
7E3F00
3FFE00
1FFC00
07F800
ENDCHAR
STARTCHAR uni01DC
ENCODING 476
SWIDTH 602 0
DWIDTH 20 0
BBX 16 29 2 0
BITMAP
1F00
0F80
0780
03C0
01E0
0000
1E78
1E78
1E78
1E78
0000
F81F
F81F
F81F
F81F
F81F
F81F
F81F
F81F
F81F
F81F
F81F
F83F
F87F
FFFF
FFFF
7FDF
7F9F
1F1F
ENDCHAR
STARTCHAR uni01DD
ENCODING 477
SWIDTH 602 0
DWIDTH 20 0
BBX 18 18 1 0
BITMAP
1FF000
FFFC00
FFFE00
FFFF00
C03F80
000F80
0007C0
0007C0
FFFFC0
FFFFC0
FFFFC0
F807C0
F80F80
780F80
7C1F00
3FFE00
1FFC00
07F000
ENDCHAR
STARTCHAR uni01DE
ENCODING 478
SWIDTH 602 0
DWIDTH 20 0
BBX 20 34 0 0
BITMAP
07FE00
07FE00
07FE00
000000
079E00
079E00
079E00
079E00
000000
00F800
00F800
01FC00
01FC00
01FC00
03FE00
03BE00
03BE00
07BE00
073F00
071F00
071F00
0E1F80
0E0F80
0E0F80
1C0F80
1FFFC0
1FFFC0
3FFFC0
3807C0
3803E0
7003E0
7003E0
7003F0
E001F0
ENDCHAR
STARTCHAR uni01DF
ENCODING 479
SWIDTH 602 0
DWIDTH 20 0
BBX 18 27 1 0
BITMAP
0FFC00
0FFC00
0FFC00
000000
0F3C00
0F3C00
0F3C00
0F3C00
000000
0FF000
3FFC00
3FFE00
307F00
201F00
001F00
001F00
0FFF00
3FFF00
7FFF00
FC1F00
F81F00
F81F00
FC7F00
FFFFC0
7FFFC0
3FCFC0
1F87C0
ENDCHAR
STARTCHAR uni01E0
ENCODING 480
SWIDTH 602 0
DWIDTH 20 0
BBX 20 34 0 0
BITMAP
07FE00
07FE00
07FE00
000000
00F000
00F000
00F000
00F000
000000
00F800
00F800
01FC00
01FC00
01FC00
03FE00
03BE00
03BE00
07BE00
073F00
071F00
071F00
0E1F80
0E0F80
0E0F80
1C0F80
1FFFC0
1FFFC0
3FFFC0
3807C0
3803E0
7003E0
7003E0
7003F0
E001F0
ENDCHAR
STARTCHAR uni01E1
ENCODING 481
SWIDTH 602 0
DWIDTH 20 0
BBX 18 27 1 0
BITMAP
0FFC00
0FFC00
0FFC00
000000
01E000
01E000
01E000
01E000
000000
0FF000
3FFC00
3FFE00
307F00
201F00
001F00
001F00
0FFF00
3FFF00
7FFF00
FC1F00
F81F00
F81F00
FC7F00
FFFFC0
7FFFC0
3FCFC0
1F87C0
ENDCHAR
STARTCHAR uni01E2
ENCODING 482
SWIDTH 602 0
DWIDTH 20 0
BBX 20 29 0 0
BITMAP
01FF80
01FF80
01FF80
000000
007FF0
007FF0
007FF0
00FE00
00FE00
00FE00
01FE00
01FE00
03BE00
03BE00
03BFE0
073FE0
073FE0
0F3E00
0E3E00
0E3E00
1E3E00
1C3E00
1FFE00
3FFE00
3FFE00
703E00
703FF0
603FF0
E03FF0
ENDCHAR
STARTCHAR uni01E3
ENCODING 483
SWIDTH 602 0
DWIDTH 20 0
BBX 19 22 1 0
BITMAP
07FE00
07FE00
07FE00
000000
1F8F00
3FFF80
3FFFC0
20F3C0
00F3C0
00F3E0
00F3E0
0FFFE0
3FFFE0
7FFFE0
FCF000
F8F000
F8F000
F9F820
FFFFE0
7FFFE0
7F3FE0
1E1F80
ENDCHAR
STARTCHAR uni01E4
ENCODING 484
SWIDTH 602 0
DWIDTH 20 0
BBX 25 25 1 0
BITMAP
00FF8000
07FFE000
0FFFE000
1FC0E000
3F002000
3E000000
7C000000
7C000000
F8000000
F8000000
F8000000
F8000000
F803E000
F803E000
F803E000
F803E000
FC03E000
7CFFFF80
7EFFFF80
3FFFFF80
3FFFFF80
1FFFE000
0FFFE000
07FFE000
00FF0000
ENDCHAR
STARTCHAR uni01E5
ENCODING 485
SWIDTH 602 0
DWIDTH 20 0
BBX 17 25 2 -7
BITMAP
07C780
1FE780
3FFF80
7FFF80
7E3F80
FC0F80
F80F80
F80F80
F80F80
F80F80
F80F80
FC1F80
FC3F80
7FFF80
7FEF80
3FEF80
FFFF80
FFFF80
FFFF80
FFFF80
303F00
3FFF00
3FFE00
3FFC00
07F000
ENDCHAR
STARTCHAR Gcaron
ENCODING 486
SWIDTH 602 0
DWIDTH 20 0
BBX 19 31 1 0
BITMAP
079E00
039C00
03FC00
01F800
00F000
000000
00FF80
07FFE0
0FFFE0
1FC0E0
3F0020
3E0000
7C0000
7C0000
F80000
F80000
F80000
F80000
F803E0
F803E0
F803E0
F803E0
FC03E0
7C03E0
7E03E0
3F03E0
3FC3E0
1FFFE0
0FFFE0
07FFE0
00FF00
ENDCHAR
STARTCHAR gcaron
ENCODING 487
SWIDTH 602 0
DWIDTH 20 0
BBX 17 31 2 -7
BITMAP
0F3C00
073800
07F800
03F000
01E000
000000
07C780
1FE780
3FFF80
7FFF80
7E3F80
FC0F80
F80F80
F80F80
F80F80
F80F80
F80F80
FC1F80
FC3F80
7FFF80
7FEF80
3FEF80
1FCF80
0F8F80
000F80
001F00
303F00
3FFF00
3FFE00
3FFC00
07F000
ENDCHAR
STARTCHAR uni01E8
ENCODING 488
SWIDTH 602 0
DWIDTH 20 0
BBX 18 31 2 0
BITMAP
1E7800
0E7000
0FF000
07E000
03C000
000000
F807C0
F80700
F80F00
F81E00
F83C00
F83800
F87800
F8F000
F9E000
F9C000
FFC000
FFC000
FFC000
FFE000
FFF000
FBF000
F9F800
F8F800
F8FC00
F87E00
F87E00
F83F00
F81F80
F81F80
F80FC0
ENDCHAR
STARTCHAR uni01E9
ENCODING 489
SWIDTH 602 0
DWIDTH 20 0
BBX 17 32 3 0
BITMAP
F3C000
738000
7F8000
3F0000
1E0000
000000
F80000
F80000
F80000
F80000
F80000
F80000
F80000
F80000
F81E00
F83C00
F83800
F87800
F8F000
F8E000
F9E000
FBC000
FFE000
FBF000
FBF000
F9F800
F8FC00
F8FC00
F87E00
F83F00
F83F00
F81F80
ENDCHAR
STARTCHAR uni01EA
ENCODING 490
SWIDTH 602 0
DWIDTH 20 0
BBX 20 32 0 -7
BITMAP
01F800
0FFF00
1FFF80
3F0FC0
3E07C0
7C03E0
7C03E0
7801E0
F801F0
F801F0
F801F0
F801F0
F801F0
F801F0
F801F0
F801F0
F801F0
7801E0
7C03E0
7C03E0
3E07C0
3F0FC0
1FFF80
07FE00
01F800
007000
00E000
00C000
01C000
01C000
01F800
00F800
ENDCHAR
STARTCHAR uni01EB
ENCODING 491
SWIDTH 602 0
DWIDTH 20 0
BBX 19 25 1 -7
BITMAP
03F800
0FFE00
1FFF00
3E0F80
7C07C0
7C07C0
F803E0
F803E0
F803E0
F803E0
F803E0
F803E0
7C07C0
7C07C0
3E0F80
1FFF00
0FFE00
03F800
007000
00E000
00C000
01C000
01C000
01F800
00F800
ENDCHAR
STARTCHAR uni01EC
ENCODING 492
SWIDTH 602 0
DWIDTH 20 0
BBX 20 36 0 -7
BITMAP
07FE00
07FE00
07FE00
000000
01F800
0FFF00
1FFF80
3F0FC0
3E07C0
7C03E0
7C03E0
7801E0
F801F0
F801F0
F801F0
F801F0
F801F0
F801F0
F801F0
F801F0
F801F0
7801E0
7C03E0
7C03E0
3E07C0
3F0FC0
1FFF80
07FE00
01F800
007000
00E000
00C000
01C000
01C000
01F800
00F800
ENDCHAR
STARTCHAR uni01ED
ENCODING 493
SWIDTH 602 0
DWIDTH 20 0
BBX 19 29 1 -7
BITMAP
07FE00
07FE00
07FE00
000000
03F800
0FFE00
1FFF00
3E0F80
7C07C0
7C07C0
F803E0
F803E0
F803E0
F803E0
F803E0
F803E0
7C07C0
7C07C0
3E0F80
1FFF00
0FFE00
03F800
007000
00E000
00C000
01C000
01C000
01F800
00F800
ENDCHAR
STARTCHAR uni01F0
ENCODING 496
SWIDTH 602 0
DWIDTH 20 0
BBX 13 31 2 -7
BITMAP
1E78
0E70
0FF0
07E0
03C0
0000
3FF8
3FF8
3FF8
00F8
00F8
00F8
00F8
00F8
00F8
00F8
00F8
00F8
00F8
00F8
00F8
00F8
00F8
00F8
00F8
00F8
00F8
C1F0
FFF0
FFE0
7F80
ENDCHAR
STARTCHAR uni01F4
ENCODING 500
SWIDTH 602 0
DWIDTH 20 0
BBX 19 31 1 0
BITMAP
003E00
007C00
007800
00F000
01E000
000000
00FF80
07FFE0
0FFFE0
1FC0E0
3F0020
3E0000
7C0000
7C0000
F80000
F80000
F80000
F80000
F803E0
F803E0
F803E0
F803E0
FC03E0
7C03E0
7E03E0
3F03E0
3FC3E0
1FFFE0
0FFFE0
07FFE0
00FF00
ENDCHAR
STARTCHAR uni01F5
ENCODING 501
SWIDTH 602 0
DWIDTH 20 0
BBX 17 31 2 -7
BITMAP
007C00
00F800
00F000
01E000
03C000
000000
07C780
1FE780
3FFF80
7FFF80
7E3F80
FC0F80
F80F80
F80F80
F80F80
F80F80
F80F80
FC1F80
FC3F80
7FFF80
7FEF80
3FEF80
1FCF80
0F8F80
000F80
001F00
303F00
3FFF00
3FFE00
3FFC00
07F000
ENDCHAR
STARTCHAR uni01F8
ENCODING 504
SWIDTH 602 0
DWIDTH 20 0
BBX 17 31 2 0
BITMAP
1F0000
0F8000
078000
03C000
01E000
000000
F80780
FC0780
FC0780
FE0780
FE0780
FF0780
FF0780
FF8780
FF8780
FFC780
F7C780
F7E780
F3E780
F3F780
F1F780
F1FF80
F0FF80
F0FF80
F07F80
F07F80
F03F80
F03F80
F01F80
F01F80
F00F80
ENDCHAR
STARTCHAR uni01F9
ENCODING 505
SWIDTH 602 0
DWIDTH 20 0
BBX 16 24 2 0
BITMAP
1F00
0F80
0780
03C0
01E0
0000
F8F8
F9FC
FBFE
FFFF
FFFF
FE1F
FC1F
F81F
F81F
F81F
F81F
F81F
F81F
F81F
F81F
F81F
F81F
F81F
ENDCHAR
STARTCHAR Aringacute
ENCODING 506
SWIDTH 602 0
DWIDTH 20 0
BBX 20 37 0 0
BITMAP
003E00
007C00
007800
00F000
01E000
000000
007000
00D800
008800
00D800
007000
000000
00F800
00F800
01FC00
01FC00
01FC00
03FE00
03BE00
03BE00
07BE00
073F00
071F00
071F00
0E1F80
0E0F80
0E0F80
1C0F80
1FFFC0
1FFFC0
3FFFC0
3807C0
3803E0
7003E0
7003E0
7003F0
E001F0
ENDCHAR
STARTCHAR aringacute
ENCODING 507
SWIDTH 602 0
DWIDTH 20 0
BBX 18 30 1 0
BITMAP
007C00
00F800
00F000
01E000
03C000
000000
01C000
036000
022000
036000
01C000
000000
0FF000
3FFC00
3FFE00
307F00
201F00
001F00
001F00
0FFF00
3FFF00
7FFF00
FC1F00
F81F00
F81F00
FC7F00
FFFFC0
7FFFC0
3FCFC0
1F87C0
ENDCHAR
STARTCHAR AEacute
ENCODING 508
SWIDTH 602 0
DWIDTH 20 0
BBX 20 31 0 0
BITMAP
000F80
001F00
001E00
003C00
007800
000000
007FF0
007FF0
007FF0
00FE00
00FE00
00FE00
01FE00
01FE00
03BE00
03BE00
03BFE0
073FE0
073FE0
0F3E00
0E3E00
0E3E00
1E3E00
1C3E00
1FFE00
3FFE00
3FFE00
703E00
703FF0
603FF0
E03FF0
ENDCHAR
STARTCHAR aeacute
ENCODING 509
SWIDTH 602 0
DWIDTH 20 0
BBX 19 24 1 0
BITMAP
003E00
007C00
007800
00F000
01E000
000000
1F8F00
3FFF80
3FFFC0
20F3C0
00F3C0
00F3E0
00F3E0
0FFFE0
3FFFE0
7FFFE0
FCF000
F8F000
F8F000
F9F820
FFFFE0
7FFFE0
7F3FE0
1E1F80
ENDCHAR
STARTCHAR Oslashacute
ENCODING 510
SWIDTH 602 0
DWIDTH 20 0
BBX 20 31 0 0
BITMAP
001F00
003E00
003C00
007800
00F000
000000
01FCF0
0FFFE0
1FFFC0
3F0FC0
3E07C0
7C07E0
7C0FE0
780FE0
F81FF0
F83DF0
F839F0
F871F0
F8F1F0
F9E1F0
F9C1F0
FBC1F0
FF81F0
7F01E0
7F03E0
7E03E0
3E07C0
3F0FC0
3FFF80
7FFE00
F3F800
ENDCHAR
STARTCHAR oslashacute
ENCODING 511
SWIDTH 602 0
DWIDTH 20 0
BBX 19 24 1 0
BITMAP
003E00
007C00
007800
00F000
01E000
000000
03FFE0
0FFFC0
1FFF80
3F0F80
7C1FC0
7C1FC0
F83FE0
F87BE0
F8F3E0
F9E3E0
FBC3E0
FF83E0
7F07C0
7E07C0
3E1F80
3FFF00
7FFE00
FFF800
ENDCHAR
STARTCHAR uni0200
ENCODING 512
SWIDTH 602 0
DWIDTH 20 0
BBX 20 31 0 0
BITMAP
0F7800
073800
039C00
018C00
00C600
000000
00F800
00F800
01FC00
01FC00
01FC00
03FE00
03BE00
03BE00
07BE00
073F00
071F00
071F00
0E1F80
0E0F80
0E0F80
1C0F80
1FFFC0
1FFFC0
3FFFC0
3807C0
3803E0
7003E0
7003E0
7003F0
E001F0
ENDCHAR
STARTCHAR uni0201
ENCODING 513
SWIDTH 602 0
DWIDTH 20 0
BBX 18 24 1 0
BITMAP
1EF000
0E7000
073800
031800
018C00
000000
0FF000
3FFC00
3FFE00
307F00
201F00
001F00
001F00
0FFF00
3FFF00
7FFF00
FC1F00
F81F00
F81F00
FC7F00
FFFFC0
7FFFC0
3FCFC0
1F87C0
ENDCHAR
STARTCHAR uni0202
ENCODING 514
SWIDTH 602 0
DWIDTH 20 0
BBX 20 31 0 0
BITMAP
01F800
03FC00
03FC00
079E00
070E00
000000
00F800
00F800
01FC00
01FC00
01FC00
03FE00
03BE00
03BE00
07BE00
073F00
071F00
071F00
0E1F80
0E0F80
0E0F80
1C0F80
1FFFC0
1FFFC0
3FFFC0
3807C0
3803E0
7003E0
7003E0
7003F0
E001F0
ENDCHAR
STARTCHAR uni0203
ENCODING 515
SWIDTH 602 0
DWIDTH 20 0
BBX 18 24 1 0
BITMAP
03F000
07F800
07F800
0F3C00
0E1C00
000000
0FF000
3FFC00
3FFE00
307F00
201F00
001F00
001F00
0FFF00
3FFF00
7FFF00
FC1F00
F81F00
F81F00
FC7F00
FFFFC0
7FFFC0
3FCFC0
1F87C0
ENDCHAR
STARTCHAR uni0204
ENCODING 516
SWIDTH 602 0
DWIDTH 20 0
BBX 16 31 3 0
BITMAP
F780
7380
39C0
18C0
0C60
0000
FFFE
FFFE
FFFE
F800
F800
F800
F800
F800
F800
F800
FFFC
FFFC
FFFC
F800
F800
F800
F800
F800
F800
F800
F800
F800
FFFF
FFFF
FFFF
ENDCHAR
STARTCHAR uni0205
ENCODING 517
SWIDTH 602 0
DWIDTH 20 0
BBX 18 24 1 0
BITMAP
1EF000
0E7000
073800
031800
018C00
000000
03F800
0FFE00
1FFF00
3E0F80
7C0780
7C07C0
F807C0
FFFFC0
FFFFC0
FFFFC0
F80000
F80000
7C0000
7F00C0
3FFFC0
1FFFC0
0FFFC0
03FE00
ENDCHAR
STARTCHAR uni0206
ENCODING 518
SWIDTH 602 0
DWIDTH 20 0
BBX 16 31 3 0
BITMAP
0FC0
1FE0
1FE0
3CF0
3870
0000
FFFE
FFFE
FFFE
F800
F800
F800
F800
F800
F800
F800
FFFC
FFFC
FFFC
F800
F800
F800
F800
F800
F800
F800
F800
F800
FFFF
FFFF
FFFF
ENDCHAR
STARTCHAR uni0207
ENCODING 519
SWIDTH 602 0
DWIDTH 20 0
BBX 18 24 1 0
BITMAP
03F000
07F800
07F800
0F3C00
0E1C00
000000
03F800
0FFE00
1FFF00
3E0F80
7C0780
7C07C0
F807C0
FFFFC0
FFFFC0
FFFFC0
F80000
F80000
7C0000
7F00C0
3FFFC0
1FFFC0
0FFFC0
03FE00
ENDCHAR
STARTCHAR uni0208
ENCODING 520
SWIDTH 602 0
DWIDTH 20 0
BBX 17 31 2 0
BITMAP
3DE000
1CE000
0E7000
063000
031800
000000
FFFF80
FFFF80
FFFF80
03E000
03E000
03E000
03E000
03E000
03E000
03E000
03E000
03E000
03E000
03E000
03E000
03E000
03E000
03E000
03E000
03E000
03E000
03E000
FFFF80
FFFF80
FFFF80
ENDCHAR
STARTCHAR uni0209
ENCODING 521
SWIDTH 602 0
DWIDTH 20 0
BBX 12 24 3 0
BITMAP
F780
7380
39C0
18C0
0C60
0000
FFF0
FFF0
FFF0
01F0
01F0
01F0
01F0
01F0
01F0
01F0
01F0
01F0
01F0
01F0
01F0
01F0
01F0
01F0
ENDCHAR
STARTCHAR uni020A
ENCODING 522
SWIDTH 602 0
DWIDTH 20 0
BBX 17 31 2 0
BITMAP
03F000
07F800
07F800
0F3C00
0E1C00
000000
FFFF80
FFFF80
FFFF80
03E000
03E000
03E000
03E000
03E000
03E000
03E000
03E000
03E000
03E000
03E000
03E000
03E000
03E000
03E000
03E000
03E000
03E000
03E000
FFFF80
FFFF80
FFFF80
ENDCHAR
STARTCHAR uni020B
ENCODING 523
SWIDTH 602 0
DWIDTH 20 0
BBX 12 24 3 0
BITMAP
0FC0
1FE0
1FE0
3CF0
3870
0000
FFF0
FFF0
FFF0
01F0
01F0
01F0
01F0
01F0
01F0
01F0
01F0
01F0
01F0
01F0
01F0
01F0
01F0
01F0
ENDCHAR
STARTCHAR uni020C
ENCODING 524
SWIDTH 602 0
DWIDTH 20 0
BBX 20 31 0 0
BITMAP
0F7800
073800
039C00
018C00
00C600
000000
01F800
0FFF00
1FFF80
3F0FC0
3E07C0
7C03E0
7C03E0
7801E0
F801F0
F801F0
F801F0
F801F0
F801F0
F801F0
F801F0
F801F0
F801F0
7801E0
7C03E0
7C03E0
3E07C0
3F0FC0
1FFF80
07FE00
01F800
ENDCHAR
STARTCHAR uni020D
ENCODING 525
SWIDTH 602 0
DWIDTH 20 0
BBX 19 24 1 0
BITMAP
1EF000
0E7000
073800
031800
018C00
000000
03F800
0FFE00
1FFF00
3E0F80
7C07C0
7C07C0
F803E0
F803E0
F803E0
F803E0
F803E0
F803E0
7C07C0
7C07C0
3E0F80
1FFF00
0FFE00
03F800
ENDCHAR
STARTCHAR uni020E
ENCODING 526
SWIDTH 602 0
DWIDTH 20 0
BBX 20 31 0 0
BITMAP
01F800
03FC00
03FC00
079E00
070E00
000000
01F800
0FFF00
1FFF80
3F0FC0
3E07C0
7C03E0
7C03E0
7801E0
F801F0
F801F0
F801F0
F801F0
F801F0
F801F0
F801F0
F801F0
F801F0
7801E0
7C03E0
7C03E0
3E07C0
3F0FC0
1FFF80
07FE00
01F800
ENDCHAR
STARTCHAR uni020F
ENCODING 527
SWIDTH 602 0
DWIDTH 20 0
BBX 19 24 1 0
BITMAP
01F800
03FC00
03FC00
079E00
070E00
000000
03F800
0FFE00
1FFF00
3E0F80
7C07C0
7C07C0
F803E0
F803E0
F803E0
F803E0
F803E0
F803E0
7C07C0
7C07C0
3E0F80
1FFF00
0FFE00
03F800
ENDCHAR
STARTCHAR uni0210
ENCODING 528
SWIDTH 602 0
DWIDTH 20 0
BBX 18 31 2 0
BITMAP
7BC000
39C000
1CE000
0C6000
063000
000000
FFF000
FFFC00
FFFE00
F83F00
F81F00
F81F00
F81F00
F81F00
F83F00
F83E00
F8FE00
FFFC00
FFF800
FFF000
F9F000
F9F800
F8F800
F8FC00
F87E00
F87E00
F83F00
F83F00
F81F80
F81F80
F80FC0
ENDCHAR
STARTCHAR uni0211
ENCODING 529
SWIDTH 602 0
DWIDTH 20 0
BBX 15 24 4 0
BITMAP
7BC0
39C0
1CE0
0C60
0630
0000
F87E
F9FE
FBFE
FFFE
FFFE
FF0E
FE0E
FC00
F800
F800
F800
F800
F800
F800
F800
F800
F800
F800
ENDCHAR
STARTCHAR uni0212
ENCODING 530
SWIDTH 602 0
DWIDTH 20 0
BBX 18 31 2 0
BITMAP
07E000
0FF000
0FF000
1E7800
1C3800
000000
FFF000
FFFC00
FFFE00
F83F00
F81F00
F81F00
F81F00
F81F00
F83F00
F83E00
F8FE00
FFFC00
FFF800
FFF000
F9F000
F9F800
F8F800
F8FC00
F87E00
F87E00
F83F00
F83F00
F81F80
F81F80
F80FC0
ENDCHAR
STARTCHAR uni0213
ENCODING 531
SWIDTH 602 0
DWIDTH 20 0
BBX 15 24 4 0
BITMAP
07E0
0FF0
0FF0
1E78
1C38
0000
F87E
F9FE
FBFE
FFFE
FFFE
FF0E
FE0E
FC00
F800
F800
F800
F800
F800
F800
F800
F800
F800
F800
ENDCHAR
STARTCHAR uni0214
ENCODING 532
SWIDTH 602 0
DWIDTH 20 0
BBX 17 31 2 0
BITMAP
3DE000
1CE000
0E7000
063000
031800
000000
F80F80
F80F80
F80F80
F80F80
F80F80
F80F80
F80F80
F80F80
F80F80
F80F80
F80F80
F80F80
F80F80
F80F80
F80F80
F80F80
F80F80
F80F80
F80F80
F80F80
7C1F00
7E3F00
3FFE00
1FFC00
07F800
ENDCHAR
STARTCHAR uni0215
ENCODING 533
SWIDTH 602 0
DWIDTH 20 0
BBX 16 24 2 0
BITMAP
3DE0
1CE0
0E70
0630
0318
0000
F81F
F81F
F81F
F81F
F81F
F81F
F81F
F81F
F81F
F81F
F81F
F83F
F87F
FFFF
FFFF
7FDF
7F9F
1F1F
ENDCHAR
STARTCHAR uni0216
ENCODING 534
SWIDTH 602 0
DWIDTH 20 0
BBX 17 31 2 0
BITMAP
03F000
07F800
07F800
0F3C00
0E1C00
000000
F80F80
F80F80
F80F80
F80F80
F80F80
F80F80
F80F80
F80F80
F80F80
F80F80
F80F80
F80F80
F80F80
F80F80
F80F80
F80F80
F80F80
F80F80
F80F80
F80F80
7C1F00
7E3F00
3FFE00
1FFC00
07F800
ENDCHAR
STARTCHAR uni0217
ENCODING 535
SWIDTH 602 0
DWIDTH 20 0
BBX 16 24 2 0
BITMAP
07E0
0FF0
0FF0
1E78
1C38
0000
F81F
F81F
F81F
F81F
F81F
F81F
F81F
F81F
F81F
F81F
F81F
F83F
F87F
FFFF
FFFF
7FDF
7F9F
1F1F
ENDCHAR
STARTCHAR Scommaaccent
ENCODING 536
SWIDTH 602 0
DWIDTH 20 0
BBX 18 38 1 -13
BITMAP
07FE00
1FFF00
7FFF00
7E0300
F80000
F80000
F80000
FC0000
FF0000
7FC000
3FF000
1FFC00
07FE00
01FF00
007F80
001FC0
000FC0
0007C0
0007C0
800FC0
F01FC0
FFFF80
FFFF00
FFFE00
3FF000
000000
03F000
03F000
03F000
03F000
03F000
03F000
00F000
00F000
00F000
01E000
03E000
038000
ENDCHAR
STARTCHAR scommaaccent
ENCODING 537
SWIDTH 602 0
DWIDTH 20 0
BBX 16 31 2 -13
BITMAP
07FC
3FFE
7FFE
7C06
F800
FE00
FF80
7FF0
3FFC
1FFE
03FF
00FF
001F
001F
C03F
FFFE
FFFC
3FE0
0000
07E0
07E0
07E0
07E0
07E0
07E0
01E0
01E0
01E0
03C0
07C0
0700
ENDCHAR
STARTCHAR Tcommaaccent
ENCODING 538
SWIDTH 602 0
DWIDTH 20 0
BBX 19 38 1 -13
BITMAP
FFFFE0
FFFFE0
FFFFE0
01F000
01F000
01F000
01F000
01F000
01F000
01F000
01F000
01F000
01F000
01F000
01F000
01F000
01F000
01F000
01F000
01F000
01F000
01F000
01F000
01F000
01F000
000000
01F800
01F800
01F800
01F800
01F800
01F800
007800
007800
007800
00F000
01F000
01C000
ENDCHAR
STARTCHAR tcommaaccent
ENCODING 539
SWIDTH 602 0
DWIDTH 20 0
BBX 16 36 2 -13
BITMAP
0380
0F80
0F80
0F80
0F80
FFFF
FFFF
FFFF
0F80
0F80
0F80
0F80
0F80
0F80
0F80
0F80
0F80
0F80
0FC1
07FF
07FF
03FF
00FC
0000
03F0
03F0
03F0
03F0
03F0
03F0
00F0
00F0
00F0
01E0
03E0
0380
ENDCHAR
STARTCHAR uni021E
ENCODING 542
SWIDTH 602 0
DWIDTH 20 0
BBX 17 31 2 0
BITMAP
0F3C00
073800
07F800
03F000
01E000
000000
F80F80
F80F80
F80F80
F80F80
F80F80
F80F80
F80F80
F80F80
F80F80
F80F80
FFFF80
FFFF80
FFFF80
F80F80
F80F80
F80F80
F80F80
F80F80
F80F80
F80F80
F80F80
F80F80
F80F80
F80F80
F80F80
ENDCHAR
STARTCHAR uni021F
ENCODING 543
SWIDTH 602 0
DWIDTH 20 0
BBX 17 32 1 0
BITMAP
F3C000
738000
7F8000
3F0000
1E0000
000000
7C0000
7C0000
7C0000
7C0000
7C0000
7C0000
7C0000
7C0000
7C7C00
7CFE00
7DFF00
7FFF80
7FFF80
7F0F80
7E0F80
7C0F80
7C0F80
7C0F80
7C0F80
7C0F80
7C0F80
7C0F80
7C0F80
7C0F80
7C0F80
7C0F80
ENDCHAR
STARTCHAR uni0226
ENCODING 550
SWIDTH 602 0
DWIDTH 20 0
BBX 20 30 0 0
BITMAP
00F000
00F000
00F000
00F000
000000
00F800
00F800
01FC00
01FC00
01FC00
03FE00
03BE00
03BE00
07BE00
073F00
071F00
071F00
0E1F80
0E0F80
0E0F80
1C0F80
1FFFC0
1FFFC0
3FFFC0
3807C0
3803E0
7003E0
7003E0
7003F0
E001F0
ENDCHAR
STARTCHAR uni0227
ENCODING 551
SWIDTH 602 0
DWIDTH 20 0
BBX 18 23 1 0
BITMAP
01E000
01E000
01E000
01E000
000000
0FF000
3FFC00
3FFE00
307F00
201F00
001F00
001F00
0FFF00
3FFF00
7FFF00
FC1F00
F81F00
F81F00
FC7F00
FFFFC0
7FFFC0
3FCFC0
1F87C0
ENDCHAR
STARTCHAR uni0228
ENCODING 552
SWIDTH 602 0
DWIDTH 20 0
BBX 16 32 3 -7
BITMAP
FFFE
FFFE
FFFE
F800
F800
F800
F800
F800
F800
F800
FFFC
FFFC
FFFC
F800
F800
F800
F800
F800
F800
F800
F800
F800
FFFF
FFFF
FFFF
0300
0700
07C0
01E0
08E0
0FE0
0FC0
ENDCHAR
STARTCHAR uni0229
ENCODING 553
SWIDTH 602 0
DWIDTH 20 0
BBX 18 25 1 -7
BITMAP
03F800
0FFE00
1FFF00
3E0F80
7C0780
7C07C0
F807C0
FFFFC0
FFFFC0
FFFFC0
F80000
F80000
7C0000
7F00C0
3FFFC0
1FFFC0
0FFFC0
03FE00
006000
00E000
00F800
003C00
011C00
01FC00
01F800
ENDCHAR
STARTCHAR uni022A
ENCODING 554
SWIDTH 602 0
DWIDTH 20 0
BBX 20 34 0 0
BITMAP
07FE00
07FE00
07FE00
000000
079E00
079E00
079E00
079E00
000000
01F800
0FFF00
1FFF80
3F0FC0
3E07C0
7C03E0
7C03E0
7801E0
F801F0
F801F0
F801F0
F801F0
F801F0
F801F0
F801F0
F801F0
F801F0
7801E0
7C03E0
7C03E0
3E07C0
3F0FC0
1FFF80
07FE00
01F800
ENDCHAR
STARTCHAR uni022B
ENCODING 555
SWIDTH 602 0
DWIDTH 20 0
BBX 19 27 1 0
BITMAP
0FFC00
0FFC00
0FFC00
000000
0F3C00
0F3C00
0F3C00
0F3C00
000000
03F800
0FFE00
1FFF00
3E0F80
7C07C0
7C07C0
F803E0
F803E0
F803E0
F803E0
F803E0
F803E0
7C07C0
7C07C0
3E0F80
1FFF00
0FFE00
03F800
ENDCHAR
STARTCHAR uni022C
ENCODING 556
SWIDTH 602 0
DWIDTH 20 0
BBX 20 35 0 0
BITMAP
07FE00
07FE00
07FE00
000000
03C600
03FE00
07FE00
07FC00
063C00
000000
01F800
0FFF00
1FFF80
3F0FC0
3E07C0
7C03E0
7C03E0
7801E0
F801F0
F801F0
F801F0
F801F0
F801F0
F801F0
F801F0
F801F0
F801F0
7801E0
7C03E0
7C03E0
3E07C0
3F0FC0
1FFF80
07FE00
01F800
ENDCHAR
STARTCHAR uni022D
ENCODING 557
SWIDTH 602 0
DWIDTH 20 0
BBX 19 28 1 0
BITMAP
07FE00
07FE00
07FE00
000000
03C600
03FE00
07FE00
07FC00
063C00
000000
03F800
0FFE00
1FFF00
3E0F80
7C07C0
7C07C0
F803E0
F803E0
F803E0
F803E0
F803E0
F803E0
7C07C0
7C07C0
3E0F80
1FFF00
0FFE00
03F800
ENDCHAR
STARTCHAR uni022E
ENCODING 558
SWIDTH 602 0
DWIDTH 20 0
BBX 20 30 0 0
BITMAP
00F000
00F000
00F000
00F000
000000
01F800
0FFF00
1FFF80
3F0FC0
3E07C0
7C03E0
7C03E0
7801E0
F801F0
F801F0
F801F0
F801F0
F801F0
F801F0
F801F0
F801F0
F801F0
7801E0
7C03E0
7C03E0
3E07C0
3F0FC0
1FFF80
07FE00
01F800
ENDCHAR
STARTCHAR uni022F
ENCODING 559
SWIDTH 602 0
DWIDTH 20 0
BBX 19 23 1 0
BITMAP
00F000
00F000
00F000
00F000
000000
03F800
0FFE00
1FFF00
3E0F80
7C07C0
7C07C0
F803E0
F803E0
F803E0
F803E0
F803E0
F803E0
7C07C0
7C07C0
3E0F80
1FFF00
0FFE00
03F800
ENDCHAR
STARTCHAR uni0230
ENCODING 560
SWIDTH 602 0
DWIDTH 20 0
BBX 20 34 0 0
BITMAP
07FE00
07FE00
07FE00
000000
00F000
00F000
00F000
00F000
000000
01F800
0FFF00
1FFF80
3F0FC0
3E07C0
7C03E0
7C03E0
7801E0
F801F0
F801F0
F801F0
F801F0
F801F0
F801F0
F801F0
F801F0
F801F0
7801E0
7C03E0
7C03E0
3E07C0
3F0FC0
1FFF80
07FE00
01F800
ENDCHAR
STARTCHAR uni0231
ENCODING 561
SWIDTH 602 0
DWIDTH 20 0
BBX 19 27 1 0
BITMAP
07FE00
07FE00
07FE00
000000
00F000
00F000
00F000
00F000
000000
03F800
0FFE00
1FFF00
3E0F80
7C07C0
7C07C0
F803E0
F803E0
F803E0
F803E0
F803E0
F803E0
7C07C0
7C07C0
3E0F80
1FFF00
0FFE00
03F800
ENDCHAR
STARTCHAR uni0232
ENCODING 562
SWIDTH 602 0
DWIDTH 20 0
BBX 21 29 0 0
BITMAP
07FE00
07FE00
07FE00
000000
FC0078
7E00F0
7E00E0
3F01E0
3F01C0
1F83C0
0F8380
0FC780
07C700
07EE00
03EE00
03FC00
01FC00
01F800
00F800
00F800
00F800
00F800
00F800
00F800
00F800
00F800
00F800
00F800
00F800
ENDCHAR
STARTCHAR uni0233
ENCODING 563
SWIDTH 602 0
DWIDTH 20 0
BBX 19 29 1 -7
BITMAP
0FFC00
0FFC00
0FFC00
000000
FC01E0
7C01C0
7C03C0
7E0380
3E0380
3F0700
1F0700
1F8F00
0F8E00
0FDE00
07DC00
07DC00
07F800
03F800
03F800
01F000
01F000
01E000
01E000
03C000
03C000
078000
7F8000
7F0000
7C0000
ENDCHAR
STARTCHAR uni0250
ENCODING 592
SWIDTH 602 0
DWIDTH 20 0
BBX 18 18 1 0
BITMAP
F87E00
FCFF00
FFFF80
FFFFC0
3F8FC0
3E07C0
3E07C0
3E0FC0
3FFF80
3FFF00
3FFC00
3E0000
3E0000
3E0100
3F8300
1FFF00
0FFF00
03FC00
ENDCHAR
STARTCHAR uni0254
ENCODING 596
SWIDTH 602 0
DWIDTH 20 0
BBX 17 18 2 0
BITMAP
FFE000
FFF800
FFFC00
C07E00
001F00
001F00
000F80
000F80
000F80
000F80
000F80
001F80
003F00
C0FF00
FFFE00
FFFC00
FFF800
3FE000
ENDCHAR
STARTCHAR uni0258
ENCODING 600
SWIDTH 602 0
DWIDTH 20 0
BBX 18 18 1 0
BITMAP
07F000
1FFC00
3FFE00
7C1F00
780F80
F80F80
F807C0
FFFFC0
FFFFC0
FFFFC0
0007C0
0007C0
000F80
C03F80
FFFF00
FFFE00
FFFC00
1FF000
ENDCHAR
STARTCHAR uni0259
ENCODING 601
SWIDTH 602 0
DWIDTH 20 0
BBX 18 18 1 0
BITMAP
1FF000
FFFC00
FFFE00
FFFF00
C03F80
000F80
0007C0
0007C0
FFFFC0
FFFFC0
FFFFC0
F807C0
F80F80
780F80
7C1F00
3FFE00
1FFC00
07F000
ENDCHAR
STARTCHAR uni025F
ENCODING 607
SWIDTH 602 0
DWIDTH 20 0
BBX 17 26 3 -8
BITMAP
007C00
007C00
007C00
007C00
007C00
007C00
007C00
007C00
007C00
007C00
007C00
007C00
007C00
007C00
007C00
3FFF80
3FFF80
3FFF80
007C00
007C00
007C00
007C00
C0FC00
FFF800
FFF000
7FC000
ENDCHAR
STARTCHAR uni0265
ENCODING 613
SWIDTH 602 0
DWIDTH 20 0
BBX 16 26 2 -8
BITMAP
F81F
F81F
F81F
F81F
F81F
F81F
F81F
F81F
F81F
F81F
F81F
F83F
F87F
FFFF
FFFF
7FDF
3F9F
1F1F
001F
001F
001F
001F
001F
001F
001F
001F
ENDCHAR
STARTCHAR uni0275
ENCODING 629
SWIDTH 602 0
DWIDTH 20 0
BBX 19 18 1 0
BITMAP
03F800
0FFE00
1FFF00
3E0F80
7C07C0
7C07C0
F803E0
FFFFE0
FFFFE0
FFFFE0
FFFFE0
F803E0
7C07C0
7C07C0
3E0F80
1FFF00
0FFE00
03F800
ENDCHAR
STARTCHAR uni0279
ENCODING 633
SWIDTH 602 0
DWIDTH 20 0
BBX 15 18 4 0
BITMAP
003E
003E
003E
003E
003E
003E
003E
003E
003E
003E
007E
E0FE
E1FE
FFFE
FFFE
FFBE
FF3E
FC3E
ENDCHAR
STARTCHAR uni0287
ENCODING 647
SWIDTH 602 0
DWIDTH 20 0
BBX 16 23 2 0
BITMAP
3F00
FFC0
FFE0
FFE0
83F0
01F0
01F0
01F0
01F0
01F0
01F0
01F0
01F0
01F0
01F0
FFFF
FFFF
FFFF
01F0
01F0
01F0
01F0
01C0
ENDCHAR
STARTCHAR uni0288
ENCODING 648
SWIDTH 602 0
DWIDTH 20 0
BBX 17 30 2 -7
BITMAP
038000
0F8000
0F8000
0F8000
0F8000
FFFF00
FFFF00
FFFF00
0F8000
0F8000
0F8000
0F8000
0F8000
0F8000
0F8000
0F8000
0F8000
0F8000
0F8000
0F8000
0F8000
0F8000
0F8000
0F8000
0F8000
0F8000
07C180
07FF80
03FF80
00FF00
ENDCHAR
STARTCHAR uni0289
ENCODING 649
SWIDTH 602 0
DWIDTH 20 0
BBX 16 18 2 0
BITMAP
F81F
F81F
F81F
F81F
F81F
F81F
F81F
FFFF
FFFF
FFFF
FFFF
F83F
F87F
FFFF
FFFF
7FDF
7F9F
1F1F
ENDCHAR
STARTCHAR uni028C
ENCODING 652
SWIDTH 602 0
DWIDTH 20 0
BBX 19 18 1 0
BITMAP
01F000
01F800
03F800
03F800
03FC00
077C00
077E00
0F3E00
0E3E00
0E3F00
1C1F00
1C1F80
3C0F80
380F80
380FC0
7007C0
7007E0
F003E0
ENDCHAR
STARTCHAR uni028D
ENCODING 653
SWIDTH 602 0
DWIDTH 20 0
BBX 20 18 0 0
BITMAP
1E0780
1E0F80
1F0F80
3F0FC0
3F0FC0
3F9FC0
3F9FC0
3F9FC0
3FBFC0
73FBE0
73FBE0
73FBE0
73F3E0
71F3E0
71F3E0
E1F1F0
E001F0
E001F0
ENDCHAR
STARTCHAR uni028E
ENCODING 654
SWIDTH 602 0
DWIDTH 20 0
BBX 19 25 1 0
BITMAP
0007C0
001FC0
003FC0
003C00
007800
007800
00F000
00F000
01F000
01F000
03F800
03F800
03FC00
077C00
077C00
0F7E00
0E3E00
1E3F00
1C1F00
1C1F80
380F80
380FC0
7807C0
7007C0
F007E0
ENDCHAR
STARTCHAR uni029E
ENCODING 670
SWIDTH 602 0
DWIDTH 20 0
BBX 17 26 3 -8
BITMAP
FC0F80
7E0F80
7E0F80
3F0F80
1F8F80
1F8F80
0FCF80
07EF80
07EF80
03FF80
01EF80
03CF80
038F80
078F80
0F0F80
0E0F80
1E0F80
3C0F80
000F80
000F80
000F80
000F80
000F80
000F80
000F80
000F80
ENDCHAR
STARTCHAR uni02BB
ENCODING 699
SWIDTH 602 0
DWIDTH 20 0
BBX 6 11 7 15
BITMAP
1C
7C
78
F0
F0
FC
FC
FC
FC
FC
FC
ENDCHAR
STARTCHAR afii57929
ENCODING 700
SWIDTH 602 0
DWIDTH 20 0
BBX 6 11 7 15
BITMAP
FC
FC
FC
FC
FC
FC
3C
3C
78
F8
E0
ENDCHAR
STARTCHAR afii64937
ENCODING 701
SWIDTH 602 0
DWIDTH 20 0
BBX 6 11 7 15
BITMAP
FC
FC
FC
FC
FC
FC
F0
F0
78
7C
1C
ENDCHAR
STARTCHAR circumflex
ENCODING 710
SWIDTH 602 0
DWIDTH 20 0
BBX 10 5 5 21
BITMAP
1E00
3F00
7F80
7380
F3C0
ENDCHAR
STARTCHAR caron
ENCODING 711
SWIDTH 602 0
DWIDTH 20 0
BBX 10 5 5 21
BITMAP
F3C0
7380
7F80
3F00
1E00
ENDCHAR
STARTCHAR uni02C8
ENCODING 712
SWIDTH 602 0
DWIDTH 20 0
BBX 6 11 7 15
BITMAP
FC
FC
FC
F8
F8
F8
78
78
70
70
70
ENDCHAR
STARTCHAR macron
ENCODING 713
SWIDTH 602 0
DWIDTH 20 0
BBX 10 3 5 22
BITMAP
FFC0
FFC0
FFC0
ENDCHAR
STARTCHAR uni02CA
ENCODING 714
SWIDTH 602 0
DWIDTH 20 0
BBX 8 5 6 21
BITMAP
1F
3E
3C
78
F0
ENDCHAR
STARTCHAR uni02CB
ENCODING 715
SWIDTH 602 0
DWIDTH 20 0
BBX 8 5 6 21
BITMAP
F8
7C
3C
1E
0F
ENDCHAR
STARTCHAR uni02CD
ENCODING 717
SWIDTH 602 0
DWIDTH 20 0
BBX 10 3 5 -4
BITMAP
FFC0
FFC0
FFC0
ENDCHAR
STARTCHAR uni02CE
ENCODING 718
SWIDTH 602 0
DWIDTH 20 0
BBX 8 5 6 -6
BITMAP
F8
7C
3C
1E
0F
ENDCHAR
STARTCHAR uni02CF
ENCODING 719
SWIDTH 602 0
DWIDTH 20 0
BBX 8 5 6 -6
BITMAP
1F
3E
3C
78
F0
ENDCHAR
STARTCHAR breve
ENCODING 728
SWIDTH 602 0
DWIDTH 20 0
BBX 10 5 5 20
BITMAP
E1C0
F3C0
7F80
7F80
3F00
ENDCHAR
STARTCHAR dotaccent
ENCODING 729
SWIDTH 602 0
DWIDTH 20 0
BBX 4 4 8 21
BITMAP
F0
F0
F0
F0
ENDCHAR
STARTCHAR ring
ENCODING 730
SWIDTH 602 0
DWIDTH 20 0
BBX 5 5 8 21
BITMAP
70
D8
88
D8
70
ENDCHAR
STARTCHAR ogonek
ENCODING 731
SWIDTH 602 0
DWIDTH 20 0
BBX 6 7 7 -7
BITMAP
38
70
60
E0
E0
FC
7C
ENDCHAR
STARTCHAR tilde
ENCODING 732
SWIDTH 602 0
DWIDTH 20 0
BBX 10 5 5 20
BITMAP
78C0
7FC0
FFC0
FF80
C780
ENDCHAR
STARTCHAR hungarumlaut
ENCODING 733
SWIDTH 602 0
DWIDTH 20 0
BBX 11 5 6 21
BITMAP
3DE0
39C0
7380
6300
C600
ENDCHAR
STARTCHAR uni02EE
ENCODING 750
SWIDTH 602 0
DWIDTH 20 0
BBX 14 10 3 16
BITMAP
F87C
F87C
F87C
F87C
F87C
381C
381C
783C
F078
E070
ENDCHAR
STARTCHAR uni037E
ENCODING 894
SWIDTH 602 0
DWIDTH 20 0
BBX 5 24 8 -6
BITMAP
F8
F8
F8
F8
F8
00
00
00
00
00
00
00
F8
F8
F8
F8
F8
F8
78
78
78
70
F0
E0
ENDCHAR
STARTCHAR tonos
ENCODING 900
SWIDTH 602 0
DWIDTH 20 0
BBX 8 5 6 21
BITMAP
1F
3E
3C
78
F0
ENDCHAR
STARTCHAR dieresistonos
ENCODING 901
SWIDTH 602 0
DWIDTH 20 0
BBX 10 10 5 21
BITMAP
07C0
0F80
0F00
1E00
3C00
0000
F3C0
F3C0
F3C0
F3C0
ENDCHAR
STARTCHAR anoteleia
ENCODING 903
SWIDTH 602 0
DWIDTH 20 0
BBX 5 5 8 6
BITMAP
F8
F8
F8
F8
F8
ENDCHAR
STARTCHAR mu
ENCODING 956
SWIDTH 602 0
DWIDTH 20 0
BBX 16 24 2 -6
BITMAP
F81F
F81F
F81F
F81F
F81F
F81F
F81F
F81F
F81F
F81F
F81F
F83F
FC7F
FFFF
FFFF
FFFF
FFDF
FF9F
F800
F800
F800
F800
F800
F800
ENDCHAR
STARTCHAR uni1E00
ENCODING 7680
SWIDTH 602 0
DWIDTH 20 0
BBX 20 31 0 -6
BITMAP
00F800
00F800
01FC00
01FC00
01FC00
03FE00
03BE00
03BE00
07BE00
073F00
071F00
071F00
0E1F80
0E0F80
0E0F80
1C0F80
1FFFC0
1FFFC0
3FFFC0
3807C0
3803E0
7003E0
7003E0
7003F0
E001F0
000000
007000
00D800
008800
00D800
007000
ENDCHAR
STARTCHAR uni1E01
ENCODING 7681
SWIDTH 602 0
DWIDTH 20 0
BBX 18 24 1 -6
BITMAP
0FF000
3FFC00
3FFE00
307F00
201F00
001F00
001F00
0FFF00
3FFF00
7FFF00
FC1F00
F81F00
F81F00
FC7F00
FFFFC0
7FFFC0
3FCFC0
1F87C0
000000
00E000
01B000
011000
01B000
00E000
ENDCHAR
STARTCHAR uni1E02
ENCODING 7682
SWIDTH 602 0
DWIDTH 20 0
BBX 17 30 2 0
BITMAP
03C000
03C000
03C000
03C000
000000
FFF800
FFFE00
FFFE00
F83F00
F81F00
F81F00
F81F00
F81F00
F83E00
F87E00
FFF800
FFF000
FFF800
F87E00
F81F00
F81F00
F80F80
F80F80
F80F80
F80F80
F81F80
F83F00
FFFF00
FFFE00
FFF800
ENDCHAR
STARTCHAR uni1E03
ENCODING 7683
SWIDTH 602 0
DWIDTH 20 0
BBX 17 31 2 0
BITMAP
1E0000
1E0000
1E0000
1E0000
000000
F80000
F80000
F80000
F80000
F80000
F80000
F80000
F80000
F8F800
F9FC00
FBFE00
FFFF00
FFFF00
FE1F80
FC1F80
F80F80
F80F80
F80F80
F80F80
F80F80
F81F00
FC3F00
FFFF00
FFFE00
FFFC00
F1F000
ENDCHAR
STARTCHAR uni1E04
ENCODING 7684
SWIDTH 602 0
DWIDTH 20 0
BBX 17 30 2 -5
BITMAP
FFF800
FFFE00
FFFE00
F83F00
F81F00
F81F00
F81F00
F81F00
F83E00
F87E00
FFF800
FFF000
FFF800
F87E00
F81F00
F81F00
F80F80
F80F80
F80F80
F80F80
F81F80
F83F00
FFFF00
FFFE00
FFF800
000000
03C000
03C000
03C000
03C000
ENDCHAR
STARTCHAR uni1E05
ENCODING 7685
SWIDTH 602 0
DWIDTH 20 0
BBX 17 31 2 -5
BITMAP
F80000
F80000
F80000
F80000
F80000
F80000
F80000
F80000
F8F800
F9FC00
FBFE00
FFFF00
FFFF00
FE1F80
FC1F80
F80F80
F80F80
F80F80
F80F80
F80F80
F81F00
FC3F00
FFFF00
FFFE00
FFFC00
F1F000
000000
03C000
03C000
03C000
03C000
ENDCHAR
STARTCHAR uni1E06
ENCODING 7686
SWIDTH 602 0
DWIDTH 20 0
BBX 17 29 2 -4
BITMAP
FFF800
FFFE00
FFFE00
F83F00
F81F00
F81F00
F81F00
F81F00
F83E00
F87E00
FFF800
FFF000
FFF800
F87E00
F81F00
F81F00
F80F80
F80F80
F80F80
F80F80
F81F80
F83F00
FFFF00
FFFE00
FFF800
000000
1FF800
1FF800
1FF800
ENDCHAR
STARTCHAR uni1E07
ENCODING 7687
SWIDTH 602 0
DWIDTH 20 0
BBX 17 30 2 -4
BITMAP
F80000
F80000
F80000
F80000
F80000
F80000
F80000
F80000
F8F800
F9FC00
FBFE00
FFFF00
FFFF00
FE1F80
FC1F80
F80F80
F80F80
F80F80
F80F80
F80F80
F81F00
FC3F00
FFFF00
FFFE00
FFFC00
F1F000
000000
1FF800
1FF800
1FF800
ENDCHAR
STARTCHAR uni1E08
ENCODING 7688
SWIDTH 602 0
DWIDTH 20 0
BBX 19 38 1 -7
BITMAP
007C00
00F800
00F000
01E000
03C000
000000
00FFC0
03FFE0
0FFFE0
1FC060
3F0000
3E0000
7C0000
7C0000
F80000
F80000
F80000
F80000
F80000
F80000
F80000
F80000
FC0000
7C0000
7E0000
3F0020
3FC0E0
1FFFE0
0FFFE0
03FFE0
00FF00
006000
00E000
00F800
003C00
011C00
01FC00
01F800
ENDCHAR
STARTCHAR uni1E09
ENCODING 7689
SWIDTH 602 0
DWIDTH 20 0
BBX 17 31 2 -7
BITMAP
00F800
01F000
01E000
03C000
078000
000000
03FF80
0FFF80
1FFF80
3F0180
7C0000
7C0000
F80000
F80000
F80000
F80000
F80000
FC0000
7E0000
7F8180
3FFF80
1FFF80
0FFF80
03FE00
00C000
01C000
01F000
007800
023800
03F800
03F000
ENDCHAR
STARTCHAR uni1E0A
ENCODING 7690
SWIDTH 602 0
DWIDTH 20 0
BBX 18 30 2 0
BITMAP
03C000
03C000
03C000
03C000
000000
FFF000
FFFC00
FFFE00
F87F00
F81F80
F80F80
F80F80
F80FC0
F807C0
F807C0
F807C0
F807C0
F807C0
F807C0
F807C0
F807C0
F807C0
F80F80
F80F80
F80F80
F81F00
F87E00
FFFE00
FFF800
FFE000
ENDCHAR
STARTCHAR uni1E0B
ENCODING 7691
SWIDTH 602 0
DWIDTH 20 0
BBX 17 31 2 0
BITMAP
001E00
001E00
001E00
001E00
000000
000F80
000F80
000F80
000F80
000F80
000F80
000F80
000F80
07CF80
1FEF80
3FFF80
7FFF80
7E1F80
7C0F80
F80F80
F80F80
F80F80
F80F80
F80F80
FC1F80
FC3F80
7FFF80
7FFF80
3FEF80
1FCF80
0F8F80
ENDCHAR
STARTCHAR uni1E0C
ENCODING 7692
SWIDTH 602 0
DWIDTH 20 0
BBX 18 30 2 -5
BITMAP
FFF000
FFFC00
FFFE00
F87F00
F81F80
F80F80
F80F80
F80FC0
F807C0
F807C0
F807C0
F807C0
F807C0
F807C0
F807C0
F807C0
F807C0
F80F80
F80F80
F80F80
F81F00
F87E00
FFFE00
FFF800
FFE000
000000
03C000
03C000
03C000
03C000
ENDCHAR
STARTCHAR uni1E0D
ENCODING 7693
SWIDTH 602 0
DWIDTH 20 0
BBX 17 31 2 -5
BITMAP
000F80
000F80
000F80
000F80
000F80
000F80
000F80
000F80
07CF80
1FEF80
3FFF80
7FFF80
7E1F80
7C0F80
F80F80
F80F80
F80F80
F80F80
F80F80
FC1F80
FC3F80
7FFF80
7FFF80
3FEF80
1FCF80
0F8F80
000000
01E000
01E000
01E000
01E000
ENDCHAR
STARTCHAR uni1E0E
ENCODING 7694
SWIDTH 602 0
DWIDTH 20 0
BBX 18 29 2 -4
BITMAP
FFF000
FFFC00
FFFE00
F87F00
F81F80
F80F80
F80F80
F80FC0
F807C0
F807C0
F807C0
F807C0
F807C0
F807C0
F807C0
F807C0
F807C0
F80F80
F80F80
F80F80
F81F00
F87E00
FFFE00
FFF800
FFE000
000000
1FF800
1FF800
1FF800
ENDCHAR
STARTCHAR uni1E0F
ENCODING 7695
SWIDTH 602 0
DWIDTH 20 0
BBX 17 30 2 -4
BITMAP
000F80
000F80
000F80
000F80
000F80
000F80
000F80
000F80
07CF80
1FEF80
3FFF80
7FFF80
7E1F80
7C0F80
F80F80
F80F80
F80F80
F80F80
F80F80
FC1F80
FC3F80
7FFF80
7FFF80
3FEF80
1FCF80
0F8F80
000000
0FFC00
0FFC00
0FFC00
ENDCHAR
STARTCHAR uni1E10
ENCODING 7696
SWIDTH 602 0
DWIDTH 20 0
BBX 18 32 2 -7
BITMAP
FFF000
FFFC00
FFFE00
F87F00
F81F80
F80F80
F80F80
F80FC0
F807C0
F807C0
F807C0
F807C0
F807C0
F807C0
F807C0
F807C0
F807C0
F80F80
F80F80
F80F80
F81F00
F87E00
FFFE00
FFF800
FFE000
018000
038000
03E000
00F000
047000
07F000
07E000
ENDCHAR
STARTCHAR uni1E11
ENCODING 7697
SWIDTH 602 0
DWIDTH 20 0
BBX 17 33 2 -7
BITMAP
000F80
000F80
000F80
000F80
000F80
000F80
000F80
000F80
07CF80
1FEF80
3FFF80
7FFF80
7E1F80
7C0F80
F80F80
F80F80
F80F80
F80F80
F80F80
FC1F80
FC3F80
7FFF80
7FFF80
3FEF80
1FCF80
0FEF80
00C000
01C000
01F000
007800
023800
03F800
03F000
ENDCHAR
STARTCHAR uni1E12
ENCODING 7698
SWIDTH 602 0
DWIDTH 20 0
BBX 18 31 2 -6
BITMAP
FFF000
FFFC00
FFFE00
F87F00
F81F80
F80F80
F80F80
F80FC0
F807C0
F807C0
F807C0
F807C0
F807C0
F807C0
F807C0
F807C0
F807C0
F80F80
F80F80
F80F80
F81F00
F87E00
FFFE00
FFF800
FFE000
000000
03C000
07E000
0FF000
0E7000
1E7800
ENDCHAR
STARTCHAR uni1E13
ENCODING 7699
SWIDTH 602 0
DWIDTH 20 0
BBX 17 32 2 -6
BITMAP
000F80
000F80
000F80
000F80
000F80
000F80
000F80
000F80
07CF80
1FEF80
3FFF80
7FFF80
7E1F80
7C0F80
F80F80
F80F80
F80F80
F80F80
F80F80
FC1F80
FC3F80
7FFF80
7FFF80
3FEF80
1FCF80
0F8F80
000000
01E000
03F000
07F800
073800
0F3C00
ENDCHAR
STARTCHAR uni1E14
ENCODING 7700
SWIDTH 602 0
DWIDTH 20 0
BBX 16 35 3 0
BITMAP
3E00
1F00
0F00
0780
03C0
0000
3FF0
3FF0
3FF0
0000
FFFE
FFFE
FFFE
F800
F800
F800
F800
F800
F800
F800
FFFC
FFFC
FFFC
F800
F800
F800
F800
F800
F800
F800
F800
F800
FFFF
FFFF
FFFF
ENDCHAR
STARTCHAR uni1E15
ENCODING 7701
SWIDTH 602 0
DWIDTH 20 0
BBX 18 28 1 0
BITMAP
0F8000
07C000
03C000
01E000
00F000
000000
0FFC00
0FFC00
0FFC00
000000
03F800
0FFE00
1FFF00
3E0F80
7C0780
7C07C0
F807C0
FFFFC0
FFFFC0
FFFFC0
F80000
F80000
7C0000
7F00C0
3FFFC0
1FFFC0
0FFFC0
03FE00
ENDCHAR
STARTCHAR uni1E16
ENCODING 7702
SWIDTH 602 0
DWIDTH 20 0
BBX 16 35 3 0
BITMAP
01F0
03E0
03C0
0780
0F00
0000
3FF0
3FF0
3FF0
0000
FFFE
FFFE
FFFE
F800
F800
F800
F800
F800
F800
F800
FFFC
FFFC
FFFC
F800
F800
F800
F800
F800
F800
F800
F800
F800
FFFF
FFFF
FFFF
ENDCHAR
STARTCHAR uni1E17
ENCODING 7703
SWIDTH 602 0
DWIDTH 20 0
BBX 18 28 1 0
BITMAP
007C00
00F800
00F000
01E000
03C000
000000
0FFC00
0FFC00
0FFC00
000000
03F800
0FFE00
1FFF00
3E0F80
7C0780
7C07C0
F807C0
FFFFC0
FFFFC0
FFFFC0
F80000
F80000
7C0000
7F00C0
3FFFC0
1FFFC0
0FFFC0
03FE00
ENDCHAR
STARTCHAR uni1E18
ENCODING 7704
SWIDTH 602 0
DWIDTH 20 0
BBX 16 31 3 -6
BITMAP
FFFE
FFFE
FFFE
F800
F800
F800
F800
F800
F800
F800
FFFC
FFFC
FFFC
F800
F800
F800
F800
F800
F800
F800
F800
F800
FFFF
FFFF
FFFF
0000
0780
0FC0
1FE0
1CE0
3CF0
ENDCHAR
STARTCHAR uni1E19
ENCODING 7705
SWIDTH 602 0
DWIDTH 20 0
BBX 18 24 1 -6
BITMAP
03F800
0FFE00
1FFF00
3E0F80
7C0780
7C07C0
F807C0
FFFFC0
FFFFC0
FFFFC0
F80000
F80000
7C0000
7F00C0
3FFFC0
1FFFC0
0FFFC0
03FE00
000000
00F000
01F800
03FC00
039C00
079E00
ENDCHAR
STARTCHAR uni1E1A
ENCODING 7706
SWIDTH 602 0
DWIDTH 20 0
BBX 16 31 3 -6
BITMAP
FFFE
FFFE
FFFE
F800
F800
F800
F800
F800
F800
F800
FFFC
FFFC
FFFC
F800
F800
F800
F800
F800
F800
F800
F800
F800
FFFF
FFFF
FFFF
0000
1E30
1FF0
3FF0
3FE0
31E0
ENDCHAR
STARTCHAR uni1E1B
ENCODING 7707
SWIDTH 602 0
DWIDTH 20 0
BBX 18 24 1 -6
BITMAP
03F800
0FFE00
1FFF00
3E0F80
7C0780
7C07C0
F807C0
FFFFC0
FFFFC0
FFFFC0
F80000
F80000
7C0000
7F00C0
3FFFC0
1FFFC0
0FFFC0
03FE00
000000
078C00
07FC00
0FFC00
0FF800
0C7800
ENDCHAR
STARTCHAR uni1E1C
ENCODING 7708
SWIDTH 602 0
DWIDTH 20 0
BBX 16 38 3 -7
BITMAP
70E0
79E0
3FC0
3FC0
1F80
0000
FFFE
FFFE
FFFE
F800
F800
F800
F800
F800
F800
F800
FFFC
FFFC
FFFC
F800
F800
F800
F800
F800
F800
F800
F800
F800
FFFF
FFFF
FFFF
0300
0700
07C0
01E0
08E0
0FE0
0FC0
ENDCHAR
STARTCHAR uni1E1D
ENCODING 7709
SWIDTH 602 0
DWIDTH 20 0
BBX 18 31 1 -7
BITMAP
0E1C00
0F3C00
07F800
07F800
03F000
000000
03F800
0FFE00
1FFF00
3E0F80
7C0780
7C07C0
F807C0
FFFFC0
FFFFC0
FFFFC0
F80000
F80000
7C0000
7F00C0
3FFFC0
1FFFC0
0FFFC0
03FE00
006000
00E000
00F800
003C00
011C00
01FC00
01F800
ENDCHAR
STARTCHAR uni1E1E
ENCODING 7710
SWIDTH 602 0
DWIDTH 20 0
BBX 17 30 3 0
BITMAP
078000
078000
078000
078000
000000
FFFF80
FFFF80
FFFF80
F80000
F80000
F80000
F80000
F80000
F80000
F80000
F80000
FFFE00
FFFE00
FFFE00
F80000
F80000
F80000
F80000
F80000
F80000
F80000
F80000
F80000
F80000
F80000
ENDCHAR
STARTCHAR uni1E1F
ENCODING 7711
SWIDTH 602 0
DWIDTH 20 0
BBX 17 31 3 0
BITMAP
01E000
01E000
01E000
01E000
000000
01FF00
07FF80
0FFF80
1F8180
1F0000
1F0000
1F0000
1F0000
FFFE00
FFFE00
FFFE00
1F0000
1F0000
1F0000
1F0000
1F0000
1F0000
1F0000
1F0000
1F0000
1F0000
1F0000
1F0000
1F0000
1F0000
1F0000
ENDCHAR
STARTCHAR uni1E20
ENCODING 7712
SWIDTH 602 0
DWIDTH 20 0
BBX 19 29 1 0
BITMAP
07FE00
07FE00
07FE00
000000
00FF80
07FFE0
0FFFE0
1FC0E0
3F0020
3E0000
7C0000
7C0000
F80000
F80000
F80000
F80000
F803E0
F803E0
F803E0
F803E0
FC03E0
7C03E0
7E03E0
3F03E0
3FC3E0
1FFFE0
0FFFE0
07FFE0
00FF00
ENDCHAR
STARTCHAR uni1E21
ENCODING 7713
SWIDTH 602 0
DWIDTH 20 0
BBX 17 29 2 -7
BITMAP
0FFC00
0FFC00
0FFC00
000000
07C780
1FE780
3FFF80
7FFF80
7E3F80
FC0F80
F80F80
F80F80
F80F80
F80F80
F80F80
FC1F80
FC3F80
7FFF80
7FEF80
3FEF80
1FCF80
0F8F80
000F80
001F00
303F00
3FFF00
3FFE00
3FFC00
07F000
ENDCHAR
STARTCHAR uni1E22
ENCODING 7714
SWIDTH 602 0
DWIDTH 20 0
BBX 17 30 2 0
BITMAP
01E000
01E000
01E000
01E000
000000
F80F80
F80F80
F80F80
F80F80
F80F80
F80F80
F80F80
F80F80
F80F80
F80F80
FFFF80
FFFF80
FFFF80
F80F80
F80F80
F80F80
F80F80
F80F80
F80F80
F80F80
F80F80
F80F80
F80F80
F80F80
F80F80
ENDCHAR
STARTCHAR uni1E23
ENCODING 7715
SWIDTH 602 0
DWIDTH 20 0
BBX 16 31 2 0
BITMAP
3C00
3C00
3C00
3C00
0000
F800
F800
F800
F800
F800
F800
F800
F800
F8F8
F9FC
FBFE
FFFF
FFFF
FE1F
FC1F
F81F
F81F
F81F
F81F
F81F
F81F
F81F
F81F
F81F
F81F
F81F
ENDCHAR
STARTCHAR uni1E24
ENCODING 7716
SWIDTH 602 0
DWIDTH 20 0
BBX 17 30 2 -5
BITMAP
F80F80
F80F80
F80F80
F80F80
F80F80
F80F80
F80F80
F80F80
F80F80
F80F80
FFFF80
FFFF80
FFFF80
F80F80
F80F80
F80F80
F80F80
F80F80
F80F80
F80F80
F80F80
F80F80
F80F80
F80F80
F80F80
000000
01E000
01E000
01E000
01E000
ENDCHAR
STARTCHAR uni1E25
ENCODING 7717
SWIDTH 602 0
DWIDTH 20 0
BBX 16 31 2 -5
BITMAP
F800
F800
F800
F800
F800
F800
F800
F800
F8F8
F9FC
FBFE
FFFF
FFFF
FE1F
FC1F
F81F
F81F
F81F
F81F
F81F
F81F
F81F
F81F
F81F
F81F
F81F
0000
03C0
03C0
03C0
03C0
ENDCHAR
STARTCHAR uni1E26
ENCODING 7718
SWIDTH 602 0
DWIDTH 20 0
BBX 17 30 2 0
BITMAP
0F3C00
0F3C00
0F3C00
0F3C00
000000
F80F80
F80F80
F80F80
F80F80
F80F80
F80F80
F80F80
F80F80
F80F80
F80F80
FFFF80
FFFF80
FFFF80
F80F80
F80F80
F80F80
F80F80
F80F80
F80F80
F80F80
F80F80
F80F80
F80F80
F80F80
F80F80
ENDCHAR
STARTCHAR uni1E27
ENCODING 7719
SWIDTH 602 0
DWIDTH 20 0
BBX 17 31 1 0
BITMAP
F3C000
F3C000
F3C000
F3C000
000000
7C0000
7C0000
7C0000
7C0000
7C0000
7C0000
7C0000
7C0000
7C7C00
7CFE00
7DFF00
7FFF80
7FFF80
7F0F80
7E0F80
7C0F80
7C0F80
7C0F80
7C0F80
7C0F80
7C0F80
7C0F80
7C0F80
7C0F80
7C0F80
7C0F80
ENDCHAR
STARTCHAR uni1E28
ENCODING 7720
SWIDTH 602 0
DWIDTH 20 0
BBX 17 32 2 -7
BITMAP
F80F80
F80F80
F80F80
F80F80
F80F80
F80F80
F80F80
F80F80
F80F80
F80F80
FFFF80
FFFF80
FFFF80
F80F80
F80F80
F80F80
F80F80
F80F80
F80F80
F80F80
F80F80
F80F80
F80F80
F80F80
F9CF80
018000
038000
03E000
00F000
047000
07F000
07E000
ENDCHAR
STARTCHAR uni1E29
ENCODING 7721
SWIDTH 602 0
DWIDTH 20 0
BBX 16 33 2 -7
BITMAP
F800
F800
F800
F800
F800
F800
F800
F800
F8F8
F9FC
FBFE
FFFF
FFFF
FE1F
FC1F
F81F
F81F
F81F
F81F
F81F
F81F
F81F
F81F
F81F
F81F
F9DF
0180
0380
03E0
00F0
0470
07F0
07E0
ENDCHAR
STARTCHAR uni1E2A
ENCODING 7722
SWIDTH 602 0
DWIDTH 20 0
BBX 17 31 2 -6
BITMAP
F80F80
F80F80
F80F80
F80F80
F80F80
F80F80
F80F80
F80F80
F80F80
F80F80
FFFF80
FFFF80
FFFF80
F80F80
F80F80
F80F80
F80F80
F80F80
F80F80
F80F80
F80F80
F80F80
F80F80
F80F80
F80F80
000000
0E1C00
0F3C00
07F800
07F800
03F000
ENDCHAR
STARTCHAR uni1E2B
ENCODING 7723
SWIDTH 602 0
DWIDTH 20 0
BBX 16 32 2 -6
BITMAP
F800
F800
F800
F800
F800
F800
F800
F800
F8F8
F9FC
FBFE
FFFF
FFFF
FE1F
FC1F
F81F
F81F
F81F
F81F
F81F
F81F
F81F
F81F
F81F
F81F
F81F
0000
1C38
1E78
0FF0
0FF0
07E0
ENDCHAR
STARTCHAR uni1E2C
ENCODING 7724
SWIDTH 602 0
DWIDTH 20 0
BBX 17 31 2 -6
BITMAP
FFFF80
FFFF80
FFFF80
03E000
03E000
03E000
03E000
03E000
03E000
03E000
03E000
03E000
03E000
03E000
03E000
03E000
03E000
03E000
03E000
03E000
03E000
03E000
FFFF80
FFFF80
FFFF80
000000
0F1800
0FF800
1FF800
1FF000
18F000
ENDCHAR
STARTCHAR uni1E2D
ENCODING 7725
SWIDTH 602 0
DWIDTH 20 0
BBX 13 32 3 -6
BITMAP
01F0
01F0
01F0
01F0
01F0
0000
0000
0000
FFF0
FFF0
FFF0
01F0
01F0
01F0
01F0
01F0
01F0
01F0
01F0
01F0
01F0
01F0
01F0
01F0
01F0
01F0
0000
0F18
0FF8
1FF8
1FF0
18F0
ENDCHAR
STARTCHAR uni1E2E
ENCODING 7726
SWIDTH 602 0
DWIDTH 20 0
BBX 17 36 2 0
BITMAP
00F800
01F000
01E000
03C000
078000
000000
1E7800
1E7800
1E7800
1E7800
000000
FFFF80
FFFF80
FFFF80
03E000
03E000
03E000
03E000
03E000
03E000
03E000
03E000
03E000
03E000
03E000
03E000
03E000
03E000
03E000
03E000
03E000
03E000
03E000
FFFF80
FFFF80
FFFF80
ENDCHAR
STARTCHAR uni1E2F
ENCODING 7727
SWIDTH 602 0
DWIDTH 20 0
BBX 12 29 3 0
BITMAP
03E0
07C0
0780
0F00
1E00
0000
3CF0
3CF0
3CF0
3CF0
0000
FFF0
FFF0
FFF0
01F0
01F0
01F0
01F0
01F0
01F0
01F0
01F0
01F0
01F0
01F0
01F0
01F0
01F0
01F0
ENDCHAR
STARTCHAR uni1E30
ENCODING 7728
SWIDTH 602 0
DWIDTH 20 0
BBX 18 31 2 0
BITMAP
00F800
01F000
01E000
03C000
078000
000000
F807C0
F80700
F80F00
F81E00
F83C00
F83800
F87800
F8F000
F9E000
F9C000
FFC000
FFC000
FFC000
FFE000
FFF000
FBF000
F9F800
F8F800
F8FC00
F87E00
F87E00
F83F00
F81F80
F81F80
F80FC0
ENDCHAR
STARTCHAR uni1E31
ENCODING 7729
SWIDTH 602 0
DWIDTH 20 0
BBX 17 32 3 0
BITMAP
07C000
0F8000
0F0000
1E0000
3C0000
000000
F80000
F80000
F80000
F80000
F80000
F80000
F80000
F80000
F81E00
F83C00
F83800
F87800
F8F000
F8E000
F9E000
FBC000
FFE000
FBF000
FBF000
F9F800
F8FC00
F8FC00
F87E00
F83F00
F83F00
F81F80
ENDCHAR
STARTCHAR uni1E32
ENCODING 7730
SWIDTH 602 0
DWIDTH 20 0
BBX 18 30 2 -5
BITMAP
F807C0
F80700
F80F00
F81E00
F83C00
F83800
F87800
F8F000
F9E000
F9C000
FFC000
FFC000
FFC000
FFE000
FFF000
FBF000
F9F800
F8F800
F8FC00
F87E00
F87E00
F83F00
F81F80
F81F80
F80FC0
000000
03C000
03C000
03C000
03C000
ENDCHAR
STARTCHAR uni1E33
ENCODING 7731
SWIDTH 602 0
DWIDTH 20 0
BBX 17 31 3 -5
BITMAP
F80000
F80000
F80000
F80000
F80000
F80000
F80000
F80000
F81E00
F83C00
F83800
F87800
F8F000
F8E000
F9E000
FBC000
FFE000
FBF000
FBF000
F9F800
F8FC00
F8FC00
F87E00
F83F00
F83F00
F81F80
000000
03C000
03C000
03C000
03C000
ENDCHAR
STARTCHAR uni1E34
ENCODING 7732
SWIDTH 602 0
DWIDTH 20 0
BBX 18 29 2 -4
BITMAP
F807C0
F80700
F80F00
F81E00
F83C00
F83800
F87800
F8F000
F9E000
F9C000
FFC000
FFC000
FFC000
FFE000
FFF000
FBF000
F9F800
F8F800
F8FC00
F87E00
F87E00
F83F00
F81F80
F81F80
F80FC0
000000
1FF800
1FF800
1FF800
ENDCHAR
STARTCHAR uni1E35
ENCODING 7733
SWIDTH 602 0
DWIDTH 20 0
BBX 17 30 3 -4
BITMAP
F80000
F80000
F80000
F80000
F80000
F80000
F80000
F80000
F81E00
F83C00
F83800
F87800
F8F000
F8E000
F9E000
FBC000
FFE000
FBF000
FBF000
F9F800
F8FC00
F8FC00
F87E00
F83F00
F83F00
F81F80
000000
1FF800
1FF800
1FF800
ENDCHAR
STARTCHAR uni1E36
ENCODING 7734
SWIDTH 602 0
DWIDTH 20 0
BBX 16 30 4 -5
BITMAP
F800
F800
F800
F800
F800
F800
F800
F800
F800
F800
F800
F800
F800
F800
F800
F800
F800
F800
F800
F800
F800
F800
FFFF
FFFF
FFFF
0000
0780
0780
0780
0780
ENDCHAR
STARTCHAR uni1E37
ENCODING 7735
SWIDTH 602 0
DWIDTH 20 0
BBX 12 31 1 -5
BITMAP
FFF0
FFF0
FFF0
01F0
01F0
01F0
01F0
01F0
01F0
01F0
01F0
01F0
01F0
01F0
01F0
01F0
01F0
01F0
01F0
01F0
01F0
01F0
01F0
01F0
01F0
01F0
0000
03C0
03C0
03C0
03C0
ENDCHAR
STARTCHAR uni1E38
ENCODING 7736
SWIDTH 602 0
DWIDTH 20 0
BBX 17 34 3 -5
BITMAP
FFC000
FFC000
FFC000
000000
7C0000
7C0000
7C0000
7C0000
7C0000
7C0000
7C0000
7C0000
7C0000
7C0000
7C0000
7C0000
7C0000
7C0000
7C0000
7C0000
7C0000
7C0000
7C0000
7C0000
7C0000
7C0000
7FFF80
7FFF80
7FFF80
000000
03C000
03C000
03C000
03C000
ENDCHAR
STARTCHAR uni1E39
ENCODING 7737
SWIDTH 602 0
DWIDTH 20 0
BBX 12 35 1 -5
BITMAP
3FF0
3FF0
3FF0
0000
FFF0
FFF0
FFF0
01F0
01F0
01F0
01F0
01F0
01F0
01F0
01F0
01F0
01F0
01F0
01F0
01F0
01F0
01F0
01F0
01F0
01F0
01F0
01F0
01F0
01F0
01F0
0000
03C0
03C0
03C0
03C0
ENDCHAR
STARTCHAR uni1E3A
ENCODING 7738
SWIDTH 602 0
DWIDTH 20 0
BBX 16 29 4 -4
BITMAP
F800
F800
F800
F800
F800
F800
F800
F800
F800
F800
F800
F800
F800
F800
F800
F800
F800
F800
F800
F800
F800
F800
FFFF
FFFF
FFFF
0000
3FF0
3FF0
3FF0
ENDCHAR
STARTCHAR uni1E3B
ENCODING 7739
SWIDTH 602 0
DWIDTH 20 0
BBX 13 30 1 -4
BITMAP
FFF0
FFF0
FFF0
01F0
01F0
01F0
01F0
01F0
01F0
01F0
01F0
01F0
01F0
01F0
01F0
01F0
01F0
01F0
01F0
01F0
01F0
01F0
01F0
01F0
01F0
01F0
0000
1FF8
1FF8
1FF8
ENDCHAR
STARTCHAR uni1E3C
ENCODING 7740
SWIDTH 602 0
DWIDTH 20 0
BBX 16 31 4 -6
BITMAP
F800
F800
F800
F800
F800
F800
F800
F800
F800
F800
F800
F800
F800
F800
F800
F800
F800
F800
F800
F800
F800
F800
FFFF
FFFF
FFFF
0000
0780
0FC0
1FE0
1CE0
3CF0
ENDCHAR
STARTCHAR uni1E3D
ENCODING 7741
SWIDTH 602 0
DWIDTH 20 0
BBX 13 32 1 -6
BITMAP
FFF0
FFF0
FFF0
01F0
01F0
01F0
01F0
01F0
01F0
01F0
01F0
01F0
01F0
01F0
01F0
01F0
01F0
01F0
01F0
01F0
01F0
01F0
01F0
01F0
01F0
01F0
0000
03C0
07E0
0FF0
0E70
1E78
ENDCHAR
STARTCHAR uni1E3E
ENCODING 7742
SWIDTH 602 0
DWIDTH 20 0
BBX 19 31 1 0
BITMAP
007C00
00F800
00F000
01E000
03C000
000000
FE07E0
FE07E0
FE0FE0
FE0FE0
FE0FE0
FF0FE0
FF1FE0
FF1FE0
FF1FE0
FF1FE0
F79FE0
F7BBE0
F7BBE0
F7BBE0
F7BBE0
F7FBE0
F3F3E0
F3F3E0
F3F3E0
F3F3E0
F3F3E0
F1E3E0
F1E3E0
F003E0
F003E0
ENDCHAR
STARTCHAR uni1E3F
ENCODING 7743
SWIDTH 602 0
DWIDTH 20 0
BBX 19 24 1 0
BITMAP
007C00
00F800
00F000
01E000
03C000
000000
F9E3C0
FBE7C0
FBF7E0
FFFFE0
FFFFE0
FDF3E0
F9F3E0
F9F3E0
F9F3E0
F9F3E0
F9F3E0
F9F3E0
F9F3E0
F9F3E0
F9F3E0
F9F3E0
F9F3E0
F9F3E0
ENDCHAR
STARTCHAR uni1E40
ENCODING 7744
SWIDTH 602 0
DWIDTH 20 0
BBX 19 30 1 0
BITMAP
01E000
01E000
01E000
01E000
000000
FE07E0
FE07E0
FE0FE0
FE0FE0
FE0FE0
FF0FE0
FF1FE0
FF1FE0
FF1FE0
FF1FE0
F79FE0
F7BBE0
F7BBE0
F7BBE0
F7BBE0
F7FBE0
F3F3E0
F3F3E0
F3F3E0
F3F3E0
F3F3E0
F1E3E0
F1E3E0
F003E0
F003E0
ENDCHAR
STARTCHAR uni1E41
ENCODING 7745
SWIDTH 602 0
DWIDTH 20 0
BBX 19 23 1 0
BITMAP
01E000
01E000
01E000
01E000
000000
F9E3C0
FBE7C0
FBF7E0
FFFFE0
FFFFE0
FDF3E0
F9F3E0
F9F3E0
F9F3E0
F9F3E0
F9F3E0
F9F3E0
F9F3E0
F9F3E0
F9F3E0
F9F3E0
F9F3E0
F9F3E0
ENDCHAR
STARTCHAR uni1E42
ENCODING 7746
SWIDTH 602 0
DWIDTH 20 0
BBX 19 30 1 -5
BITMAP
FE07E0
FE07E0
FE0FE0
FE0FE0
FE0FE0
FF0FE0
FF1FE0
FF1FE0
FF1FE0
FF1FE0
F79FE0
F7BBE0
F7BBE0
F7BBE0
F7BBE0
F7FBE0
F3F3E0
F3F3E0
F3F3E0
F3F3E0
F3F3E0
F1E3E0
F1E3E0
F003E0
F003E0
000000
00F000
00F000
00F000
00F000
ENDCHAR
STARTCHAR uni1E43
ENCODING 7747
SWIDTH 602 0
DWIDTH 20 0
BBX 19 23 1 -5
BITMAP
F9E3C0
FBE7C0
FBF7E0
FFFFE0
FFFFE0
FDF3E0
F9F3E0
F9F3E0
F9F3E0
F9F3E0
F9F3E0
F9F3E0
F9F3E0
F9F3E0
F9F3E0
F9F3E0
F9F3E0
F9F3E0
000000
00F000
00F000
00F000
00F000
ENDCHAR
STARTCHAR uni1E44
ENCODING 7748
SWIDTH 602 0
DWIDTH 20 0
BBX 17 30 2 0
BITMAP
03C000
03C000
03C000
03C000
000000
F80780
FC0780
FC0780
FE0780
FE0780
FF0780
FF0780
FF8780
FF8780
FFC780
F7C780
F7E780
F3E780
F3F780
F1F780
F1FF80
F0FF80
F0FF80
F07F80
F07F80
F03F80
F03F80
F01F80
F01F80
F00F80
ENDCHAR
STARTCHAR uni1E45
ENCODING 7749
SWIDTH 602 0
DWIDTH 20 0
BBX 16 23 2 0
BITMAP
03C0
03C0
03C0
03C0
0000
F8F8
F9FC
FBFE
FFFF
FFFF
FE1F
FC1F
F81F
F81F
F81F
F81F
F81F
F81F
F81F
F81F
F81F
F81F
F81F
ENDCHAR
STARTCHAR uni1E46
ENCODING 7750
SWIDTH 602 0
DWIDTH 20 0
BBX 17 30 2 -5
BITMAP
F80780
FC0780
FC0780
FE0780
FE0780
FF0780
FF0780
FF8780
FF8780
FFC780
F7C780
F7E780
F3E780
F3F780
F1F780
F1FF80
F0FF80
F0FF80
F07F80
F07F80
F03F80
F03F80
F01F80
F01F80
F00F80
000000
01E000
01E000
01E000
01E000
ENDCHAR
STARTCHAR uni1E47
ENCODING 7751
SWIDTH 602 0
DWIDTH 20 0
BBX 16 23 2 -5
BITMAP
F8F8
F9FC
FBFE
FFFF
FFFF
FE1F
FC1F
F81F
F81F
F81F
F81F
F81F
F81F
F81F
F81F
F81F
F81F
F81F
0000
03C0
03C0
03C0
03C0
ENDCHAR
STARTCHAR uni1E48
ENCODING 7752
SWIDTH 602 0
DWIDTH 20 0
BBX 17 29 2 -4
BITMAP
F80780
FC0780
FC0780
FE0780
FE0780
FF0780
FF0780
FF8780
FF8780
FFC780
F7C780
F7E780
F3E780
F3F780
F1F780
F1FF80
F0FF80
F0FF80
F07F80
F07F80
F03F80
F03F80
F01F80
F01F80
F00F80
000000
0FFC00
0FFC00
0FFC00
ENDCHAR
STARTCHAR uni1E49
ENCODING 7753
SWIDTH 602 0
DWIDTH 20 0
BBX 16 22 2 -4
BITMAP
F8F8
F9FC
FBFE
FFFF
FFFF
FE1F
FC1F
F81F
F81F
F81F
F81F
F81F
F81F
F81F
F81F
F81F
F81F
F81F
0000
1FF8
1FF8
1FF8
ENDCHAR
STARTCHAR uni1E4A
ENCODING 7754
SWIDTH 602 0
DWIDTH 20 0
BBX 17 31 2 -6
BITMAP
F80780
FC0780
FC0780
FE0780
FE0780
FF0780
FF0780
FF8780
FF8780
FFC780
F7C780
F7E780
F3E780
F3F780
F1F780
F1FF80
F0FF80
F0FF80
F07F80
F07F80
F03F80
F03F80
F01F80
F01F80
F00F80
000000
01E000
03F000
07F800
073800
0F3C00
ENDCHAR
STARTCHAR uni1E4B
ENCODING 7755
SWIDTH 602 0
DWIDTH 20 0
BBX 16 24 2 -6
BITMAP
F8F8
F9FC
FBFE
FFFF
FFFF
FE1F
FC1F
F81F
F81F
F81F
F81F
F81F
F81F
F81F
F81F
F81F
F81F
F81F
0000
03C0
07E0
0FF0
0E70
1E78
ENDCHAR
STARTCHAR uni1E4C
ENCODING 7756
SWIDTH 602 0
DWIDTH 20 0
BBX 20 37 0 0
BITMAP
003E00
007C00
007800
00F000
01E000
000000
03C600
03FE00
07FE00
07FC00
063C00
000000
01F800
0FFF00
1FFF80
3F0FC0
3E07C0
7C03E0
7C03E0
7801E0
F801F0
F801F0
F801F0
F801F0
F801F0
F801F0
F801F0
F801F0
F801F0
7801E0
7C03E0
7C03E0
3E07C0
3F0FC0
1FFF80
07FE00
01F800
ENDCHAR
STARTCHAR uni1E4D
ENCODING 7757
SWIDTH 602 0
DWIDTH 20 0
BBX 19 30 1 0
BITMAP
003E00
007C00
007800
00F000
01E000
000000
03C600
03FE00
07FE00
07FC00
063C00
000000
03F800
0FFE00
1FFF00
3E0F80
7C07C0
7C07C0
F803E0
F803E0
F803E0
F803E0
F803E0
F803E0
7C07C0
7C07C0
3E0F80
1FFF00
0FFE00
03F800
ENDCHAR
STARTCHAR uni1E4E
ENCODING 7758
SWIDTH 602 0
DWIDTH 20 0
BBX 20 36 0 0
BITMAP
079E00
079E00
079E00
079E00
000000
03C600
03FE00
07FE00
07FC00
063C00
000000
01F800
0FFF00
1FFF80
3F0FC0
3E07C0
7C03E0
7C03E0
7801E0
F801F0
F801F0
F801F0
F801F0
F801F0
F801F0
F801F0
F801F0
F801F0
7801E0
7C03E0
7C03E0
3E07C0
3F0FC0
1FFF80
07FE00
01F800
ENDCHAR
STARTCHAR uni1E4F
ENCODING 7759
SWIDTH 602 0
DWIDTH 20 0
BBX 19 29 1 0
BITMAP
079E00
079E00
079E00
079E00
000000
03C600
03FE00
07FE00
07FC00
063C00
000000
03F800
0FFE00
1FFF00
3E0F80
7C07C0
7C07C0
F803E0
F803E0
F803E0
F803E0
F803E0
F803E0
7C07C0
7C07C0
3E0F80
1FFF00
0FFE00
03F800
ENDCHAR
STARTCHAR uni1E50
ENCODING 7760
SWIDTH 602 0
DWIDTH 20 0
BBX 20 35 0 0
BITMAP
07C000
03E000
01E000
00F000
007800
000000
07FE00
07FE00
07FE00
000000
01F800
0FFF00
1FFF80
3F0FC0
3E07C0
7C03E0
7C03E0
7801E0
F801F0
F801F0
F801F0
F801F0
F801F0
F801F0
F801F0
F801F0
F801F0
7801E0
7C03E0
7C03E0
3E07C0
3F0FC0
1FFF80
07FE00
01F800
ENDCHAR
STARTCHAR uni1E51
ENCODING 7761
SWIDTH 602 0
DWIDTH 20 0
BBX 19 28 1 0
BITMAP
07C000
03E000
01E000
00F000
007800
000000
07FE00
07FE00
07FE00
000000
03F800
0FFE00
1FFF00
3E0F80
7C07C0
7C07C0
F803E0
F803E0
F803E0
F803E0
F803E0
F803E0
7C07C0
7C07C0
3E0F80
1FFF00
0FFE00
03F800
ENDCHAR
STARTCHAR uni1E52
ENCODING 7762
SWIDTH 602 0
DWIDTH 20 0
BBX 20 35 0 0
BITMAP
003E00
007C00
007800
00F000
01E000
000000
07FE00
07FE00
07FE00
000000
01F800
0FFF00
1FFF80
3F0FC0
3E07C0
7C03E0
7C03E0
7801E0
F801F0
F801F0
F801F0
F801F0
F801F0
F801F0
F801F0
F801F0
F801F0
7801E0
7C03E0
7C03E0
3E07C0
3F0FC0
1FFF80
07FE00
01F800
ENDCHAR
STARTCHAR uni1E53
ENCODING 7763
SWIDTH 602 0
DWIDTH 20 0
BBX 19 28 1 0
BITMAP
003E00
007C00
007800
00F000
01E000
000000
07FE00
07FE00
07FE00
000000
03F800
0FFE00
1FFF00
3E0F80
7C07C0
7C07C0
F803E0
F803E0
F803E0
F803E0
F803E0
F803E0
7C07C0
7C07C0
3E0F80
1FFF00
0FFE00
03F800
ENDCHAR
STARTCHAR uni1E54
ENCODING 7764
SWIDTH 602 0
DWIDTH 20 0
BBX 17 31 2 0
BITMAP
00F800
01F000
01E000
03C000
078000
000000
FFF800
FFFE00
FFFF00
F83F00
F80F80
F80F80
F80F80
F80F80
F80F80
F80F80
F81F00
F83F00
FFFE00
FFFC00
FFE000
F80000
F80000
F80000
F80000
F80000
F80000
F80000
F80000
F80000
F80000
ENDCHAR
STARTCHAR uni1E55
ENCODING 7765
SWIDTH 602 0
DWIDTH 20 0
BBX 17 31 2 -7
BITMAP
00F800
01F000
01E000
03C000
078000
000000
F8F800
F9FC00
FBFE00
FFFF00
FFFF00
FE1F80
FC1F80
F80F80
F80F80
F80F80
F80F80
F80F80
F81F00
FC3F00
FFFF00
FFFE00
FBFC00
F9F000
F80000
F80000
F80000
F80000
F80000
F80000
F80000
ENDCHAR
STARTCHAR uni1E56
ENCODING 7766
SWIDTH 602 0
DWIDTH 20 0
BBX 17 30 2 0
BITMAP
03C000
03C000
03C000
03C000
000000
FFF800
FFFE00
FFFF00
F83F00
F80F80
F80F80
F80F80
F80F80
F80F80
F80F80
F81F00
F83F00
FFFE00
FFFC00
FFE000
F80000
F80000
F80000
F80000
F80000
F80000
F80000
F80000
F80000
F80000
ENDCHAR
STARTCHAR uni1E57
ENCODING 7767
SWIDTH 602 0
DWIDTH 20 0
BBX 17 30 2 -7
BITMAP
03C000
03C000
03C000
03C000
000000
F8F800
F9FC00
FBFE00
FFFF00
FFFF00
FE1F80
FC1F80
F80F80
F80F80
F80F80
F80F80
F80F80
F81F00
FC3F00
FFFF00
FFFE00
FBFC00
F9F000
F80000
F80000
F80000
F80000
F80000
F80000
F80000
ENDCHAR
STARTCHAR uni1E58
ENCODING 7768
SWIDTH 602 0
DWIDTH 20 0
BBX 18 30 2 0
BITMAP
03C000
03C000
03C000
03C000
000000
FFF000
FFFC00
FFFE00
F83F00
F81F00
F81F00
F81F00
F81F00
F83F00
F83E00
F8FE00
FFFC00
FFF800
FFF000
F9F000
F9F800
F8F800
F8FC00
F87E00
F87E00
F83F00
F83F00
F81F80
F81F80
F80FC0
ENDCHAR
STARTCHAR uni1E59
ENCODING 7769
SWIDTH 602 0
DWIDTH 20 0
BBX 15 23 4 0
BITMAP
03C0
03C0
03C0
03C0
0000
F87E
F9FE
FBFE
FFFE
FFFE
FF0E
FE0E
FC00
F800
F800
F800
F800
F800
F800
F800
F800
F800
F800
ENDCHAR
STARTCHAR uni1E5A
ENCODING 7770
SWIDTH 602 0
DWIDTH 20 0
BBX 18 30 2 -5
BITMAP
FFF000
FFFC00
FFFE00
F83F00
F81F00
F81F00
F81F00
F81F00
F83F00
F83E00
F8FE00
FFFC00
FFF800
FFF000
F9F000
F9F800
F8F800
F8FC00
F87E00
F87E00
F83F00
F83F00
F81F80
F81F80
F80FC0
000000
01E000
01E000
01E000
01E000
ENDCHAR
STARTCHAR uni1E5B
ENCODING 7771
SWIDTH 602 0
DWIDTH 20 0
BBX 15 23 4 -5
BITMAP
F87E
F9FE
FBFE
FFFE
FFFE
FF0E
FE0E
FC00
F800
F800
F800
F800
F800
F800
F800
F800
F800
F800
0000
3C00
3C00
3C00
3C00
ENDCHAR
STARTCHAR uni1E5C
ENCODING 7772
SWIDTH 602 0
DWIDTH 20 0
BBX 18 34 2 -5
BITMAP
1FF800
1FF800
1FF800
000000
FFF000
FFFC00
FFFE00
F83F00
F81F00
F81F00
F81F00
F81F00
F83F00
F83E00
F8FE00
FFFC00
FFF800
FFF000
F9F000
F9F800
F8F800
F8FC00
F87E00
F87E00
F83F00
F83F00
F81F80
F81F80
F80FC0
000000
01E000
01E000
01E000
01E000
ENDCHAR
STARTCHAR uni1E5D
ENCODING 7773
SWIDTH 602 0
DWIDTH 20 0
BBX 15 27 4 -5
BITMAP
3FF0
3FF0
3FF0
0000
F87E
F9FE
FBFE
FFFE
FFFE
FF0E
FE0E
FC00
F800
F800
F800
F800
F800
F800
F800
F800
F800
F800
0000
3C00
3C00
3C00
3C00
ENDCHAR
STARTCHAR uni1E5E
ENCODING 7774
SWIDTH 602 0
DWIDTH 20 0
BBX 18 29 2 -4
BITMAP
FFF000
FFFC00
FFFE00
F83F00
F81F00
F81F00
F81F00
F81F00
F83F00
F83E00
F8FE00
FFFC00
FFF800
FFF000
F9F000
F9F800
F8F800
F8FC00
F87E00
F87E00
F83F00
F83F00
F81F80
F81F80
F80FC0
000000
0FFC00
0FFC00
0FFC00
ENDCHAR
STARTCHAR uni1E5F
ENCODING 7775
SWIDTH 602 0
DWIDTH 20 0
BBX 16 22 3 -4
BITMAP
7C3F
7CFF
7DFF
7FFF
7FFF
7F87
7F07
7E00
7C00
7C00
7C00
7C00
7C00
7C00
7C00
7C00
7C00
7C00
0000
FFC0
FFC0
FFC0
ENDCHAR
STARTCHAR uni1E60
ENCODING 7776
SWIDTH 602 0
DWIDTH 20 0
BBX 18 30 1 0
BITMAP
03C000
03C000
03C000
03C000
000000
07FE00
1FFF00
7FFF00
7E0300
F80000
F80000
F80000
FC0000
FF0000
7FC000
3FF000
1FFC00
07FE00
01FF00
007F80
001FC0
000FC0
0007C0
0007C0
800FC0
F01FC0
FFFF80
FFFF00
FFFE00
3FF000
ENDCHAR
STARTCHAR uni1E61
ENCODING 7777
SWIDTH 602 0
DWIDTH 20 0
BBX 16 23 2 0
BITMAP
03C0
03C0
03C0
03C0
0000
07FC
3FFE
7FFE
7C06
F800
FE00
FF80
7FF0
3FFC
1FFE
03FF
00FF
001F
001F
C03F
FFFE
FFFC
3FE0
ENDCHAR
STARTCHAR uni1E62
ENCODING 7778
SWIDTH 602 0
DWIDTH 20 0
BBX 18 30 1 -5
BITMAP
07FE00
1FFF00
7FFF00
7E0300
F80000
F80000
F80000
FC0000
FF0000
7FC000
3FF000
1FFC00
07FE00
01FF00
007F80
001FC0
000FC0
0007C0
0007C0
800FC0
F01FC0
FFFF80
FFFF00
FFFE00
3FF000
000000
01E000
01E000
01E000
01E000
ENDCHAR
STARTCHAR uni1E63
ENCODING 7779
SWIDTH 602 0
DWIDTH 20 0
BBX 16 23 2 -5
BITMAP
07FC
3FFE
7FFE
7C06
F800
FE00
FF80
7FF0
3FFC
1FFE
03FF
00FF
001F
001F
C03F
FFFE
FFFC
3FE0
0000
03C0
03C0
03C0
03C0
ENDCHAR
STARTCHAR uni1E64
ENCODING 7780
SWIDTH 602 0
DWIDTH 20 0
BBX 18 36 1 0
BITMAP
01E000
01E000
01E000
01E000
000000
00F800
01F000
01E000
03C000
078000
000000
07FE00
1FFF00
7FFF00
7E0300
F80000
F80000
F80000
FC0000
FF0000
7FC000
3FF000
1FFC00
07FE00
01FF00
007F80
001FC0
000FC0
0007C0
0007C0
800FC0
F01FC0
FFFF80
FFFF00
FFFE00
3FF000
ENDCHAR
STARTCHAR uni1E65
ENCODING 7781
SWIDTH 602 0
DWIDTH 20 0
BBX 16 29 2 0
BITMAP
01E0
01E0
01E0
01E0
0000
00F8
01F0
01E0
03C0
0780
0000
07FC
3FFE
7FFE
7C06
F800
FE00
FF80
7FF0
3FFC
1FFE
03FF
00FF
001F
001F
C03F
FFFE
FFFC
3FE0
ENDCHAR
STARTCHAR uni1E66
ENCODING 7782
SWIDTH 602 0
DWIDTH 20 0
BBX 18 36 1 0
BITMAP
01E000
01E000
01E000
01E000
000000
0F3C00
073800
07F800
03F000
01E000
000000
07FE00
1FFF00
7FFF00
7E0300
F80000
F80000
F80000
FC0000
FF0000
7FC000
3FF000
1FFC00
07FE00
01FF00
007F80
001FC0
000FC0
0007C0
0007C0
800FC0
F01FC0
FFFF80
FFFF00
FFFE00
3FF000
ENDCHAR
STARTCHAR uni1E67
ENCODING 7783
SWIDTH 602 0
DWIDTH 20 0
BBX 16 29 2 0
BITMAP
03C0
03C0
03C0
03C0
0000
1E78
0E70
0FF0
07E0
03C0
0000
07FC
3FFE
7FFE
7C06
F800
FE00
FF80
7FF0
3FFC
1FFE
03FF
00FF
001F
001F
C03F
FFFE
FFFC
3FE0
ENDCHAR
STARTCHAR uni1E68
ENCODING 7784
SWIDTH 602 0
DWIDTH 20 0
BBX 18 35 1 -5
BITMAP
03C000
03C000
03C000
03C000
000000
07FE00
1FFF00
7FFF00
7E0300
F80000
F80000
F80000
FC0000
FF0000
7FC000
3FF000
1FFC00
07FE00
01FF00
007F80
001FC0
000FC0
0007C0
0007C0
800FC0
F01FC0
FFFF80
FFFF00
FFFE00
3FF000
000000
01E000
01E000
01E000
01E000
ENDCHAR
STARTCHAR uni1E69
ENCODING 7785
SWIDTH 602 0
DWIDTH 20 0
BBX 16 28 2 -5
BITMAP
0780
0780
0780
0780
0000
07FC
3FFE
7FFE
7C06
F800
FE00
FF80
7FF0
3FFC
1FFE
03FF
00FF
001F
001F
C03F
FFFE
FFFC
3FE0
0000
03C0
03C0
03C0
03C0
ENDCHAR
STARTCHAR uni1E6A
ENCODING 7786
SWIDTH 602 0
DWIDTH 20 0
BBX 19 30 1 0
BITMAP
00F000
00F000
00F000
00F000
000000
FFFFE0
FFFFE0
FFFFE0
01F000
01F000
01F000
01F000
01F000
01F000
01F000
01F000
01F000
01F000
01F000
01F000
01F000
01F000
01F000
01F000
01F000
01F000
01F000
01F000
01F000
01F000
ENDCHAR
STARTCHAR uni1E6B
ENCODING 7787
SWIDTH 602 0
DWIDTH 20 0
BBX 16 28 2 0
BITMAP
0780
0780
0780
0780
0000
0380
0F80
0F80
0F80
0F80
FFFF
FFFF
FFFF
0F80
0F80
0F80
0F80
0F80
0F80
0F80
0F80
0F80
0F80
0FC1
07FF
07FF
03FF
00FC
ENDCHAR
STARTCHAR uni1E6C
ENCODING 7788
SWIDTH 602 0
DWIDTH 20 0
BBX 19 30 1 -5
BITMAP
FFFFE0
FFFFE0
FFFFE0
01F000
01F000
01F000
01F000
01F000
01F000
01F000
01F000
01F000
01F000
01F000
01F000
01F000
01F000
01F000
01F000
01F000
01F000
01F000
01F000
01F000
01F000
000000
00F000
00F000
00F000
00F000
ENDCHAR
STARTCHAR uni1E6D
ENCODING 7789
SWIDTH 602 0
DWIDTH 20 0
BBX 16 28 2 -5
BITMAP
0380
0F80
0F80
0F80
0F80
FFFF
FFFF
FFFF
0F80
0F80
0F80
0F80
0F80
0F80
0F80
0F80
0F80
0F80
0FC1
07FF
07FF
03FF
00FC
0000
01E0
01E0
01E0
01E0
ENDCHAR
STARTCHAR uni1E6E
ENCODING 7790
SWIDTH 602 0
DWIDTH 20 0
BBX 19 29 1 -4
BITMAP
FFFFE0
FFFFE0
FFFFE0
01F000
01F000
01F000
01F000
01F000
01F000
01F000
01F000
01F000
01F000
01F000
01F000
01F000
01F000
01F000
01F000
01F000
01F000
01F000
01F000
01F000
01F000
000000
07FE00
07FE00
07FE00
ENDCHAR
STARTCHAR uni1E6F
ENCODING 7791
SWIDTH 602 0
DWIDTH 20 0
BBX 16 27 2 -4
BITMAP
0380
0F80
0F80
0F80
0F80
FFFF
FFFF
FFFF
0F80
0F80
0F80
0F80
0F80
0F80
0F80
0F80
0F80
0F80
0FC1
07FF
07FF
03FF
00FC
0000
0FFC
0FFC
0FFC
ENDCHAR
STARTCHAR uni1E70
ENCODING 7792
SWIDTH 602 0
DWIDTH 20 0
BBX 19 31 1 -6
BITMAP
FFFFE0
FFFFE0
FFFFE0
01F000
01F000
01F000
01F000
01F000
01F000
01F000
01F000
01F000
01F000
01F000
01F000
01F000
01F000
01F000
01F000
01F000
01F000
01F000
01F000
01F000
01F000
000000
00F000
01F800
03FC00
039C00
079E00
ENDCHAR
STARTCHAR uni1E71
ENCODING 7793
SWIDTH 602 0
DWIDTH 20 0
BBX 16 29 2 -6
BITMAP
0380
0F80
0F80
0F80
0F80
FFFF
FFFF
FFFF
0F80
0F80
0F80
0F80
0F80
0F80
0F80
0F80
0F80
0F80
0FC1
07FF
07FF
03FF
00FC
0000
01E0
03F0
07F8
0738
0F3C
ENDCHAR
STARTCHAR uni1E72
ENCODING 7794
SWIDTH 602 0
DWIDTH 20 0
BBX 17 30 2 -5
BITMAP
F80F80
F80F80
F80F80
F80F80
F80F80
F80F80
F80F80
F80F80
F80F80
F80F80
F80F80
F80F80
F80F80
F80F80
F80F80
F80F80
F80F80
F80F80
F80F80
F80F80
7C1F00
7E3F00
3FFE00
1FFC00
07F800
000000
0F3C00
0F3C00
0F3C00
0F3C00
ENDCHAR
STARTCHAR uni1E73
ENCODING 7795
SWIDTH 602 0
DWIDTH 20 0
BBX 16 23 2 -5
BITMAP
F81F
F81F
F81F
F81F
F81F
F81F
F81F
F81F
F81F
F81F
F81F
F83F
F87F
FFFF
FFFF
7FDF
7F9F
1F1F
0000
1E78
1E78
1E78
1E78
ENDCHAR
STARTCHAR uni1E74
ENCODING 7796
SWIDTH 602 0
DWIDTH 20 0
BBX 17 31 2 -6
BITMAP
F80F80
F80F80
F80F80
F80F80
F80F80
F80F80
F80F80
F80F80
F80F80
F80F80
F80F80
F80F80
F80F80
F80F80
F80F80
F80F80
F80F80
F80F80
F80F80
F80F80
7C1F00
7E3F00
3FFE00
1FFC00
07F800
000000
0F1800
0FF800
1FF800
1FF000
18F000
ENDCHAR
STARTCHAR uni1E75
ENCODING 7797
SWIDTH 602 0
DWIDTH 20 0
BBX 16 24 2 -6
BITMAP
F81F
F81F
F81F
F81F
F81F
F81F
F81F
F81F
F81F
F81F
F81F
F83F
F87F
FFFF
FFFF
7FDF
7F9F
1F1F
0000
0F18
0FF8
1FF8
1FF0
18F0
ENDCHAR
STARTCHAR uni1E76
ENCODING 7798
SWIDTH 602 0
DWIDTH 20 0
BBX 17 31 2 -6
BITMAP
F80F80
F80F80
F80F80
F80F80
F80F80
F80F80
F80F80
F80F80
F80F80
F80F80
F80F80
F80F80
F80F80
F80F80
F80F80
F80F80
F80F80
F80F80
F80F80
F80F80
7C1F00
7E3F00
3FFE00
1FFC00
07F800
000000
01E000
03F000
07F800
073800
0F3C00
ENDCHAR
STARTCHAR uni1E77
ENCODING 7799
SWIDTH 602 0
DWIDTH 20 0
BBX 16 24 2 -6
BITMAP
F81F
F81F
F81F
F81F
F81F
F81F
F81F
F81F
F81F
F81F
F81F
F83F
F87F
FFFF
FFFF
7FDF
7F9F
1F1F
0000
03C0
07E0
0FF0
0E70
1E78
ENDCHAR
STARTCHAR uni1E78
ENCODING 7800
SWIDTH 602 0
DWIDTH 20 0
BBX 17 37 2 0
BITMAP
007C00
00F800
00F000
01E000
03C000
000000
078C00
07FC00
0FFC00
0FF800
0C7800
000000
F80F80
F80F80
F80F80
F80F80
F80F80
F80F80
F80F80
F80F80
F80F80
F80F80
F80F80
F80F80
F80F80
F80F80
F80F80
F80F80
F80F80
F80F80
F80F80
F80F80
7C1F00
7E3F00
3FFE00
1FFC00
07F800
ENDCHAR
STARTCHAR uni1E79
ENCODING 7801
SWIDTH 602 0
DWIDTH 20 0
BBX 16 30 2 0
BITMAP
00F8
01F0
01E0
03C0
0780
0000
0F18
0FF8
1FF8
1FF0
18F0
0000
F81F
F81F
F81F
F81F
F81F
F81F
F81F
F81F
F81F
F81F
F81F
F83F
F87F
FFFF
FFFF
7FDF
7F9F
1F1F
ENDCHAR
STARTCHAR uni1E7A
ENCODING 7802
SWIDTH 602 0
DWIDTH 20 0
BBX 17 34 2 0
BITMAP
0F3C00
0F3C00
0F3C00
0F3C00
000000
0FFC00
0FFC00
0FFC00
000000
F80F80
F80F80
F80F80
F80F80
F80F80
F80F80
F80F80
F80F80
F80F80
F80F80
F80F80
F80F80
F80F80
F80F80
F80F80
F80F80
F80F80
F80F80
F80F80
F80F80
7C1F00
7E3F00
3FFE00
1FFC00
07F800
ENDCHAR
STARTCHAR uni1E7B
ENCODING 7803
SWIDTH 602 0
DWIDTH 20 0
BBX 16 27 2 0
BITMAP
1E78
1E78
1E78
1E78
0000
1FF8
1FF8
1FF8
0000
F81F
F81F
F81F
F81F
F81F
F81F
F81F
F81F
F81F
F81F
F81F
F83F
F87F
FFFF
FFFF
7FDF
7F9F
1F1F
ENDCHAR
STARTCHAR uni1E7C
ENCODING 7804
SWIDTH 602 0
DWIDTH 20 0
BBX 20 31 0 0
BITMAP
03C600
03FE00
07FE00
07FC00
063C00
000000
F800F0
FC00F0
7C01F0
7C01E0
7C01E0
3E03E0
3E03C0
3E03C0
3F07C0
1F0780
1F0780
1F0780
0F8F00
0F8F00
0F8F00
0FDE00
07DE00
07DE00
07FE00
03FC00
03FC00
03FC00
03F800
01F800
01F800
ENDCHAR
STARTCHAR uni1E7D
ENCODING 7805
SWIDTH 602 0
DWIDTH 20 0
BBX 19 24 1 0
BITMAP
078C00
07FC00
0FFC00
0FF800
0C7800
000000
F801E0
FC01C0
7C01C0
7E0380
3E0380
3E0780
3F0700
1F0700
1F8E00
0F8E00
0F9E00
0FDC00
07DC00
07F800
03F800
03F800
03F000
01F000
ENDCHAR
STARTCHAR uni1E7E
ENCODING 7806
SWIDTH 602 0
DWIDTH 20 0
BBX 20 30 0 -5
BITMAP
F800F0
FC00F0
7C01F0
7C01E0
7C01E0
3E03E0
3E03C0
3E03C0
3F07C0
1F0780
1F0780
1F0780
0F8F00
0F8F00
0F8F00
0FDE00
07DE00
07DE00
07FE00
03FC00
03FC00
03FC00
03F800
01F800
01F800
000000
00F000
00F000
00F000
00F000
ENDCHAR
STARTCHAR uni1E7F
ENCODING 7807
SWIDTH 602 0
DWIDTH 20 0
BBX 19 23 1 -5
BITMAP
F801E0
FC01C0
7C01C0
7E0380
3E0380
3E0780
3F0700
1F0700
1F8E00
0F8E00
0F9E00
0FDC00
07DC00
07F800
03F800
03F800
03F000
01F000
000000
01E000
01E000
01E000
01E000
ENDCHAR
STARTCHAR Wgrave
ENCODING 7808
SWIDTH 602 0
DWIDTH 20 0
BBX 20 31 0 0
BITMAP
07C000
03E000
01E000
00F000
007800
000000
F80070
F80070
F87870
F8F870
7CF8E0
7CF8E0
7CFCE0
7CFCE0
7DFCE0
7DFCE0
7DFCE0
7DFCE0
3DFFE0
3FBFC0
3FBFC0
3F9FC0
3F9FC0
3F9FC0
3F1FC0
3F1FC0
1F1FC0
1F1F80
1F0F80
1E0F80
1E0F80
ENDCHAR
STARTCHAR wgrave
ENCODING 7809
SWIDTH 602 0
DWIDTH 20 0
BBX 20 24 0 0
BITMAP
0F8000
07C000
03C000
01E000
00F000
000000
F80070
F80070
F8F870
7CF8E0
7CF8E0
7CFCE0
7DFCE0
7DFCE0
7DFCE0
3FDFC0
3F9FC0
3F9FC0
3F9FC0
3F0FC0
3F0FC0
1F0F80
1F0780
1E0780
ENDCHAR
STARTCHAR Wacute
ENCODING 7810
SWIDTH 602 0
DWIDTH 20 0
BBX 20 31 0 0
BITMAP
003E00
007C00
007800
00F000
01E000
000000
F80070
F80070
F87870
F8F870
7CF8E0
7CF8E0
7CFCE0
7CFCE0
7DFCE0
7DFCE0
7DFCE0
7DFCE0
3DFFE0
3FBFC0
3FBFC0
3F9FC0
3F9FC0
3F9FC0
3F1FC0
3F1FC0
1F1FC0
1F1F80
1F0F80
1E0F80
1E0F80
ENDCHAR
STARTCHAR wacute
ENCODING 7811
SWIDTH 602 0
DWIDTH 20 0
BBX 20 24 0 0
BITMAP
007C00
00F800
00F000
01E000
03C000
000000
F80070
F80070
F8F870
7CF8E0
7CF8E0
7CFCE0
7DFCE0
7DFCE0
7DFCE0
3FDFC0
3F9FC0
3F9FC0
3F9FC0
3F0FC0
3F0FC0
1F0F80
1F0780
1E0780
ENDCHAR
STARTCHAR Wdieresis
ENCODING 7812
SWIDTH 602 0
DWIDTH 20 0
BBX 20 30 0 0
BITMAP
079E00
079E00
079E00
079E00
000000
F80070
F80070
F87870
F8F870
7CF8E0
7CF8E0
7CFCE0
7CFCE0
7DFCE0
7DFCE0
7DFCE0
7DFCE0
3DFFE0
3FBFC0
3FBFC0
3F9FC0
3F9FC0
3F9FC0
3F1FC0
3F1FC0
1F1FC0
1F1F80
1F0F80
1E0F80
1E0F80
ENDCHAR
STARTCHAR wdieresis
ENCODING 7813
SWIDTH 602 0
DWIDTH 20 0
BBX 20 23 0 0
BITMAP
0F3C00
0F3C00
0F3C00
0F3C00
000000
F80070
F80070
F8F870
7CF8E0
7CF8E0
7CFCE0
7DFCE0
7DFCE0
7DFCE0
3FDFC0
3F9FC0
3F9FC0
3F9FC0
3F0FC0
3F0FC0
1F0F80
1F0780
1E0780
ENDCHAR
STARTCHAR uni1E86
ENCODING 7814
SWIDTH 602 0
DWIDTH 20 0
BBX 20 30 0 0
BITMAP
00F000
00F000
00F000
00F000
000000
F80070
F80070
F87870
F8F870
7CF8E0
7CF8E0
7CFCE0
7CFCE0
7DFCE0
7DFCE0
7DFCE0
7DFCE0
3DFFE0
3FBFC0
3FBFC0
3F9FC0
3F9FC0
3F9FC0
3F1FC0
3F1FC0
1F1FC0
1F1F80
1F0F80
1E0F80
1E0F80
ENDCHAR
STARTCHAR uni1E87
ENCODING 7815
SWIDTH 602 0
DWIDTH 20 0
BBX 20 23 0 0
BITMAP
01E000
01E000
01E000
01E000
000000
F80070
F80070
F8F870
7CF8E0
7CF8E0
7CFCE0
7DFCE0
7DFCE0
7DFCE0
3FDFC0
3F9FC0
3F9FC0
3F9FC0
3F0FC0
3F0FC0
1F0F80
1F0780
1E0780
ENDCHAR
STARTCHAR uni1E88
ENCODING 7816
SWIDTH 602 0
DWIDTH 20 0
BBX 20 30 0 -5
BITMAP
F80070
F80070
F87870
F8F870
7CF8E0
7CF8E0
7CFCE0
7CFCE0
7DFCE0
7DFCE0
7DFCE0
7DFCE0
3DFFE0
3FBFC0
3FBFC0
3F9FC0
3F9FC0
3F9FC0
3F1FC0
3F1FC0
1F1FC0
1F1F80
1F0F80
1E0F80
1E0F80
000000
00F000
00F000
00F000
00F000
ENDCHAR
STARTCHAR uni1E89
ENCODING 7817
SWIDTH 602 0
DWIDTH 20 0
BBX 20 23 0 -5
BITMAP
F80070
F80070
F8F870
7CF8E0
7CF8E0
7CFCE0
7DFCE0
7DFCE0
7DFCE0
3FDFC0
3F9FC0
3F9FC0
3F9FC0
3F0FC0
3F0FC0
1F0F80
1F0780
1E0780
000000
00F000
00F000
00F000
00F000
ENDCHAR
STARTCHAR uni1E8A
ENCODING 7818
SWIDTH 602 0
DWIDTH 20 0
BBX 19 30 1 0
BITMAP
01E000
01E000
01E000
01E000
000000
FC01C0
7E0380
7E0780
3F0700
1F0F00
1F8E00
0F9E00
0FDC00
07FC00
07F800
03F800
03F000
01F000
01F800
03F800
03FC00
077E00
0F7E00
0E3F00
1E3F00
1C1F80
3C0F80
380FC0
7007C0
F007E0
ENDCHAR
STARTCHAR uni1E8B
ENCODING 7819
SWIDTH 602 0
DWIDTH 20 0
BBX 19 23 1 0
BITMAP
01E000
01E000
01E000
01E000
000000
FE03C0
7E0780
3F0F00
1F8E00
1FDE00
0FFC00
07F800
03F000
03F000
03F800
03FC00
07FC00
0F7E00
1E3F00
1C3F80
3C1F80
780FC0
F007E0
ENDCHAR
STARTCHAR uni1E8C
ENCODING 7820
SWIDTH 602 0
DWIDTH 20 0
BBX 19 30 1 0
BITMAP
0F3C00
0F3C00
0F3C00
0F3C00
000000
FC01C0
7E0380
7E0780
3F0700
1F0F00
1F8E00
0F9E00
0FDC00
07FC00
07F800
03F800
03F000
01F000
01F800
03F800
03FC00
077E00
0F7E00
0E3F00
1E3F00
1C1F80
3C0F80
380FC0
7007C0
F007E0
ENDCHAR
STARTCHAR uni1E8D
ENCODING 7821
SWIDTH 602 0
DWIDTH 20 0
BBX 19 23 1 0
BITMAP
0F3C00
0F3C00
0F3C00
0F3C00
000000
FE03C0
7E0780
3F0F00
1F8E00
1FDE00
0FFC00
07F800
03F000
03F000
03F800
03FC00
07FC00
0F7E00
1E3F00
1C3F80
3C1F80
780FC0
F007E0
ENDCHAR
STARTCHAR uni1E8E
ENCODING 7822
SWIDTH 602 0
DWIDTH 20 0
BBX 21 30 0 0
BITMAP
00F000
00F000
00F000
00F000
000000
FC0078
7E00F0
7E00E0
3F01E0
3F01C0
1F83C0
0F8380
0FC780
07C700
07EE00
03EE00
03FC00
01FC00
01F800
00F800
00F800
00F800
00F800
00F800
00F800
00F800
00F800
00F800
00F800
00F800
ENDCHAR
STARTCHAR uni1E8F
ENCODING 7823
SWIDTH 602 0
DWIDTH 20 0
BBX 19 30 1 -7
BITMAP
01E000
01E000
01E000
01E000
000000
FC01E0
7C01C0
7C03C0
7E0380
3E0380
3F0700
1F0700
1F8F00
0F8E00
0FDE00
07DC00
07DC00
07F800
03F800
03F800
01F000
01F000
01E000
01E000
03C000
03C000
078000
7F8000
7F0000
7C0000
ENDCHAR
STARTCHAR uni1E90
ENCODING 7824
SWIDTH 602 0
DWIDTH 20 0
BBX 17 31 1 0
BITMAP
00F000
01F800
03FC00
039C00
079E00
000000
7FFF80
7FFF80
7FFF80
001F80
003F00
003F00
007E00
007C00
00FC00
01F800
01F800
03F000
03E000
07E000
0FC000
0FC000
1F8000
1F0000
3F0000
7E0000
7E0000
FC0000
FFFF80
FFFF80
FFFF80
ENDCHAR
STARTCHAR uni1E91
ENCODING 7825
SWIDTH 602 0
DWIDTH 20 0
BBX 17 24 2 0
BITMAP
01E000
03F000
07F800
073800
0F3C00
000000
FFFF80
FFFF80
FFFF80
003F80
007F00
00FE00
01FC00
03F800
07F000
0FE000
1FC000
3F8000
7F0000
7E0000
FFFF80
FFFF80
FFFF80
FFFF80
ENDCHAR
STARTCHAR uni1E92
ENCODING 7826
SWIDTH 602 0
DWIDTH 20 0
BBX 17 30 1 -5
BITMAP
7FFF80
7FFF80
7FFF80
001F80
003F00
003F00
007E00
007C00
00FC00
01F800
01F800
03F000
03E000
07E000
0FC000
0FC000
1F8000
1F0000
3F0000
7E0000
7E0000
FC0000
FFFF80
FFFF80
FFFF80
000000
03C000
03C000
03C000
03C000
ENDCHAR
STARTCHAR uni1E93
ENCODING 7827
SWIDTH 602 0
DWIDTH 20 0
BBX 17 23 2 -5
BITMAP
FFFF80
FFFF80
FFFF80
003F80
007F00
00FE00
01FC00
03F800
07F000
0FE000
1FC000
3F8000
7F0000
7E0000
FFFF80
FFFF80
FFFF80
FFFF80
000000
03C000
03C000
03C000
03C000
ENDCHAR
STARTCHAR uni1E94
ENCODING 7828
SWIDTH 602 0
DWIDTH 20 0
BBX 17 29 1 -4
BITMAP
7FFF80
7FFF80
7FFF80
001F80
003F00
003F00
007E00
007C00
00FC00
01F800
01F800
03F000
03E000
07E000
0FC000
0FC000
1F8000
1F0000
3F0000
7E0000
7E0000
FC0000
FFFF80
FFFF80
FFFF80
000000
1FF800
1FF800
1FF800
ENDCHAR
STARTCHAR uni1E95
ENCODING 7829
SWIDTH 602 0
DWIDTH 20 0
BBX 17 22 2 -4
BITMAP
FFFF80
FFFF80
FFFF80
003F80
007F00
00FE00
01FC00
03F800
07F000
0FE000
1FC000
3F8000
7F0000
7E0000
FFFF80
FFFF80
FFFF80
FFFF80
000000
1FF800
1FF800
1FF800
ENDCHAR
STARTCHAR uni1E96
ENCODING 7830
SWIDTH 602 0
DWIDTH 20 0
BBX 16 30 2 -4
BITMAP
F800
F800
F800
F800
F800
F800
F800
F800
F8F8
F9FC
FBFE
FFFF
FFFF
FE1F
FC1F
F81F
F81F
F81F
F81F
F81F
F81F
F81F
F81F
F81F
F81F
F81F
0000
1FF8
1FF8
1FF8
ENDCHAR
STARTCHAR uni1E97
ENCODING 7831
SWIDTH 602 0
DWIDTH 20 0
BBX 16 28 2 0
BITMAP
3CF0
3CF0
3CF0
3CF0
0000
0380
0F80
0F80
0F80
0F80
FFFF
FFFF
FFFF
0F80
0F80
0F80
0F80
0F80
0F80
0F80
0F80
0F80
0F80
0FC1
07FF
07FF
03FF
00FC
ENDCHAR
STARTCHAR uni1E98
ENCODING 7832
SWIDTH 602 0
DWIDTH 20 0
BBX 20 24 0 0
BITMAP
00E000
01B000
011000
01B000
00E000
000000
F80070
F80070
F8F870
7CF8E0
7CF8E0
7CFCE0
7DFCE0
7DFCE0
7DFCE0
3FDFC0
3F9FC0
3F9FC0
3F9FC0
3F0FC0
3F0FC0
1F0F80
1F0780
1E0780
ENDCHAR
STARTCHAR uni1E99
ENCODING 7833
SWIDTH 602 0
DWIDTH 20 0
BBX 19 31 1 -7
BITMAP
01C000
036000
022000
036000
01C000
000000
FC01E0
7C01C0
7C03C0
7E0380
3E0380
3F0700
1F0700
1F8F00
0F8E00
0FDE00
07DC00
07DC00
07F800
03F800
03F800
01F000
01F000
01E000
01E000
03C000
03C000
078000
7F8000
7F0000
7C0000
ENDCHAR
STARTCHAR uni1EA0
ENCODING 7840
SWIDTH 602 0
DWIDTH 20 0
BBX 20 30 0 -5
BITMAP
00F800
00F800
01FC00
01FC00
01FC00
03FE00
03BE00
03BE00
07BE00
073F00
071F00
071F00
0E1F80
0E0F80
0E0F80
1C0F80
1FFFC0
1FFFC0
3FFFC0
3807C0
3803E0
7003E0
7003E0
7003F0
E001F0
000000
007800
007800
007800
007800
ENDCHAR
STARTCHAR uni1EA1
ENCODING 7841
SWIDTH 602 0
DWIDTH 20 0
BBX 18 23 1 -5
BITMAP
0FF000
3FFC00
3FFE00
307F00
201F00
001F00
001F00
0FFF00
3FFF00
7FFF00
FC1F00
F81F00
F81F00
FC7F00
FFFFC0
7FFFC0
3FCFC0
1F87C0
000000
01E000
01E000
01E000
01E000
ENDCHAR
STARTCHAR uni1EA4
ENCODING 7844
SWIDTH 602 0
DWIDTH 20 0
BBX 20 37 0 0
BITMAP
003E00
007C00
007800
00F000
01E000
000000
00F000
01F800
03FC00
039C00
079E00
000000
00F800
00F800
01FC00
01FC00
01FC00
03FE00
03BE00
03BE00
07BE00
073F00
071F00
071F00
0E1F80
0E0F80
0E0F80
1C0F80
1FFFC0
1FFFC0
3FFFC0
3807C0
3803E0
7003E0
7003E0
7003F0
E001F0
ENDCHAR
STARTCHAR uni1EA5
ENCODING 7845
SWIDTH 602 0
DWIDTH 20 0
BBX 18 30 1 0
BITMAP
007C00
00F800
00F000
01E000
03C000
000000
01E000
03F000
07F800
073800
0F3C00
000000
0FF000
3FFC00
3FFE00
307F00
201F00
001F00
001F00
0FFF00
3FFF00
7FFF00
FC1F00
F81F00
F81F00
FC7F00
FFFFC0
7FFFC0
3FCFC0
1F87C0
ENDCHAR
STARTCHAR uni1EA6
ENCODING 7846
SWIDTH 602 0
DWIDTH 20 0
BBX 20 37 0 0
BITMAP
07C000
03E000
01E000
00F000
007800
000000
00F000
01F800
03FC00
039C00
079E00
000000
00F800
00F800
01FC00
01FC00
01FC00
03FE00
03BE00
03BE00
07BE00
073F00
071F00
071F00
0E1F80
0E0F80
0E0F80
1C0F80
1FFFC0
1FFFC0
3FFFC0
3807C0
3803E0
7003E0
7003E0
7003F0
E001F0
ENDCHAR
STARTCHAR uni1EA7
ENCODING 7847
SWIDTH 602 0
DWIDTH 20 0
BBX 18 30 1 0
BITMAP
0F8000
07C000
03C000
01E000
00F000
000000
01E000
03F000
07F800
073800
0F3C00
000000
0FF000
3FFC00
3FFE00
307F00
201F00
001F00
001F00
0FFF00
3FFF00
7FFF00
FC1F00
F81F00
F81F00
FC7F00
FFFFC0
7FFFC0
3FCFC0
1F87C0
ENDCHAR
STARTCHAR uni1EAA
ENCODING 7850
SWIDTH 602 0
DWIDTH 20 0
BBX 20 37 0 0
BITMAP
03C600
03FE00
07FE00
07FC00
063C00
000000
00F000
01F800
03FC00
039C00
079E00
000000
00F800
00F800
01FC00
01FC00
01FC00
03FE00
03BE00
03BE00
07BE00
073F00
071F00
071F00
0E1F80
0E0F80
0E0F80
1C0F80
1FFFC0
1FFFC0
3FFFC0
3807C0
3803E0
7003E0
7003E0
7003F0
E001F0
ENDCHAR
STARTCHAR uni1EAB
ENCODING 7851
SWIDTH 602 0
DWIDTH 20 0
BBX 18 30 1 0
BITMAP
078C00
07FC00
0FFC00
0FF800
0C7800
000000
01E000
03F000
07F800
073800
0F3C00
000000
0FF000
3FFC00
3FFE00
307F00
201F00
001F00
001F00
0FFF00
3FFF00
7FFF00
FC1F00
F81F00
F81F00
FC7F00
FFFFC0
7FFFC0
3FCFC0
1F87C0
ENDCHAR
STARTCHAR uni1EAC
ENCODING 7852
SWIDTH 602 0
DWIDTH 20 0
BBX 20 36 0 -5
BITMAP
00F000
01F800
03FC00
039C00
079E00
000000
00F800
00F800
01FC00
01FC00
01FC00
03FE00
03BE00
03BE00
07BE00
073F00
071F00
071F00
0E1F80
0E0F80
0E0F80
1C0F80
1FFFC0
1FFFC0
3FFFC0
3807C0
3803E0
7003E0
7003E0
7003F0
E001F0
000000
007800
007800
007800
007800
ENDCHAR
STARTCHAR uni1EAD
ENCODING 7853
SWIDTH 602 0
DWIDTH 20 0
BBX 18 29 1 -5
BITMAP
01E000
03F000
07F800
073800
0F3C00
000000
0FF000
3FFC00
3FFE00
307F00
201F00
001F00
001F00
0FFF00
3FFF00
7FFF00
FC1F00
F81F00
F81F00
FC7F00
FFFFC0
7FFFC0
3FCFC0
1F87C0
000000
01E000
01E000
01E000
01E000
ENDCHAR
STARTCHAR uni1EAE
ENCODING 7854
SWIDTH 602 0
DWIDTH 20 0
BBX 20 37 0 0
BITMAP
003E00
007C00
007800
00F000
01E000
000000
070E00
079E00
03FC00
03FC00
01F800
000000
00F800
00F800
01FC00
01FC00
01FC00
03FE00
03BE00
03BE00
07BE00
073F00
071F00
071F00
0E1F80
0E0F80
0E0F80
1C0F80
1FFFC0
1FFFC0
3FFFC0
3807C0
3803E0
7003E0
7003E0
7003F0
E001F0
ENDCHAR
STARTCHAR uni1EAF
ENCODING 7855
SWIDTH 602 0
DWIDTH 20 0
BBX 18 30 1 0
BITMAP
007C00
00F800
00F000
01E000
03C000
000000
0E1C00
0F3C00
07F800
07F800
03F000
000000
0FF000
3FFC00
3FFE00
307F00
201F00
001F00
001F00
0FFF00
3FFF00
7FFF00
FC1F00
F81F00
F81F00
FC7F00
FFFFC0
7FFFC0
3FCFC0
1F87C0
ENDCHAR
STARTCHAR uni1EB0
ENCODING 7856
SWIDTH 602 0
DWIDTH 20 0
BBX 20 37 0 0
BITMAP
07C000
03E000
01E000
00F000
007800
000000
070E00
079E00
03FC00
03FC00
01F800
000000
00F800
00F800
01FC00
01FC00
01FC00
03FE00
03BE00
03BE00
07BE00
073F00
071F00
071F00
0E1F80
0E0F80
0E0F80
1C0F80
1FFFC0
1FFFC0
3FFFC0
3807C0
3803E0
7003E0
7003E0
7003F0
E001F0
ENDCHAR
STARTCHAR uni1EB1
ENCODING 7857
SWIDTH 602 0
DWIDTH 20 0
BBX 18 30 1 0
BITMAP
0F8000
07C000
03C000
01E000
00F000
000000
0E1C00
0F3C00
07F800
07F800
03F000
000000
0FF000
3FFC00
3FFE00
307F00
201F00
001F00
001F00
0FFF00
3FFF00
7FFF00
FC1F00
F81F00
F81F00
FC7F00
FFFFC0
7FFFC0
3FCFC0
1F87C0
ENDCHAR
STARTCHAR uni1EB4
ENCODING 7860
SWIDTH 602 0
DWIDTH 20 0
BBX 20 37 0 0
BITMAP
03C600
03FE00
07FE00
07FC00
063C00
000000
070E00
079E00
03FC00
03FC00
01F800
000000
00F800
00F800
01FC00
01FC00
01FC00
03FE00
03BE00
03BE00
07BE00
073F00
071F00
071F00
0E1F80
0E0F80
0E0F80
1C0F80
1FFFC0
1FFFC0
3FFFC0
3807C0
3803E0
7003E0
7003E0
7003F0
E001F0
ENDCHAR
STARTCHAR uni1EB5
ENCODING 7861
SWIDTH 602 0
DWIDTH 20 0
BBX 18 30 1 0
BITMAP
078C00
07FC00
0FFC00
0FF800
0C7800
000000
0E1C00
0F3C00
07F800
07F800
03F000
000000
0FF000
3FFC00
3FFE00
307F00
201F00
001F00
001F00
0FFF00
3FFF00
7FFF00
FC1F00
F81F00
F81F00
FC7F00
FFFFC0
7FFFC0
3FCFC0
1F87C0
ENDCHAR
STARTCHAR uni1EB6
ENCODING 7862
SWIDTH 602 0
DWIDTH 20 0
BBX 20 36 0 -5
BITMAP
070E00
079E00
03FC00
03FC00
01F800
000000
00F800
00F800
01FC00
01FC00
01FC00
03FE00
03BE00
03BE00
07BE00
073F00
071F00
071F00
0E1F80
0E0F80
0E0F80
1C0F80
1FFFC0
1FFFC0
3FFFC0
3807C0
3803E0
7003E0
7003E0
7003F0
E001F0
000000
007800
007800
007800
007800
ENDCHAR
STARTCHAR uni1EB7
ENCODING 7863
SWIDTH 602 0
DWIDTH 20 0
BBX 18 29 1 -5
BITMAP
0E1C00
0F3C00
07F800
07F800
03F000
000000
0FF000
3FFC00
3FFE00
307F00
201F00
001F00
001F00
0FFF00
3FFF00
7FFF00
FC1F00
F81F00
F81F00
FC7F00
FFFFC0
7FFFC0
3FCFC0
1F87C0
000000
01E000
01E000
01E000
01E000
ENDCHAR
STARTCHAR uni1EB8
ENCODING 7864
SWIDTH 602 0
DWIDTH 20 0
BBX 16 30 3 -5
BITMAP
FFFE
FFFE
FFFE
F800
F800
F800
F800
F800
F800
F800
FFFC
FFFC
FFFC
F800
F800
F800
F800
F800
F800
F800
F800
F800
FFFF
FFFF
FFFF
0000
0780
0780
0780
0780
ENDCHAR
STARTCHAR uni1EB9
ENCODING 7865
SWIDTH 602 0
DWIDTH 20 0
BBX 18 23 1 -5
BITMAP
03F800
0FFE00
1FFF00
3E0F80
7C0780
7C07C0
F807C0
FFFFC0
FFFFC0
FFFFC0
F80000
F80000
7C0000
7F00C0
3FFFC0
1FFFC0
0FFFC0
03FE00
000000
00F000
00F000
00F000
00F000
ENDCHAR
STARTCHAR uni1EBC
ENCODING 7868
SWIDTH 602 0
DWIDTH 20 0
BBX 16 31 3 0
BITMAP
1E30
1FF0
3FF0
3FE0
31E0
0000
FFFE
FFFE
FFFE
F800
F800
F800
F800
F800
F800
F800
FFFC
FFFC
FFFC
F800
F800
F800
F800
F800
F800
F800
F800
F800
FFFF
FFFF
FFFF
ENDCHAR
STARTCHAR uni1EBD
ENCODING 7869
SWIDTH 602 0
DWIDTH 20 0
BBX 18 24 1 0
BITMAP
078C00
07FC00
0FFC00
0FF800
0C7800
000000
03F800
0FFE00
1FFF00
3E0F80
7C0780
7C07C0
F807C0
FFFFC0
FFFFC0
FFFFC0
F80000
F80000
7C0000
7F00C0
3FFFC0
1FFFC0
0FFFC0
03FE00
ENDCHAR
STARTCHAR uni1EBE
ENCODING 7870
SWIDTH 602 0
DWIDTH 20 0
BBX 16 37 3 0
BITMAP
00F8
01F0
01E0
03C0
0780
0000
03C0
07E0
0FF0
0E70
1E78
0000
FFFE
FFFE
FFFE
F800
F800
F800
F800
F800
F800
F800
FFFC
FFFC
FFFC
F800
F800
F800
F800
F800
F800
F800
F800
F800
FFFF
FFFF
FFFF
ENDCHAR
STARTCHAR uni1EBF
ENCODING 7871
SWIDTH 602 0
DWIDTH 20 0
BBX 18 30 1 0
BITMAP
007C00
00F800
00F000
01E000
03C000
000000
01E000
03F000
07F800
073800
0F3C00
000000
03F800
0FFE00
1FFF00
3E0F80
7C0780
7C07C0
F807C0
FFFFC0
FFFFC0
FFFFC0
F80000
F80000
7C0000
7F00C0
3FFFC0
1FFFC0
0FFFC0
03FE00
ENDCHAR
STARTCHAR uni1EC0
ENCODING 7872
SWIDTH 602 0
DWIDTH 20 0
BBX 16 37 3 0
BITMAP
1F00
0F80
0780
03C0
01E0
0000
03C0
07E0
0FF0
0E70
1E78
0000
FFFE
FFFE
FFFE
F800
F800
F800
F800
F800
F800
F800
FFFC
FFFC
FFFC
F800
F800
F800
F800
F800
F800
F800
F800
F800
FFFF
FFFF
FFFF
ENDCHAR
STARTCHAR uni1EC1
ENCODING 7873
SWIDTH 602 0
DWIDTH 20 0
BBX 18 30 1 0
BITMAP
0F8000
07C000
03C000
01E000
00F000
000000
01E000
03F000
07F800
073800
0F3C00
000000
03F800
0FFE00
1FFF00
3E0F80
7C0780
7C07C0
F807C0
FFFFC0
FFFFC0
FFFFC0
F80000
F80000
7C0000
7F00C0
3FFFC0
1FFFC0
0FFFC0
03FE00
ENDCHAR
STARTCHAR uni1EC4
ENCODING 7876
SWIDTH 602 0
DWIDTH 20 0
BBX 16 37 3 0
BITMAP
0F18
0FF8
1FF8
1FF0
18F0
0000
03C0
07E0
0FF0
0E70
1E78
0000
FFFE
FFFE
FFFE
F800
F800
F800
F800
F800
F800
F800
FFFC
FFFC
FFFC
F800
F800
F800
F800
F800
F800
F800
F800
F800
FFFF
FFFF
FFFF
ENDCHAR
STARTCHAR uni1EC5
ENCODING 7877
SWIDTH 602 0
DWIDTH 20 0
BBX 18 30 1 0
BITMAP
078C00
07FC00
0FFC00
0FF800
0C7800
000000
01E000
03F000
07F800
073800
0F3C00
000000
03F800
0FFE00
1FFF00
3E0F80
7C0780
7C07C0
F807C0
FFFFC0
FFFFC0
FFFFC0
F80000
F80000
7C0000
7F00C0
3FFFC0
1FFFC0
0FFFC0
03FE00
ENDCHAR
STARTCHAR uni1EC6
ENCODING 7878
SWIDTH 602 0
DWIDTH 20 0
BBX 16 36 3 -5
BITMAP
0F00
1F80
3FC0
39C0
79E0
0000
FFFE
FFFE
FFFE
F800
F800
F800
F800
F800
F800
F800
FFFC
FFFC
FFFC
F800
F800
F800
F800
F800
F800
F800
F800
F800
FFFF
FFFF
FFFF
0000
0780
0780
0780
0780
ENDCHAR
STARTCHAR uni1EC7
ENCODING 7879
SWIDTH 602 0
DWIDTH 20 0
BBX 18 29 1 -5
BITMAP
01E000
03F000
07F800
073800
0F3C00
000000
03F800
0FFE00
1FFF00
3E0F80
7C0780
7C07C0
F807C0
FFFFC0
FFFFC0
FFFFC0
F80000
F80000
7C0000
7F00C0
3FFFC0
1FFFC0
0FFFC0
03FE00
000000
00F000
00F000
00F000
00F000
ENDCHAR
STARTCHAR uni1ECA
ENCODING 7882
SWIDTH 602 0
DWIDTH 20 0
BBX 17 30 2 -5
BITMAP
FFFF80
FFFF80
FFFF80
03E000
03E000
03E000
03E000
03E000
03E000
03E000
03E000
03E000
03E000
03E000
03E000
03E000
03E000
03E000
03E000
03E000
03E000
03E000
FFFF80
FFFF80
FFFF80
000000
01E000
01E000
01E000
01E000
ENDCHAR
STARTCHAR uni1ECB
ENCODING 7883
SWIDTH 602 0
DWIDTH 20 0
BBX 12 31 3 -5
BITMAP
01F0
01F0
01F0
01F0
01F0
0000
0000
0000
FFF0
FFF0
FFF0
01F0
01F0
01F0
01F0
01F0
01F0
01F0
01F0
01F0
01F0
01F0
01F0
01F0
01F0
01F0
0000
03C0
03C0
03C0
03C0
ENDCHAR
STARTCHAR uni1ECC
ENCODING 7884
SWIDTH 602 0
DWIDTH 20 0
BBX 20 30 0 -5
BITMAP
01F800
0FFF00
1FFF80
3F0FC0
3E07C0
7C03E0
7C03E0
7801E0
F801F0
F801F0
F801F0
F801F0
F801F0
F801F0
F801F0
F801F0
F801F0
7801E0
7C03E0
7C03E0
3E07C0
3F0FC0
1FFF80
07FE00
01F800
000000
00F000
00F000
00F000
00F000
ENDCHAR
STARTCHAR uni1ECD
ENCODING 7885
SWIDTH 602 0
DWIDTH 20 0
BBX 19 23 1 -5
BITMAP
03F800
0FFE00
1FFF00
3E0F80
7C07C0
7C07C0
F803E0
F803E0
F803E0
F803E0
F803E0
F803E0
7C07C0
7C07C0
3E0F80
1FFF00
0FFE00
03F800
000000
00F000
00F000
00F000
00F000
ENDCHAR
STARTCHAR uni1ED0
ENCODING 7888
SWIDTH 602 0
DWIDTH 20 0
BBX 20 37 0 0
BITMAP
003E00
007C00
007800
00F000
01E000
000000
00F000
01F800
03FC00
039C00
079E00
000000
01F800
0FFF00
1FFF80
3F0FC0
3E07C0
7C03E0
7C03E0
7801E0
F801F0
F801F0
F801F0
F801F0
F801F0
F801F0
F801F0
F801F0
F801F0
7801E0
7C03E0
7C03E0
3E07C0
3F0FC0
1FFF80
07FE00
01F800
ENDCHAR
STARTCHAR uni1ED1
ENCODING 7889
SWIDTH 602 0
DWIDTH 20 0
BBX 19 30 1 0
BITMAP
007C00
00F800
00F000
01E000
03C000
000000
01E000
03F000
07F800
073800
0F3C00
000000
03F800
0FFE00
1FFF00
3E0F80
7C07C0
7C07C0
F803E0
F803E0
F803E0
F803E0
F803E0
F803E0
7C07C0
7C07C0
3E0F80
1FFF00
0FFE00
03F800
ENDCHAR
STARTCHAR uni1ED2
ENCODING 7890
SWIDTH 602 0
DWIDTH 20 0
BBX 20 37 0 0
BITMAP
07C000
03E000
01E000
00F000
007800
000000
00F000
01F800
03FC00
039C00
079E00
000000
01F800
0FFF00
1FFF80
3F0FC0
3E07C0
7C03E0
7C03E0
7801E0
F801F0
F801F0
F801F0
F801F0
F801F0
F801F0
F801F0
F801F0
F801F0
7801E0
7C03E0
7C03E0
3E07C0
3F0FC0
1FFF80
07FE00
01F800
ENDCHAR
STARTCHAR uni1ED3
ENCODING 7891
SWIDTH 602 0
DWIDTH 20 0
BBX 19 30 1 0
BITMAP
0F8000
07C000
03C000
01E000
00F000
000000
01E000
03F000
07F800
073800
0F3C00
000000
03F800
0FFE00
1FFF00
3E0F80
7C07C0
7C07C0
F803E0
F803E0
F803E0
F803E0
F803E0
F803E0
7C07C0
7C07C0
3E0F80
1FFF00
0FFE00
03F800
ENDCHAR
STARTCHAR uni1ED6
ENCODING 7894
SWIDTH 602 0
DWIDTH 20 0
BBX 20 37 0 0
BITMAP
03C600
03FE00
07FE00
07FC00
063C00
000000
00F000
01F800
03FC00
039C00
079E00
000000
01F800
0FFF00
1FFF80
3F0FC0
3E07C0
7C03E0
7C03E0
7801E0
F801F0
F801F0
F801F0
F801F0
F801F0
F801F0
F801F0
F801F0
F801F0
7801E0
7C03E0
7C03E0
3E07C0
3F0FC0
1FFF80
07FE00
01F800
ENDCHAR
STARTCHAR uni1ED7
ENCODING 7895
SWIDTH 602 0
DWIDTH 20 0
BBX 19 30 1 0
BITMAP
078C00
07FC00
0FFC00
0FF800
0C7800
000000
01E000
03F000
07F800
073800
0F3C00
000000
03F800
0FFE00
1FFF00
3E0F80
7C07C0
7C07C0
F803E0
F803E0
F803E0
F803E0
F803E0
F803E0
7C07C0
7C07C0
3E0F80
1FFF00
0FFE00
03F800
ENDCHAR
STARTCHAR uni1ED8
ENCODING 7896
SWIDTH 602 0
DWIDTH 20 0
BBX 20 36 0 -5
BITMAP
00F000
01F800
03FC00
039C00
079E00
000000
01F800
0FFF00
1FFF80
3F0FC0
3E07C0
7C03E0
7C03E0
7801E0
F801F0
F801F0
F801F0
F801F0
F801F0
F801F0
F801F0
F801F0
F801F0
7801E0
7C03E0
7C03E0
3E07C0
3F0FC0
1FFF80
07FE00
01F800
000000
00F000
00F000
00F000
00F000
ENDCHAR
STARTCHAR uni1ED9
ENCODING 7897
SWIDTH 602 0
DWIDTH 20 0
BBX 19 29 1 -5
BITMAP
00F000
01F800
03FC00
039C00
079E00
000000
03F800
0FFE00
1FFF00
3E0F80
7C07C0
7C07C0
F803E0
F803E0
F803E0
F803E0
F803E0
F803E0
7C07C0
7C07C0
3E0F80
1FFF00
0FFE00
03F800
000000
00F000
00F000
00F000
00F000
ENDCHAR
STARTCHAR uni1EDA
ENCODING 7898
SWIDTH 602 0
DWIDTH 20 0
BBX 24 31 0 0
BITMAP
0007C0
000F80
000F00
001E00
003C00
000000
01F83F
0FFF3F
1FFFBF
3F0FFF
3E07FF
7C03FF
7C03EF
7801EF
F801FE
F801FE
F801F8
F801F0
F801F0
F801F0
F801F0
F801F0
F801F0
7801E0
7C03E0
7C03E0
3E07C0
3F0FC0
1FFF80
07FE00
01F800
ENDCHAR
STARTCHAR uni1EDB
ENCODING 7899
SWIDTH 602 0
DWIDTH 20 0
BBX 23 24 1 0
BITMAP
0007C0
000F80
000F00
001E00
003C00
000000
03F87E
0FFE7E
1FFF7E
3E0FFE
7C07FE
7C07FE
F803FE
F803FE
F803FC
F803FC
F803F0
F803E0
7C07C0
7C07C0
3E0F80
1FFF00
0FFE00
03F800
ENDCHAR
STARTCHAR uni1EDC
ENCODING 7900
SWIDTH 602 0
DWIDTH 20 0
BBX 24 31 0 0
BITMAP
00F800
007C00
003C00
001E00
000F00
000000
01F83F
0FFF3F
1FFFBF
3F0FFF
3E07FF
7C03FF
7C03EF
7801EF
F801FE
F801FE
F801F8
F801F0
F801F0
F801F0
F801F0
F801F0
F801F0
7801E0
7C03E0
7C03E0
3E07C0
3F0FC0
1FFF80
07FE00
01F800
ENDCHAR
STARTCHAR uni1EDD
ENCODING 7901
SWIDTH 602 0
DWIDTH 20 0
BBX 23 24 1 0
BITMAP
00F800
007C00
003C00
001E00
000F00
000000
03F87E
0FFE7E
1FFF7E
3E0FFE
7C07FE
7C07FE
F803FE
F803FE
F803FC
F803FC
F803F0
F803E0
7C07C0
7C07C0
3E0F80
1FFF00
0FFE00
03F800
ENDCHAR
STARTCHAR uni1EE0
ENCODING 7904
SWIDTH 602 0
DWIDTH 20 0
BBX 24 31 0 0
BITMAP
0078C0
007FC0
00FFC0
00FF80
00C780
000000
01F83F
0FFF3F
1FFFBF
3F0FFF
3E07FF
7C03FF
7C03EF
7801EF
F801FE
F801FE
F801F8
F801F0
F801F0
F801F0
F801F0
F801F0
F801F0
7801E0
7C03E0
7C03E0
3E07C0
3F0FC0
1FFF80
07FE00
01F800
ENDCHAR
STARTCHAR uni1EE1
ENCODING 7905
SWIDTH 602 0
DWIDTH 20 0
BBX 23 24 1 0
BITMAP
0078C0
007FC0
00FFC0
00FF80
00C780
000000
03F87E
0FFE7E
1FFF7E
3E0FFE
7C07FE
7C07FE
F803FE
F803FE
F803FC
F803FC
F803F0
F803E0
7C07C0
7C07C0
3E0F80
1FFF00
0FFE00
03F800
ENDCHAR
STARTCHAR uni1EE2
ENCODING 7906
SWIDTH 602 0
DWIDTH 20 0
BBX 24 30 0 -5
BITMAP
01F83F
0FFF3F
1FFFBF
3F0FFF
3E07FF
7C03FF
7C03EF
7801EF
F801FE
F801FE
F801F8
F801F0
F801F0
F801F0
F801F0
F801F0
F801F0
7801E0
7C03E0
7C03E0
3E07C0
3F0FC0
1FFF80
07FE00
01F800
000000
007800
007800
007800
007800
ENDCHAR
STARTCHAR uni1EE3
ENCODING 7907
SWIDTH 602 0
DWIDTH 20 0
BBX 23 23 1 -5
BITMAP
03F87E
0FFE7E
1FFF7E
3E0FFE
7C07FE
7C07FE
F803FE
F803FE
F803FC
F803FC
F803F0
F803E0
7C07C0
7C07C0
3E0F80
1FFF00
0FFE00
03F800
000000
00F000
00F000
00F000
00F000
ENDCHAR
STARTCHAR uni1EE4
ENCODING 7908
SWIDTH 602 0
DWIDTH 20 0
BBX 17 30 2 -5
BITMAP
F80F80
F80F80
F80F80
F80F80
F80F80
F80F80
F80F80
F80F80
F80F80
F80F80
F80F80
F80F80
F80F80
F80F80
F80F80
F80F80
F80F80
F80F80
F80F80
F80F80
7C1F00
7E3F00
3FFE00
1FFC00
07F800
000000
01E000
01E000
01E000
01E000
ENDCHAR
STARTCHAR uni1EE5
ENCODING 7909
SWIDTH 602 0
DWIDTH 20 0
BBX 16 23 2 -5
BITMAP
F81F
F81F
F81F
F81F
F81F
F81F
F81F
F81F
F81F
F81F
F81F
F83F
F87F
FFFF
FFFF
7FDF
7F9F
1F1F
0000
03C0
03C0
03C0
03C0
ENDCHAR
STARTCHAR uni1EE8
ENCODING 7912
SWIDTH 602 0
DWIDTH 20 0
BBX 21 31 2 0
BITMAP
001F00
003E00
003C00
007800
00F000
000000
F80FF8
F80FF8
F80FF8
F80FF8
F80FF8
F80FF8
F80FF8
F80FF8
F80FF0
F80FF0
F80FC0
F80F80
F80F80
F80F80
F80F80
F80F80
F80F80
F80F80
F80F80
F80F80
7C1F00
7E3F00
3FFE00
1FFC00
07F800
ENDCHAR
STARTCHAR uni1EE9
ENCODING 7913
SWIDTH 602 0
DWIDTH 20 0
BBX 21 24 2 0
BITMAP
001F00
003E00
003C00
007800
00F000
000000
F81FF8
F81FF8
F81FF8
F81FF8
F81FF8
F81FF8
F81F78
F81F78
F81FF0
F81FF0
F81FC0
F83F00
F87F00
FFFF00
FFFF00
7FDF00
7F9F00
1F1F00
ENDCHAR
STARTCHAR uni1EEA
ENCODING 7914
SWIDTH 602 0
DWIDTH 20 0
BBX 21 31 2 0
BITMAP
03E000
01F000
00F000
007800
003C00
000000
F80FF8
F80FF8
F80FF8
F80FF8
F80FF8
F80FF8
F80FF8
F80FF8
F80FF0
F80FF0
F80FC0
F80F80
F80F80
F80F80
F80F80
F80F80
F80F80
F80F80
F80F80
F80F80
7C1F00
7E3F00
3FFE00
1FFC00
07F800
ENDCHAR
STARTCHAR uni1EEB
ENCODING 7915
SWIDTH 602 0
DWIDTH 20 0
BBX 21 24 2 0
BITMAP
03E000
01F000
00F000
007800
003C00
000000
F81FF8
F81FF8
F81FF8
F81FF8
F81FF8
F81FF8
F81F78
F81F78
F81FF0
F81FF0
F81FC0
F83F00
F87F00
FFFF00
FFFF00
7FDF00
7F9F00
1F1F00
ENDCHAR
STARTCHAR uni1EEE
ENCODING 7918
SWIDTH 602 0
DWIDTH 20 0
BBX 21 31 2 0
BITMAP
01E300
01FF00
03FF00
03FE00
031E00
000000
F80FF8
F80FF8
F80FF8
F80FF8
F80FF8
F80FF8
F80FF8
F80FF8
F80FF0
F80FF0
F80FC0
F80F80
F80F80
F80F80
F80F80
F80F80
F80F80
F80F80
F80F80
F80F80
7C1F00
7E3F00
3FFE00
1FFC00
07F800
ENDCHAR
STARTCHAR uni1EEF
ENCODING 7919
SWIDTH 602 0
DWIDTH 20 0
BBX 21 24 2 0
BITMAP
01E300
01FF00
03FF00
03FE00
031E00
000000
F81FF8
F81FF8
F81FF8
F81FF8
F81FF8
F81FF8
F81F78
F81F78
F81FF0
F81FF0
F81FC0
F83F00
F87F00
FFFF00
FFFF00
7FDF00
7F9F00
1F1F00
ENDCHAR
STARTCHAR uni1EF0
ENCODING 7920
SWIDTH 602 0
DWIDTH 20 0
BBX 21 30 2 -5
BITMAP
F80FF8
F80FF8
F80FF8
F80FF8
F80FF8
F80FF8
F80FF8
F80FF8
F80FF0
F80FF0
F80FC0
F80F80
F80F80
F80F80
F80F80
F80F80
F80F80
F80F80
F80F80
F80F80
7C1F00
7E3F00
3FFE00
1FFC00
07F800
000000
01E000
01E000
01E000
01E000
ENDCHAR
STARTCHAR uni1EF1
ENCODING 7921
SWIDTH 602 0
DWIDTH 20 0
BBX 21 23 2 -5
BITMAP
F81FF8
F81FF8
F81FF8
F81FF8
F81FF8
F81FF8
F81F78
F81F78
F81FF0
F81FF0
F81FC0
F83F00
F87F00
FFFF00
FFFF00
7FDF00
7F9F00
1F1F00
000000
01E000
01E000
01E000
01E000
ENDCHAR
STARTCHAR Ygrave
ENCODING 7922
SWIDTH 602 0
DWIDTH 20 0
BBX 21 31 0 0
BITMAP
07C000
03E000
01E000
00F000
007800
000000
FC0078
7E00F0
7E00E0
3F01E0
3F01C0
1F83C0
0F8380
0FC780
07C700
07EE00
03EE00
03FC00
01FC00
01F800
00F800
00F800
00F800
00F800
00F800
00F800
00F800
00F800
00F800
00F800
00F800
ENDCHAR
STARTCHAR ygrave
ENCODING 7923
SWIDTH 602 0
DWIDTH 20 0
BBX 19 31 1 -7
BITMAP
0F8000
07C000
03C000
01E000
00F000
000000
FC01E0
7C01C0
7C03C0
7E0380
3E0380
3F0700
1F0700
1F8F00
0F8E00
0FDE00
07DC00
07DC00
07F800
03F800
03F800
01F000
01F000
01E000
01E000
03C000
03C000
078000
7F8000
7F0000
7C0000
ENDCHAR
STARTCHAR uni1EF4
ENCODING 7924
SWIDTH 602 0
DWIDTH 20 0
BBX 21 30 0 -5
BITMAP
FC0078
7E00F0
7E00E0
3F01E0
3F01C0
1F83C0
0F8380
0FC780
07C700
07EE00
03EE00
03FC00
01FC00
01F800
00F800
00F800
00F800
00F800
00F800
00F800
00F800
00F800
00F800
00F800
00F800
000000
007800
007800
007800
007800
ENDCHAR
STARTCHAR uni1EF5
ENCODING 7925
SWIDTH 602 0
DWIDTH 20 0
BBX 19 30 1 -12
BITMAP
FC01E0
7C01C0
7C03C0
7E0380
3E0380
3F0700
1F0700
1F8F00
0F8E00
0FDE00
07DC00
07DC00
07F800
03F800
03F800
01F000
01F000
01E000
01E000
03C000
03C000
078000
7F8000
7F0000
7C0000
000000
078000
078000
078000
078000
ENDCHAR
STARTCHAR uni1EF8
ENCODING 7928
SWIDTH 602 0
DWIDTH 20 0
BBX 21 31 0 0
BITMAP
03C600
03FE00
07FE00
07FC00
063C00
000000
FC0078
7E00F0
7E00E0
3F01E0
3F01C0
1F83C0
0F8380
0FC780
07C700
07EE00
03EE00
03FC00
01FC00
01F800
00F800
00F800
00F800
00F800
00F800
00F800
00F800
00F800
00F800
00F800
00F800
ENDCHAR
STARTCHAR uni1EF9
ENCODING 7929
SWIDTH 602 0
DWIDTH 20 0
BBX 19 31 1 -7
BITMAP
078C00
07FC00
0FFC00
0FF800
0C7800
000000
FC01E0
7C01C0
7C03C0
7E0380
3E0380
3F0700
1F0700
1F8F00
0F8E00
0FDE00
07DC00
07DC00
07F800
03F800
03F800
01F000
01F000
01E000
01E000
03C000
03C000
078000
7F8000
7F0000
7C0000
ENDCHAR
STARTCHAR uni2000
ENCODING 8192
SWIDTH 602 0
DWIDTH 20 0
BBX 1 1 0 0
BITMAP
00
ENDCHAR
STARTCHAR uni2001
ENCODING 8193
SWIDTH 602 0
DWIDTH 20 0
BBX 1 1 0 0
BITMAP
00
ENDCHAR
STARTCHAR uni2002
ENCODING 8194
SWIDTH 602 0
DWIDTH 20 0
BBX 1 1 0 0
BITMAP
00
ENDCHAR
STARTCHAR uni2003
ENCODING 8195
SWIDTH 602 0
DWIDTH 20 0
BBX 1 1 0 0
BITMAP
00
ENDCHAR
STARTCHAR uni2004
ENCODING 8196
SWIDTH 602 0
DWIDTH 20 0
BBX 1 1 0 0
BITMAP
00
ENDCHAR
STARTCHAR uni2005
ENCODING 8197
SWIDTH 602 0
DWIDTH 20 0
BBX 1 1 0 0
BITMAP
00
ENDCHAR
STARTCHAR uni2006
ENCODING 8198
SWIDTH 602 0
DWIDTH 20 0
BBX 1 1 0 0
BITMAP
00
ENDCHAR
STARTCHAR uni2007
ENCODING 8199
SWIDTH 602 0
DWIDTH 20 0
BBX 1 1 0 0
BITMAP
00
ENDCHAR
STARTCHAR uni2008
ENCODING 8200
SWIDTH 602 0
DWIDTH 20 0
BBX 1 1 0 0
BITMAP
00
ENDCHAR
STARTCHAR uni2009
ENCODING 8201
SWIDTH 602 0
DWIDTH 20 0
BBX 1 1 0 0
BITMAP
00
ENDCHAR
STARTCHAR uni200A
ENCODING 8202
SWIDTH 602 0
DWIDTH 20 0
BBX 1 1 0 0
BITMAP
00
ENDCHAR
STARTCHAR uni2010
ENCODING 8208
SWIDTH 602 0
DWIDTH 20 0
BBX 14 3 3 10
BITMAP
FFFC
FFFC
FFFC
ENDCHAR
STARTCHAR uni2011
ENCODING 8209
SWIDTH 602 0
DWIDTH 20 0
BBX 14 3 3 10
BITMAP
FFFC
FFFC
FFFC
ENDCHAR
STARTCHAR figuredash
ENCODING 8210
SWIDTH 602 0
DWIDTH 20 0
BBX 16 3 2 9
BITMAP
FFFF
FFFF
FFFF
ENDCHAR
STARTCHAR endash
ENCODING 8211
SWIDTH 602 0
DWIDTH 20 0
BBX 16 3 2 9
BITMAP
FFFF
FFFF
FFFF
ENDCHAR
STARTCHAR emdash
ENCODING 8212
SWIDTH 602 0
DWIDTH 20 0
BBX 18 3 1 9
BITMAP
FFFFC0
FFFFC0
FFFFC0
ENDCHAR
STARTCHAR afii00208
ENCODING 8213
SWIDTH 602 0
DWIDTH 20 0
BBX 18 3 1 9
BITMAP
FFFFC0
FFFFC0
FFFFC0
ENDCHAR
STARTCHAR quoteleft
ENCODING 8216
SWIDTH 602 0
DWIDTH 20 0
BBX 6 11 7 15
BITMAP
1C
7C
78
F0
F0
FC
FC
FC
FC
FC
FC
ENDCHAR
STARTCHAR quoteright
ENCODING 8217
SWIDTH 602 0
DWIDTH 20 0
BBX 6 11 7 15
BITMAP
FC
FC
FC
FC
FC
FC
3C
3C
78
F8
E0
ENDCHAR
STARTCHAR quotesinglbase
ENCODING 8218
SWIDTH 602 0
DWIDTH 20 0
BBX 6 12 7 -6
BITMAP
FC
FC
FC
FC
FC
FC
3C
3C
3C
78
F8
E0
ENDCHAR
STARTCHAR quotereversed
ENCODING 8219
SWIDTH 602 0
DWIDTH 20 0
BBX 6 11 7 15
BITMAP
FC
FC
FC
FC
FC
FC
F0
F0
78
7C
1C
ENDCHAR
STARTCHAR quotedblleft
ENCODING 8220
SWIDTH 602 0
DWIDTH 20 0
BBX 14 10 3 16
BITMAP
381C
783C
F078
E070
E070
F87C
F87C
F87C
F87C
F87C
ENDCHAR
STARTCHAR quotedblright
ENCODING 8221
SWIDTH 602 0
DWIDTH 20 0
BBX 14 10 3 16
BITMAP
F87C
F87C
F87C
F87C
F87C
381C
381C
783C
F078
E070
ENDCHAR
STARTCHAR quotedblbase
ENCODING 8222
SWIDTH 602 0
DWIDTH 20 0
BBX 14 11 3 -6
BITMAP
F87C
F87C
F87C
F87C
F87C
381C
381C
381C
783C
F078
E070
ENDCHAR
STARTCHAR uni201F
ENCODING 8223
SWIDTH 602 0
DWIDTH 20 0
BBX 14 10 3 16
BITMAP
F87C
F87C
F87C
F87C
F87C
E070
E070
F078
783C
381C
ENDCHAR
STARTCHAR dagger
ENCODING 8224
SWIDTH 602 0
DWIDTH 20 0
BBX 15 31 3 -6
BITMAP
07C0
07C0
07C0
07C0
07C0
07C0
07C0
07C0
07C0
FFFE
FFFE
FFFE
07C0
07C0
07C0
07C0
07C0
07C0
07C0
07C0
07C0
07C0
07C0
07C0
07C0
07C0
07C0
07C0
07C0
07C0
07C0
ENDCHAR
STARTCHAR daggerdbl
ENCODING 8225
SWIDTH 602 0
DWIDTH 20 0
BBX 15 31 3 -6
BITMAP
07C0
07C0
07C0
07C0
07C0
07C0
07C0
07C0
07C0
FFFE
FFFE
FFFE
07C0
07C0
07C0
07C0
07C0
07C0
07C0
FFFE
FFFE
FFFE
07C0
07C0
07C0
07C0
07C0
07C0
07C0
07C0
07C0
ENDCHAR
STARTCHAR bullet
ENCODING 8226
SWIDTH 602 0
DWIDTH 20 0
BBX 13 13 4 2
BITMAP
FFF8
FFF8
FFF8
FFF8
FFF8
FFF8
FFF8
FFF8
FFF8
FFF8
FFF8
FFF8
FFF8
ENDCHAR
STARTCHAR ellipsis
ENCODING 8230
SWIDTH 602 0
DWIDTH 20 0
BBX 17 4 2 0
BITMAP
F1E780
F1E780
F1E780
F1E780
ENDCHAR
STARTCHAR perthousand
ENCODING 8240
SWIDTH 602 0
DWIDTH 20 0
BBX 20 25 0 0
BITMAP
7C1800
7C3000
EE3000
EE6000
EE6000
EEE000
EEC000
EEC000
EF8000
7D8000
7F0000
030000
070000
060000
07F3E0
0DF3E0
0FBF70
1BBF70
1BBF70
33BF70
33BF70
33BF70
63BF70
61F3E0
C1F3E0
ENDCHAR
STARTCHAR guilsinglleft
ENCODING 8249
SWIDTH 602 0
DWIDTH 20 0
BBX 10 16 5 1
BITMAP
0100
0380
07C0
0F80
1F00
1F00
3E00
7E00
FC00
7E00
3F00
1F00
0F80
07C0
0380
0100
ENDCHAR
STARTCHAR guilsinglright
ENCODING 8250
SWIDTH 602 0
DWIDTH 20 0
BBX 10 16 5 1
BITMAP
2000
7000
F800
7C00
3E00
3F00
1F80
0FC0
1F80
1F00
3F00
3E00
7C00
F800
7000
2000
ENDCHAR
STARTCHAR uni203D
ENCODING 8253
SWIDTH 602 0
DWIDTH 20 0
BBX 17 25 2 0
BITMAP
1FF000
FFFE00
FFFF00
F3FF80
E3EF80
E3EF80
E3EF80
03FF80
03FF00
03FE00
03FC00
01F000
03E000
07C000
0FC000
1FC000
1FC000
1F0000
000000
000000
000000
1FE000
1FE000
1FE000
1FE000
ENDCHAR
STARTCHAR fraction
ENCODING 8260
SWIDTH 602 0
DWIDTH 20 0
BBX 20 25 0 0
BITMAP
0000F0
0000E0
0001C0
0003C0
000380
000700
000F00
000E00
001C00
003C00
003800
007000
00F000
00E000
01C000
03C000
038000
070000
0F0000
0E0000
1C0000
3C0000
380000
700000
F00000
ENDCHAR
STARTCHAR oneinferior
ENCODING 8321
SWIDTH 602 0
DWIDTH 20 0
BBX 6 12 -5 -7
BITMAP
F0
F0
30
30
30
30
30
30
30
30
FC
FC
ENDCHAR
STARTCHAR twoinferior
ENCODING 8322
SWIDTH 602 0
DWIDTH 20 0
BBX 7 12 -4 -7
BITMAP
78
FE
8E
06
06
0E
1C
38
70
E0
FE
FE
ENDCHAR
STARTCHAR threeinferior
ENCODING 8323
SWIDTH 602 0
DWIDTH 20 0
BBX 6 12 -5 -7
BITMAP
78
FC
8C
0C
1C
70
78
1C
0C
8C
F8
F0
ENDCHAR
STARTCHAR uni20A5
ENCODING 8357
SWIDTH 602 0
DWIDTH 20 0
BBX 20 32 1 -7
BITMAP
0001F0
0001E0
0003E0
0003C0
0007C0
000780
000F80
F9EFC0
FBFFC0
FBFFE0
FFFFE0
FFFFE0
FDFFE0
F9FBE0
F9FBE0
F9F3E0
F9F3E0
F9F3E0
FBF3E0
FBF3E0
FFF3E0
FFF3E0
FFF3E0
FFF3E0
FFF3E0
1E0000
1E0000
3C0000
3C0000
780000
780000
F00000
ENDCHAR
STARTCHAR uni20A6
ENCODING 8358
SWIDTH 602 0
DWIDTH 20 0
BBX 18 25 2 0
BITMAP
F80780
FC0780
FC0780
FE0780
FE0780
FF0780
FFFFC0
FFFFC0
FFFFC0
FFFFC0
F7C780
F7E780
F3E780
F3F780
FFFFC0
FFFFC0
FFFFC0
FFFFC0
F07F80
F07F80
F03F80
F03F80
F01F80
F01F80
F00F80
ENDCHAR
STARTCHAR uni20A9
ENCODING 8361
SWIDTH 602 0
DWIDTH 20 0
BBX 20 25 0 0
BITMAP
F80070
F80070
F87870
F8F870
7CF8E0
7CF8E0
7FFFE0
7FFFE0
7FFFE0
7FFFE0
7DFCE0
7DFCE0
3DFFE0
3FBFC0
7FFFE0
7FFFE0
7FFFE0
7FFFE0
3F1FC0
3F1FC0
1F1FC0
1F1F80
1F0F80
1E0F80
1E0F80
ENDCHAR
STARTCHAR Euro
ENCODING 8364
SWIDTH 602 0
DWIDTH 20 0
BBX 24 25 -4 0
BITMAP
0007FE
001FFF
007FFF
00FE03
01F800
01F000
FFFFC0
FFFFC0
FFFFC0
FFFFC0
07C000
07C000
07C000
07C000
FFFFC0
FFFFC0
FFFFC0
FFFFC0
03F000
01F801
01FE07
00FFFF
007FFF
001FFF
0007F8
ENDCHAR
STARTCHAR uni20AD
ENCODING 8365
SWIDTH 602 0
DWIDTH 20 0
BBX 18 25 2 0
BITMAP
F807C0
F80700
F80F00
F81E00
F83C00
F83800
F87800
F8F000
F9E000
F9C000
FFFFC0
FFFFC0
FFFFC0
FFFFC0
FFF000
FBF000
F9F800
F8F800
F8FC00
F87E00
F87E00
F83F00
F81F80
F81F80
F80FC0
ENDCHAR
STARTCHAR trademark
ENCODING 8482
SWIDTH 602 0
DWIDTH 20 0
BBX 20 13 0 12
BITMAP
FFF0F0
FFF8F0
FFF8F0
1C79F0
1C7DF0
1C7DF0
1C7D70
1C6F70
1C6F70
1C6E70
1C6670
1C6070
1C6070
ENDCHAR
STARTCHAR uni212A
ENCODING 8490
SWIDTH 602 0
DWIDTH 20 0
BBX 18 25 2 0
BITMAP
F807C0
F80700
F80F00
F81E00
F83C00
F83800
F87800
F8F000
F9E000
F9C000
FFC000
FFC000
FFC000
FFE000
FFF000
FBF000
F9F800
F8F800
F8FC00
F87E00
F87E00
F83F00
F81F80
F81F80
F80FC0
ENDCHAR
STARTCHAR uni212B
ENCODING 8491
SWIDTH 602 0
DWIDTH 20 0
BBX 20 31 0 0
BITMAP
007000
00D800
008800
00D800
007000
000000
00F800
00F800
01FC00
01FC00
01FC00
03FE00
03BE00
03BE00
07BE00
073F00
071F00
071F00
0E1F80
0E0F80
0E0F80
1C0F80
1FFFC0
1FFFC0
3FFFC0
3807C0
3803E0
7003E0
7003E0
7003F0
E001F0
ENDCHAR
STARTCHAR uni2132
ENCODING 8498
SWIDTH 602 0
DWIDTH 20 0
BBX 17 25 3 0
BITMAP
000F80
000F80
000F80
000F80
000F80
000F80
000F80
000F80
000F80
000F80
000F80
3FFF80
3FFF80
3FFF80
000F80
000F80
000F80
000F80
000F80
000F80
000F80
000F80
FFFF80
FFFF80
FFFF80
ENDCHAR
STARTCHAR universal
ENCODING 8704
SWIDTH 602 0
DWIDTH 20 0
BBX 20 25 0 0
BITMAP
E001F0
7003F0
7003E0
7003E0
3803E0
3807C0
3FFFC0
1FFFC0
1FFFC0
1C0F80
0E0F80
0E0F80
0E1F80
071F00
071F00
073F00
07BE00
03BE00
03BE00
03FE00
01FC00
01FC00
01FC00
00F800
00F800
ENDCHAR
STARTCHAR existential
ENCODING 8707
SWIDTH 602 0
DWIDTH 20 0
BBX 16 25 3 0
BITMAP
7FFF
7FFF
7FFF
001F
001F
001F
001F
001F
001F
001F
3FFF
3FFF
3FFF
001F
001F
001F
001F
001F
001F
001F
001F
001F
FFFF
FFFF
FFFF
ENDCHAR
STARTCHAR uni2204
ENCODING 8708
SWIDTH 602 0
DWIDTH 20 0
BBX 20 32 1 -3
BITMAP
0001F0
0001E0
0003E0
0003C0
1FFFC0
1FFFC0
1FFFC0
000FC0
001FC0
001FC0
003FC0
003FC0
007FC0
007FC0
0FFFC0
0FFFC0
0FFFC0
01E7C0
03E7C0
03C7C0
07C7C0
0787C0
0787C0
0F07C0
0F07C0
1E07C0
3FFFC0
3FFFC0
3FFFC0
780000
780000
F00000
ENDCHAR
STARTCHAR minus
ENCODING 8722
SWIDTH 602 0
DWIDTH 20 0
BBX 18 4 1 6
BITMAP
FFFFC0
FFFFC0
FFFFC0
FFFFC0
ENDCHAR
STARTCHAR fraction
ENCODING 8725
SWIDTH 602 0
DWIDTH 20 0
BBX 20 25 0 0
BITMAP
0000F0
0000E0
0001C0
0003C0
000380
000700
000F00
000E00
001C00
003C00
003800
007000
00F000
00E000
01C000
03C000
038000
070000
0F0000
0E0000
1C0000
3C0000
380000
700000
F00000
ENDCHAR
STARTCHAR periodcentered
ENCODING 8729
SWIDTH 602 0
DWIDTH 20 0
BBX 5 5 8 6
BITMAP
F8
F8
F8
F8
F8
ENDCHAR
STARTCHAR uni2236
ENCODING 8758
SWIDTH 602 0
DWIDTH 20 0
BBX 5 18 8 0
BITMAP
F8
F8
F8
F8
F8
00
00
00
00
00
00
00
00
F8
F8
F8
F8
F8
ENDCHAR
STARTCHAR uni2259
ENCODING 8793
SWIDTH 602 0
DWIDTH 20 0
BBX 18 18 1 3
BITMAP
01E000
03F000
07F800
073800
0F3C00
000000
FFFFC0
FFFFC0
FFFFC0
FFFFC0
000000
000000
000000
000000
FFFFC0
FFFFC0
FFFFC0
FFFFC0
ENDCHAR
STARTCHAR uni225A
ENCODING 8794
SWIDTH 602 0
DWIDTH 20 0
BBX 18 18 1 3
BITMAP
0F3C00
073800
07F800
03F000
01E000
000000
FFFFC0
FFFFC0
FFFFC0
FFFFC0
000000
000000
000000
000000
FFFFC0
FFFFC0
FFFFC0
FFFFC0
ENDCHAR
STARTCHAR notequal
ENCODING 8800
SWIDTH 602 0
DWIDTH 20 0
BBX 20 32 0 -7
BITMAP
0001F0
0001E0
0003E0
0003C0
0007C0
000780
000F80
000F00
001F00
001E00
7FFFE0
7FFFE0
7FFFE0
7FFFE0
00F800
00F000
01F000
01E000
7FFFE0
7FFFE0
7FFFE0
7FFFE0
078000
0F0000
0F0000
1E0000
1E0000
3C0000
3C0000
780000
780000
F00000
ENDCHAR
STARTCHAR equivalence
ENCODING 8801
SWIDTH 602 0
DWIDTH 20 0
BBX 18 14 0 2
BITMAP
FFFFC0
FFFFC0
FFFFC0
FFFFC0
000000
FFFFC0
FFFFC0
FFFFC0
FFFFC0
000000
FFFFC0
FFFFC0
FFFFC0
FFFFC0
ENDCHAR
STARTCHAR uni2262
ENCODING 8802
SWIDTH 602 0
DWIDTH 20 0
BBX 20 32 -1 -7
BITMAP
0001F0
0001E0
0003E0
0003C0
0007C0
000780
000F80
000F00
001F00
7FFFE0
7FFFE0
7FFFE0
7FFFE0
007800
7FFFE0
7FFFE0
7FFFE0
7FFFE0
03E000
7FFFE0
7FFFE0
7FFFE0
7FFFE0
0F0000
0F0000
1E0000
1E0000
3C0000
3C0000
780000
780000
F00000
ENDCHAR
STARTCHAR lessequal
ENCODING 8804
SWIDTH 602 0
DWIDTH 20 0
BBX 18 23 1 -5
BITMAP
000040
0001C0
0007C0
001FC0
007FC0
01FF00
07FC00
1FF000
FFC000
7FC000
1FF000
07FC00
01FF00
007FC0
001FC0
0007C0
0001C0
000040
000000
FFFFC0
FFFFC0
FFFFC0
FFFFC0
ENDCHAR
STARTCHAR greaterequal
ENCODING 8805
SWIDTH 602 0
DWIDTH 20 0
BBX 18 23 1 -5
BITMAP
800000
E00000
F80000
FE0000
FF8000
3FE000
0FF800
03FE00
00FF80
00FFC0
03FE00
0FF800
3FE000
FF8000
FE0000
F80000
E00000
800000
000000
FFFFC0
FFFFC0
FFFFC0
FFFFC0
ENDCHAR
STARTCHAR uni226E
ENCODING 8814
SWIDTH 602 0
DWIDTH 20 0
BBX 20 32 0 -7
BITMAP
0001F0
0001E0
0003E0
0003C0
0007C0
000780
000F80
000F20
001FE0
001FE0
003FE0
003FE0
00FF80
03FE00
0FF800
7FF000
3FF000
0FF800
03FE00
03FF80
07FFE0
078FE0
0783E0
0F00E0
0F0020
1E0000
1E0000
3C0000
3C0000
780000
780000
F00000
ENDCHAR
STARTCHAR uni226F
ENCODING 8815
SWIDTH 602 0
DWIDTH 20 0
BBX 20 32 0 -7
BITMAP
0001F0
0001E0
0003E0
0003C0
0007C0
000780
000F80
400F00
701F00
7C1E00
7F3E00
7FFC00
1FFC00
07FC00
01FF00
00FFC0
01FFE0
01FF00
07FC00
1FF000
7FC000
7F8000
7F8000
7F0000
4F0000
1E0000
1E0000
3C0000
3C0000
780000
780000
F00000
ENDCHAR
STARTCHAR uni2270
ENCODING 8816
SWIDTH 602 0
DWIDTH 20 0
BBX 20 32 0 -9
BITMAP
0001F0
0001E0
0003E0
0003C0
0007C0
0007A0
000FE0
000FE0
001FE0
003FE0
00FF80
03FE00
0FFC00
7FF800
3FF800
0FF800
03FE00
01FF80
03FFE0
03CFE0
07C3E0
0780E0
078020
0F0000
7FFFE0
7FFFE0
7FFFE0
7FFFE0
3C0000
780000
780000
F00000
ENDCHAR
STARTCHAR uni2271
ENCODING 8817
SWIDTH 602 0
DWIDTH 20 0
BBX 20 32 0 -9
BITMAP
0001F0
0001E0
0003E0
0003C0
0007C0
400780
700F80
7C0F00
7F1F00
7FDE00
1FFE00
07FC00
01FF00
007FC0
00FFE0
01FF00
07FC00
1FF000
7FE000
7FC000
7FC000
778000
478000
0F0000
7FFFE0
7FFFE0
7FFFE0
7FFFE0
3C0000
780000
780000
F00000
ENDCHAR
STARTCHAR SF100000
ENCODING 9472
SWIDTH 602 0
DWIDTH 20 0
BBX 20 4 0 10
BITMAP
FFFFF0
FFFFF0
FFFFF0
FFFFF0
ENDCHAR
STARTCHAR uni2501
ENCODING 9473
SWIDTH 602 0
DWIDTH 20 0
BBX 20 12 0 6
BITMAP
FFFFF0
FFFFF0
FFFFF0
FFFFF0
FFFFF0
FFFFF0
FFFFF0
FFFFF0
FFFFF0
FFFFF0
FFFFF0
FFFFF0
ENDCHAR
STARTCHAR SF110000
ENCODING 9474
SWIDTH 602 0
DWIDTH 20 0
BBX 4 38 8 -7
BITMAP
F0
F0
F0
F0
F0
F0
F0
F0
F0
F0
F0
F0
F0
F0
F0
F0
F0
F0
F0
F0
F0
F0
F0
F0
F0
F0
F0
F0
F0
F0
F0
F0
F0
F0
F0
F0
F0
F0
ENDCHAR
STARTCHAR uni2503
ENCODING 9475
SWIDTH 602 0
DWIDTH 20 0
BBX 12 38 4 -7
BITMAP
FFF0
FFF0
FFF0
FFF0
FFF0
FFF0
FFF0
FFF0
FFF0
FFF0
FFF0
FFF0
FFF0
FFF0
FFF0
FFF0
FFF0
FFF0
FFF0
FFF0
FFF0
FFF0
FFF0
FFF0
FFF0
FFF0
FFF0
FFF0
FFF0
FFF0
FFF0
FFF0
FFF0
FFF0
FFF0
FFF0
FFF0
FFF0
ENDCHAR
STARTCHAR SF010000
ENCODING 9484
SWIDTH 602 0
DWIDTH 20 0
BBX 12 21 8 -7
BITMAP
FFF0
FFF0
FFF0
FFF0
F000
F000
F000
F000
F000
F000
F000
F000
F000
F000
F000
F000
F000
F000
F000
F000
F000
ENDCHAR
STARTCHAR uni250D
ENCODING 9485
SWIDTH 602 0
DWIDTH 20 0
BBX 16 25 4 -7
BITMAP
FFFF
FFFF
FFFF
FFFF
FFFF
FFFF
FFFF
FFFF
FFFF
FFFF
FFFF
FFFF
0F00
0F00
0F00
0F00
0F00
0F00
0F00
0F00
0F00
0F00
0F00
0F00
0F00
ENDCHAR
STARTCHAR uni250E
ENCODING 9486
SWIDTH 602 0
DWIDTH 20 0
BBX 16 25 4 -7
BITMAP
FFF0
FFF0
FFF0
FFF0
FFFF
FFFF
FFFF
FFFF
FFF0
FFF0
FFF0
FFF0
FFF0
FFF0
FFF0
FFF0
FFF0
FFF0
FFF0
FFF0
FFF0
FFF0
FFF0
FFF0
FFF0
ENDCHAR
STARTCHAR uni250F
ENCODING 9487
SWIDTH 602 0
DWIDTH 20 0
BBX 16 25 4 -7
BITMAP
FFFF
FFFF
FFFF
FFFF
FFFF
FFFF
FFFF
FFFF
FFFF
FFFF
FFFF
FFFF
FFF0
FFF0
FFF0
FFF0
FFF0
FFF0
FFF0
FFF0
FFF0
FFF0
FFF0
FFF0
FFF0
ENDCHAR
STARTCHAR SF030000
ENCODING 9488
SWIDTH 602 0
DWIDTH 20 0
BBX 12 21 0 -7
BITMAP
FFF0
FFF0
FFF0
FFF0
00F0
00F0
00F0
00F0
00F0
00F0
00F0
00F0
00F0
00F0
00F0
00F0
00F0
00F0
00F0
00F0
00F0
ENDCHAR
STARTCHAR uni2511
ENCODING 9489
SWIDTH 602 0
DWIDTH 20 0
BBX 16 25 0 -7
BITMAP
FFFF
FFFF
FFFF
FFFF
FFFF
FFFF
FFFF
FFFF
FFFF
FFFF
FFFF
FFFF
00F0
00F0
00F0
00F0
00F0
00F0
00F0
00F0
00F0
00F0
00F0
00F0
00F0
ENDCHAR
STARTCHAR uni2512
ENCODING 9490
SWIDTH 602 0
DWIDTH 20 0
BBX 16 25 0 -7
BITMAP
0FFF
0FFF
0FFF
0FFF
FFFF
FFFF
FFFF
FFFF
0FFF
0FFF
0FFF
0FFF
0FFF
0FFF
0FFF
0FFF
0FFF
0FFF
0FFF
0FFF
0FFF
0FFF
0FFF
0FFF
0FFF
ENDCHAR
STARTCHAR uni2513
ENCODING 9491
SWIDTH 602 0
DWIDTH 20 0
BBX 16 25 0 -7
BITMAP
FFFF
FFFF
FFFF
FFFF
FFFF
FFFF
FFFF
FFFF
FFFF
FFFF
FFFF
FFFF
0FFF
0FFF
0FFF
0FFF
0FFF
0FFF
0FFF
0FFF
0FFF
0FFF
0FFF
0FFF
0FFF
ENDCHAR
STARTCHAR SF020000
ENCODING 9492
SWIDTH 602 0
DWIDTH 20 0
BBX 12 21 8 10
BITMAP
F000
F000
F000
F000
F000
F000
F000
F000
F000
F000
F000
F000
F000
F000
F000
F000
F000
FFF0
FFF0
FFF0
FFF0
ENDCHAR
STARTCHAR uni2515
ENCODING 9493
SWIDTH 602 0
DWIDTH 20 0
BBX 16 25 4 6
BITMAP
0F00
0F00
0F00
0F00
0F00
0F00
0F00
0F00
0F00
0F00
0F00
0F00
0F00
FFFF
FFFF
FFFF
FFFF
FFFF
FFFF
FFFF
FFFF
FFFF
FFFF
FFFF
FFFF
ENDCHAR
STARTCHAR uni2516
ENCODING 9494
SWIDTH 602 0
DWIDTH 20 0
BBX 16 25 4 6
BITMAP
FFF0
FFF0
FFF0
FFF0
FFF0
FFF0
FFF0
FFF0
FFF0
FFF0
FFF0
FFF0
FFF0
FFF0
FFF0
FFF0
FFF0
FFFF
FFFF
FFFF
FFFF
FFF0
FFF0
FFF0
FFF0
ENDCHAR
STARTCHAR uni2517
ENCODING 9495
SWIDTH 602 0
DWIDTH 20 0
BBX 16 25 4 6
BITMAP
FFF0
FFF0
FFF0
FFF0
FFF0
FFF0
FFF0
FFF0
FFF0
FFF0
FFF0
FFF0
FFF0
FFFF
FFFF
FFFF
FFFF
FFFF
FFFF
FFFF
FFFF
FFFF
FFFF
FFFF
FFFF
ENDCHAR
STARTCHAR SF040000
ENCODING 9496
SWIDTH 602 0
DWIDTH 20 0
BBX 12 21 0 10
BITMAP
00F0
00F0
00F0
00F0
00F0
00F0
00F0
00F0
00F0
00F0
00F0
00F0
00F0
00F0
00F0
00F0
00F0
FFF0
FFF0
FFF0
FFF0
ENDCHAR
STARTCHAR uni2519
ENCODING 9497
SWIDTH 602 0
DWIDTH 20 0
BBX 16 25 0 6
BITMAP
00F0
00F0
00F0
00F0
00F0
00F0
00F0
00F0
00F0
00F0
00F0
00F0
00F0
FFFF
FFFF
FFFF
FFFF
FFFF
FFFF
FFFF
FFFF
FFFF
FFFF
FFFF
FFFF
ENDCHAR
STARTCHAR uni251A
ENCODING 9498
SWIDTH 602 0
DWIDTH 20 0
BBX 16 25 0 6
BITMAP
0FFF
0FFF
0FFF
0FFF
0FFF
0FFF
0FFF
0FFF
0FFF
0FFF
0FFF
0FFF
0FFF
0FFF
0FFF
0FFF
0FFF
FFFF
FFFF
FFFF
FFFF
0FFF
0FFF
0FFF
0FFF
ENDCHAR
STARTCHAR uni251B
ENCODING 9499
SWIDTH 602 0
DWIDTH 20 0
BBX 16 25 0 6
BITMAP
0FFF
0FFF
0FFF
0FFF
0FFF
0FFF
0FFF
0FFF
0FFF
0FFF
0FFF
0FFF
0FFF
FFFF
FFFF
FFFF
FFFF
FFFF
FFFF
FFFF
FFFF
FFFF
FFFF
FFFF
FFFF
ENDCHAR
STARTCHAR SF080000
ENCODING 9500
SWIDTH 602 0
DWIDTH 20 0
BBX 12 38 8 -7
BITMAP
F000
F000
F000
F000
F000
F000
F000
F000
F000
F000
F000
F000
F000
F000
F000
F000
F000
FFF0
FFF0
FFF0
FFF0
F000
F000
F000
F000
F000
F000
F000
F000
F000
F000
F000
F000
F000
F000
F000
F000
F000
ENDCHAR
STARTCHAR uni251D
ENCODING 9501
SWIDTH 602 0
DWIDTH 20 0
BBX 16 38 4 -7
BITMAP
0F00
0F00
0F00
0F00
0F00
0F00
0F00
0F00
0F00
0F00
0F00
0F00
0F00
FFFF
FFFF
FFFF
FFFF
FFFF
FFFF
FFFF
FFFF
FFFF
FFFF
FFFF
FFFF
0F00
0F00
0F00
0F00
0F00
0F00
0F00
0F00
0F00
0F00
0F00
0F00
0F00
ENDCHAR
STARTCHAR uni251E
ENCODING 9502
SWIDTH 602 0
DWIDTH 20 0
BBX 16 38 4 -7
BITMAP
FFF0
FFF0
FFF0
FFF0
FFF0
FFF0
FFF0
FFF0
FFF0
FFF0
FFF0
FFF0
FFF0
FFF0
FFF0
FFF0
FFF0
FFFF
FFFF
FFFF
FFFF
FFF0
FFF0
FFF0
FFF0
0F00
0F00
0F00
0F00
0F00
0F00
0F00
0F00
0F00
0F00
0F00
0F00
0F00
ENDCHAR
STARTCHAR uni251F
ENCODING 9503
SWIDTH 602 0
DWIDTH 20 0
BBX 16 38 4 -7
BITMAP
0F00
0F00
0F00
0F00
0F00
0F00
0F00
0F00
0F00
0F00
0F00
0F00
0F00
FFF0
FFF0
FFF0
FFF0
FFFF
FFFF
FFFF
FFFF
FFF0
FFF0
FFF0
FFF0
FFF0
FFF0
FFF0
FFF0
FFF0
FFF0
FFF0
FFF0
FFF0
FFF0
FFF0
FFF0
FFF0
ENDCHAR
STARTCHAR uni2520
ENCODING 9504
SWIDTH 602 0
DWIDTH 20 0
BBX 16 38 4 -7
BITMAP
FFF0
FFF0
FFF0
FFF0
FFF0
FFF0
FFF0
FFF0
FFF0
FFF0
FFF0
FFF0
FFF0
FFF0
FFF0
FFF0
FFF0
FFFF
FFFF
FFFF
FFFF
FFF0
FFF0
FFF0
FFF0
FFF0
FFF0
FFF0
FFF0
FFF0
FFF0
FFF0
FFF0
FFF0
FFF0
FFF0
FFF0
FFF0
ENDCHAR
STARTCHAR uni2521
ENCODING 9505
SWIDTH 602 0
DWIDTH 20 0
BBX 16 38 4 -7
BITMAP
FFF0
FFF0
FFF0
FFF0
FFF0
FFF0
FFF0
FFF0
FFF0
FFF0
FFF0
FFF0
FFF0
FFFF
FFFF
FFFF
FFFF
FFFF
FFFF
FFFF
FFFF
FFFF
FFFF
FFFF
FFFF
0F00
0F00
0F00
0F00
0F00
0F00
0F00
0F00
0F00
0F00
0F00
0F00
0F00
ENDCHAR
STARTCHAR uni2522
ENCODING 9506
SWIDTH 602 0
DWIDTH 20 0
BBX 16 38 4 -7
BITMAP
0F00
0F00
0F00
0F00
0F00
0F00
0F00
0F00
0F00
0F00
0F00
0F00
0F00
FFFF
FFFF
FFFF
FFFF
FFFF
FFFF
FFFF
FFFF
FFFF
FFFF
FFFF
FFFF
FFF0
FFF0
FFF0
FFF0
FFF0
FFF0
FFF0
FFF0
FFF0
FFF0
FFF0
FFF0
FFF0
ENDCHAR
STARTCHAR uni2523
ENCODING 9507
SWIDTH 602 0
DWIDTH 20 0
BBX 16 38 4 -7
BITMAP
FFF0
FFF0
FFF0
FFF0
FFF0
FFF0
FFF0
FFF0
FFF0
FFF0
FFF0
FFF0
FFF0
FFFF
FFFF
FFFF
FFFF
FFFF
FFFF
FFFF
FFFF
FFFF
FFFF
FFFF
FFFF
FFF0
FFF0
FFF0
FFF0
FFF0
FFF0
FFF0
FFF0
FFF0
FFF0
FFF0
FFF0
FFF0
ENDCHAR
STARTCHAR SF090000
ENCODING 9508
SWIDTH 602 0
DWIDTH 20 0
BBX 12 38 0 -7
BITMAP
00F0
00F0
00F0
00F0
00F0
00F0
00F0
00F0
00F0
00F0
00F0
00F0
00F0
00F0
00F0
00F0
00F0
FFF0
FFF0
FFF0
FFF0
00F0
00F0
00F0
00F0
00F0
00F0
00F0
00F0
00F0
00F0
00F0
00F0
00F0
00F0
00F0
00F0
00F0
ENDCHAR
STARTCHAR uni2525
ENCODING 9509
SWIDTH 602 0
DWIDTH 20 0
BBX 16 38 0 -7
BITMAP
00F0
00F0
00F0
00F0
00F0
00F0
00F0
00F0
00F0
00F0
00F0
00F0
00F0
FFFF
FFFF
FFFF
FFFF
FFFF
FFFF
FFFF
FFFF
FFFF
FFFF
FFFF
FFFF
00F0
00F0
00F0
00F0
00F0
00F0
00F0
00F0
00F0
00F0
00F0
00F0
00F0
ENDCHAR
STARTCHAR uni2526
ENCODING 9510
SWIDTH 602 0
DWIDTH 20 0
BBX 16 38 0 -7
BITMAP
0FFF
0FFF
0FFF
0FFF
0FFF
0FFF
0FFF
0FFF
0FFF
0FFF
0FFF
0FFF
0FFF
0FFF
0FFF
0FFF
0FFF
FFFF
FFFF
FFFF
FFFF
0FFF
0FFF
0FFF
0FFF
00F0
00F0
00F0
00F0
00F0
00F0
00F0
00F0
00F0
00F0
00F0
00F0
00F0
ENDCHAR
STARTCHAR uni2527
ENCODING 9511
SWIDTH 602 0
DWIDTH 20 0
BBX 16 38 0 -7
BITMAP
00F0
00F0
00F0
00F0
00F0
00F0
00F0
00F0
00F0
00F0
00F0
00F0
00F0
0FFF
0FFF
0FFF
0FFF
FFFF
FFFF
FFFF
FFFF
0FFF
0FFF
0FFF
0FFF
0FFF
0FFF
0FFF
0FFF
0FFF
0FFF
0FFF
0FFF
0FFF
0FFF
0FFF
0FFF
0FFF
ENDCHAR
STARTCHAR uni2528
ENCODING 9512
SWIDTH 602 0
DWIDTH 20 0
BBX 16 38 0 -7
BITMAP
0FFF
0FFF
0FFF
0FFF
0FFF
0FFF
0FFF
0FFF
0FFF
0FFF
0FFF
0FFF
0FFF
0FFF
0FFF
0FFF
0FFF
FFFF
FFFF
FFFF
FFFF
0FFF
0FFF
0FFF
0FFF
0FFF
0FFF
0FFF
0FFF
0FFF
0FFF
0FFF
0FFF
0FFF
0FFF
0FFF
0FFF
0FFF
ENDCHAR
STARTCHAR uni2529
ENCODING 9513
SWIDTH 602 0
DWIDTH 20 0
BBX 16 38 0 -7
BITMAP
0FFF
0FFF
0FFF
0FFF
0FFF
0FFF
0FFF
0FFF
0FFF
0FFF
0FFF
0FFF
0FFF
FFFF
FFFF
FFFF
FFFF
FFFF
FFFF
FFFF
FFFF
FFFF
FFFF
FFFF
FFFF
00F0
00F0
00F0
00F0
00F0
00F0
00F0
00F0
00F0
00F0
00F0
00F0
00F0
ENDCHAR
STARTCHAR uni252A
ENCODING 9514
SWIDTH 602 0
DWIDTH 20 0
BBX 16 38 0 -7
BITMAP
00F0
00F0
00F0
00F0
00F0
00F0
00F0
00F0
00F0
00F0
00F0
00F0
00F0
FFFF
FFFF
FFFF
FFFF
FFFF
FFFF
FFFF
FFFF
FFFF
FFFF
FFFF
FFFF
0FFF
0FFF
0FFF
0FFF
0FFF
0FFF
0FFF
0FFF
0FFF
0FFF
0FFF
0FFF
0FFF
ENDCHAR
STARTCHAR uni252B
ENCODING 9515
SWIDTH 602 0
DWIDTH 20 0
BBX 16 38 0 -7
BITMAP
0FFF
0FFF
0FFF
0FFF
0FFF
0FFF
0FFF
0FFF
0FFF
0FFF
0FFF
0FFF
0FFF
FFFF
FFFF
FFFF
FFFF
FFFF
FFFF
FFFF
FFFF
FFFF
FFFF
FFFF
FFFF
0FFF
0FFF
0FFF
0FFF
0FFF
0FFF
0FFF
0FFF
0FFF
0FFF
0FFF
0FFF
0FFF
ENDCHAR
STARTCHAR SF060000
ENCODING 9516
SWIDTH 602 0
DWIDTH 20 0
BBX 20 21 0 -7
BITMAP
FFFFF0
FFFFF0
FFFFF0
FFFFF0
00F000
00F000
00F000
00F000
00F000
00F000
00F000
00F000
00F000
00F000
00F000
00F000
00F000
00F000
00F000
00F000
00F000
ENDCHAR
STARTCHAR uni252D
ENCODING 9517
SWIDTH 602 0
DWIDTH 20 0
BBX 20 25 0 -7
BITMAP
FFFF00
FFFF00
FFFF00
FFFF00
FFFFF0
FFFFF0
FFFFF0
FFFFF0
FFFF00
FFFF00
FFFF00
FFFF00
00F000
00F000
00F000
00F000
00F000
00F000
00F000
00F000
00F000
00F000
00F000
00F000
00F000
ENDCHAR
STARTCHAR uni252E
ENCODING 9518
SWIDTH 602 0
DWIDTH 20 0
BBX 20 25 0 -7
BITMAP
0FFFF0
0FFFF0
0FFFF0
0FFFF0
FFFFF0
FFFFF0
FFFFF0
FFFFF0
0FFFF0
0FFFF0
0FFFF0
0FFFF0
00F000
00F000
00F000
00F000
00F000
00F000
00F000
00F000
00F000
00F000
00F000
00F000
00F000
ENDCHAR
STARTCHAR uni252F
ENCODING 9519
SWIDTH 602 0
DWIDTH 20 0
BBX 20 25 0 -7
BITMAP
FFFFF0
FFFFF0
FFFFF0
FFFFF0
FFFFF0
FFFFF0
FFFFF0
FFFFF0
FFFFF0
FFFFF0
FFFFF0
FFFFF0
00F000
00F000
00F000
00F000
00F000
00F000
00F000
00F000
00F000
00F000
00F000
00F000
00F000
ENDCHAR
STARTCHAR uni2530
ENCODING 9520
SWIDTH 602 0
DWIDTH 20 0
BBX 20 25 0 -7
BITMAP
0FFF00
0FFF00
0FFF00
0FFF00
FFFFF0
FFFFF0
FFFFF0
FFFFF0
0FFF00
0FFF00
0FFF00
0FFF00
0FFF00
0FFF00
0FFF00
0FFF00
0FFF00
0FFF00
0FFF00
0FFF00
0FFF00
0FFF00
0FFF00
0FFF00
0FFF00
ENDCHAR
STARTCHAR uni2531
ENCODING 9521
SWIDTH 602 0
DWIDTH 20 0
BBX 20 25 0 -7
BITMAP
FFFF00
FFFF00
FFFF00
FFFF00
FFFFF0
FFFFF0
FFFFF0
FFFFF0
FFFF00
FFFF00
FFFF00
FFFF00
0FFF00
0FFF00
0FFF00
0FFF00
0FFF00
0FFF00
0FFF00
0FFF00
0FFF00
0FFF00
0FFF00
0FFF00
0FFF00
ENDCHAR
STARTCHAR uni2532
ENCODING 9522
SWIDTH 602 0
DWIDTH 20 0
BBX 20 25 0 -7
BITMAP
0FFFF0
0FFFF0
0FFFF0
0FFFF0
FFFFF0
FFFFF0
FFFFF0
FFFFF0
0FFFF0
0FFFF0
0FFFF0
0FFFF0
0FFF00
0FFF00
0FFF00
0FFF00
0FFF00
0FFF00
0FFF00
0FFF00
0FFF00
0FFF00
0FFF00
0FFF00
0FFF00
ENDCHAR
STARTCHAR uni2533
ENCODING 9523
SWIDTH 602 0
DWIDTH 20 0
BBX 20 25 0 -7
BITMAP
FFFFF0
FFFFF0
FFFFF0
FFFFF0
FFFFF0
FFFFF0
FFFFF0
FFFFF0
FFFFF0
FFFFF0
FFFFF0
FFFFF0
0FFF00
0FFF00
0FFF00
0FFF00
0FFF00
0FFF00
0FFF00
0FFF00
0FFF00
0FFF00
0FFF00
0FFF00
0FFF00
ENDCHAR
STARTCHAR SF070000
ENCODING 9524
SWIDTH 602 0
DWIDTH 20 0
BBX 20 21 0 10
BITMAP
00F000
00F000
00F000
00F000
00F000
00F000
00F000
00F000
00F000
00F000
00F000
00F000
00F000
00F000
00F000
00F000
00F000
FFFFF0
FFFFF0
FFFFF0
FFFFF0
ENDCHAR
STARTCHAR uni2535
ENCODING 9525
SWIDTH 602 0
DWIDTH 20 0
BBX 20 25 0 6
BITMAP
00F000
00F000
00F000
00F000
00F000
00F000
00F000
00F000
00F000
00F000
00F000
00F000
00F000
FFFF00
FFFF00
FFFF00
FFFF00
FFFFF0
FFFFF0
FFFFF0
FFFFF0
FFFF00
FFFF00
FFFF00
FFFF00
ENDCHAR
STARTCHAR uni2536
ENCODING 9526
SWIDTH 602 0
DWIDTH 20 0
BBX 20 25 0 6
BITMAP
00F000
00F000
00F000
00F000
00F000
00F000
00F000
00F000
00F000
00F000
00F000
00F000
00F000
0FFFF0
0FFFF0
0FFFF0
0FFFF0
FFFFF0
FFFFF0
FFFFF0
FFFFF0
0FFFF0
0FFFF0
0FFFF0
0FFFF0
ENDCHAR
STARTCHAR uni2537
ENCODING 9527
SWIDTH 602 0
DWIDTH 20 0
BBX 20 25 0 6
BITMAP
00F000
00F000
00F000
00F000
00F000
00F000
00F000
00F000
00F000
00F000
00F000
00F000
00F000
FFFFF0
FFFFF0
FFFFF0
FFFFF0
FFFFF0
FFFFF0
FFFFF0
FFFFF0
FFFFF0
FFFFF0
FFFFF0
FFFFF0
ENDCHAR
STARTCHAR uni2538
ENCODING 9528
SWIDTH 602 0
DWIDTH 20 0
BBX 20 25 0 6
BITMAP
0FFF00
0FFF00
0FFF00
0FFF00
0FFF00
0FFF00
0FFF00
0FFF00
0FFF00
0FFF00
0FFF00
0FFF00
0FFF00
0FFF00
0FFF00
0FFF00
0FFF00
FFFFF0
FFFFF0
FFFFF0
FFFFF0
0FFF00
0FFF00
0FFF00
0FFF00
ENDCHAR
STARTCHAR uni2539
ENCODING 9529
SWIDTH 602 0
DWIDTH 20 0
BBX 20 25 0 6
BITMAP
0FFF00
0FFF00
0FFF00
0FFF00
0FFF00
0FFF00
0FFF00
0FFF00
0FFF00
0FFF00
0FFF00
0FFF00
0FFF00
FFFF00
FFFF00
FFFF00
FFFF00
FFFFF0
FFFFF0
FFFFF0
FFFFF0
FFFF00
FFFF00
FFFF00
FFFF00
ENDCHAR
ENDFONT
